# Blender 5.2.0 LTS
# www.blender.org
mtllib land-cluiser-prado-150.mtl
o 平面
v 0.000000 1.907357 0.568319
v 0.698442 1.907357 0.502429
v 0.000000 2.099601 -2.166730
v 0.634954 2.099601 -2.179832
v 0.174610 1.907357 0.562753
v 0.349221 1.907357 0.548462
v 0.523831 1.907357 0.531990
v 0.476215 2.099601 -2.159906
v 0.317477 2.099601 -2.162181
v 0.158738 2.099601 -2.164455
v 0.000000 2.099601 -1.862835
v 0.000000 2.099601 -1.558941
v 0.000000 2.099601 -1.255047
v 0.000000 2.089502 -0.951153
v 0.000000 2.080665 -0.647258
v 0.000000 2.069445 -0.343364
v 0.000000 2.069445 -0.039470
v 0.000000 2.023275 0.264425
v 0.678299 2.023275 0.206866
v 0.669063 2.069445 -0.088696
v 0.664190 2.069445 -0.384258
v 0.657136 2.080665 -0.679821
v 0.652263 2.089502 -0.975383
v 0.647391 2.092026 -1.270945
v 0.649062 2.099601 -1.566507
v 0.642008 2.099601 -1.862070
v 0.172847 2.023275 0.259730
v 0.171083 2.069445 -0.043293
v 0.169320 2.069445 -0.346316
v 0.167556 2.080665 -0.649339
v 0.165793 2.089502 -0.952363
v 0.164029 2.092026 -1.255386
v 0.162266 2.099601 -1.558409
v 0.160502 2.099601 -1.861432
v 0.345694 2.023275 0.247280
v 0.342167 2.069445 -0.053903
v 0.338639 2.069445 -0.355085
v 0.335112 2.080665 -0.656268
v 0.331585 2.089502 -0.957451
v 0.328058 2.092026 -1.258633
v 0.324531 2.099601 -1.559816
v 0.321004 2.099601 -1.860998
v 0.518541 2.023275 0.232890
v 0.513250 2.069445 -0.066209
v 0.507959 2.069445 -0.365309
v 0.502669 2.080665 -0.664409
v 0.497378 2.089502 -0.963508
v 0.492087 2.092026 -1.262608
v 0.486797 2.099601 -1.561707
v 0.481506 2.099601 -1.860807
v 0.680763 2.054155 -2.236468
v 0.768020 1.711342 -2.465643
v 0.846551 1.708774 -2.394978
v 0.718782 2.054155 -2.189590
v 0.753378 1.885799 0.495472
v 0.719435 2.054155 -1.829879
v 0.723205 2.054155 -1.539210
v 0.726974 2.054155 -1.248541
v 0.730744 2.053193 -0.957872
v 0.732332 2.053193 -0.667204
v 0.731739 2.053193 -0.376535
v 0.735508 2.035520 -0.085866
v 0.734460 1.994055 0.204803
v 0.636048 2.099601 -2.111772
v 0.159012 2.099601 -2.117438
v 0.318024 2.099601 -2.115449
v 0.477036 2.099601 -2.113498
v 0.000000 2.099601 -2.119577
v 0.000000 1.278895 2.429026
v 0.819220 1.298564 2.183443
v 0.000000 1.463548 1.385245
v 0.827031 1.476904 1.245447
v 0.067041 1.278895 2.432117
v 0.170438 1.298564 2.427937
v 0.351094 1.298564 2.420122
v 0.477215 1.298564 2.412306
v 0.585157 1.298564 2.339048
v 0.702189 1.298564 2.267608
v 0.708884 1.483216 1.315827
v 0.590737 1.483216 1.348217
v 0.472589 1.483216 1.364535
v 0.354442 1.483216 1.377201
v 0.215086 1.483216 1.380369
v 0.118147 1.463548 1.382807
v 0.000000 1.449749 1.559209
v 0.000000 1.431593 1.733172
v 0.000000 1.416046 1.907135
v 0.000000 1.389231 2.081099
v 0.000000 1.353366 2.255063
v 0.828558 1.373034 2.027111
v 0.834974 1.408899 1.870778
v 0.839929 1.435714 1.714445
v 0.845614 1.451261 1.558113
v 0.849107 1.469417 1.313383
v 0.117217 1.353366 2.222498
v 0.117403 1.389231 2.051053
v 0.117589 1.416046 1.879608
v 0.117775 1.431593 1.708163
v 0.117961 1.449749 1.536719
v 0.190504 1.373034 2.202052
v 0.196935 1.408899 2.033126
v 0.206396 1.435714 1.859655
v 0.209798 1.451261 1.687700
v 0.214715 1.469417 1.515744
v 0.351652 1.373034 2.157369
v 0.352210 1.408899 1.990961
v 0.352768 1.435714 1.824554
v 0.353326 1.451261 1.658147
v 0.353884 1.469417 1.491739
v 0.468870 1.373034 2.124804
v 0.469614 1.408899 1.960916
v 0.470358 1.435714 1.797027
v 0.471101 1.451261 1.633138
v 0.471845 1.469417 1.469249
v 0.586087 1.373034 2.092240
v 0.587017 1.408899 1.930870
v 0.587947 1.435714 1.769500
v 0.588877 1.451261 1.608130
v 0.589807 1.469417 1.446760
v 0.703305 1.373034 2.059675
v 0.704421 1.408899 1.900824
v 0.705536 1.435714 1.741972
v 0.706652 1.451261 1.583121
v 0.707768 1.469417 1.424270
v 0.132049 1.298564 2.429308
v 0.176331 1.483216 1.381169
v 0.152053 1.373034 2.212734
v 0.158424 1.408899 2.042982
v 0.167824 1.435714 1.868685
v 0.171164 1.451261 1.695903
v 0.176020 1.469417 1.523121
v 0.829064 1.529305 1.107325
v 0.874358 1.507746 1.060918
v 0.893293 1.463447 1.131612
v 0.880670 1.376666 1.918082
v 0.828048 1.486419 1.176386
v 0.886982 1.420428 1.524847
v 0.890138 1.436937 1.308066
v 0.883826 1.404415 1.721464
v 0.849945 1.342058 2.050763
v 0.891716 1.447036 1.229921
v 0.702577 1.969625 -2.318763
v 0.724392 1.885095 -2.369126
v 0.746206 1.800565 -2.421593
v 0.813830 1.800565 -2.351510
v 0.781108 1.885095 -2.307363
v 0.748387 1.969625 -2.262528
v 0.620144 2.066354 -2.230898
v 0.462075 2.082557 -2.220123
v 0.313008 2.080056 -2.223539
v 0.158103 2.086545 -2.224147
v 0.000000 2.084117 -2.223982
v 0.612213 2.018736 -2.277676
v 0.406493 2.025199 -2.277229
v 0.293020 2.027066 -2.276474
v 0.141498 2.037685 -2.278821
v 0.000000 2.041177 -2.279055
v 0.691670 2.011890 -2.277616
v -0.698442 1.907357 0.502429
v -0.634954 2.099601 -2.179832
v -0.174610 1.907357 0.562753
v -0.349221 1.907357 0.548462
v -0.523831 1.907357 0.531990
v -0.476215 2.099601 -2.159906
v -0.317477 2.099601 -2.162181
v -0.158738 2.099601 -2.164455
v -0.678299 2.023275 0.206866
v -0.669063 2.069445 -0.088696
v -0.664190 2.069445 -0.384258
v -0.657136 2.080665 -0.679821
v -0.652263 2.089502 -0.975383
v -0.647391 2.092026 -1.270945
v -0.649062 2.099601 -1.566507
v -0.642008 2.099601 -1.862070
v -0.172847 2.023275 0.259730
v -0.171083 2.069445 -0.043293
v -0.169320 2.069445 -0.346316
v -0.167556 2.080665 -0.649339
v -0.165793 2.089502 -0.952363
v -0.164029 2.092026 -1.255386
v -0.162266 2.099601 -1.558409
v -0.160502 2.099601 -1.861432
v -0.345694 2.023275 0.247280
v -0.342167 2.069445 -0.053903
v -0.338639 2.069445 -0.355085
v -0.335112 2.080665 -0.656268
v -0.331585 2.089502 -0.957451
v -0.328058 2.092026 -1.258633
v -0.324531 2.099601 -1.559816
v -0.321004 2.099601 -1.860998
v -0.518541 2.023275 0.232890
v -0.513250 2.069445 -0.066209
v -0.507959 2.069445 -0.365309
v -0.502669 2.080665 -0.664409
v -0.497378 2.089502 -0.963508
v -0.492087 2.092026 -1.262608
v -0.486797 2.099601 -1.561707
v -0.481506 2.099601 -1.860807
v -0.680763 2.054155 -2.236468
v -0.768020 1.711342 -2.465643
v -0.846551 1.708774 -2.394978
v -0.718782 2.054155 -2.189590
v -0.753378 1.885799 0.495472
v -0.719435 2.054155 -1.829879
v -0.723205 2.054155 -1.539210
v -0.726974 2.054155 -1.248541
v -0.730744 2.053193 -0.957872
v -0.732332 2.053193 -0.667204
v -0.731739 2.053193 -0.376535
v -0.735508 2.035520 -0.085866
v -0.734460 1.994055 0.204803
v -0.636048 2.099601 -2.111772
v -0.159012 2.099601 -2.117438
v -0.318024 2.099601 -2.115449
v -0.477036 2.099601 -2.113498
v -0.819220 1.298564 2.183443
v -0.827031 1.476904 1.245447
v -0.067041 1.278895 2.432117
v -0.170438 1.298564 2.427937
v -0.351094 1.298564 2.420122
v -0.477215 1.298564 2.412306
v -0.585157 1.298564 2.339048
v -0.702189 1.298564 2.267608
v -0.708884 1.483216 1.315827
v -0.590737 1.483216 1.348217
v -0.472589 1.483216 1.364535
v -0.354442 1.483216 1.377201
v -0.215086 1.483216 1.380369
v -0.118147 1.463548 1.382807
v -0.828558 1.373034 2.027111
v -0.834974 1.408899 1.870778
v -0.839929 1.435714 1.714445
v -0.845614 1.451261 1.558113
v -0.849107 1.469417 1.313383
v -0.117217 1.353366 2.222498
v -0.117403 1.389231 2.051053
v -0.117589 1.416046 1.879608
v -0.117775 1.431593 1.708163
v -0.117961 1.449749 1.536719
v -0.190504 1.373034 2.202052
v -0.196935 1.408899 2.033126
v -0.206396 1.435714 1.859655
v -0.209798 1.451261 1.687700
v -0.214715 1.469417 1.515744
v -0.351652 1.373034 2.157369
v -0.352210 1.408899 1.990961
v -0.352768 1.435714 1.824554
v -0.353326 1.451261 1.658147
v -0.353884 1.469417 1.491739
v -0.468870 1.373034 2.124804
v -0.469614 1.408899 1.960916
v -0.470358 1.435714 1.797027
v -0.471101 1.451261 1.633138
v -0.471845 1.469417 1.469249
v -0.586087 1.373034 2.092240
v -0.587017 1.408899 1.930870
v -0.587947 1.435714 1.769500
v -0.588877 1.451261 1.608130
v -0.589807 1.469417 1.446760
v -0.703305 1.373034 2.059675
v -0.704421 1.408899 1.900824
v -0.705536 1.435714 1.741972
v -0.706652 1.451261 1.583121
v -0.707768 1.469417 1.424270
v -0.132049 1.298564 2.429308
v -0.176331 1.483216 1.381169
v -0.152053 1.373034 2.212734
v -0.158424 1.408899 2.042982
v -0.167824 1.435714 1.868685
v -0.171164 1.451261 1.695903
v -0.176020 1.469417 1.523121
v -0.829064 1.529305 1.107325
v -0.874358 1.507746 1.060918
v -0.893293 1.463447 1.131612
v -0.880670 1.376666 1.918082
v -0.828048 1.486419 1.176386
v -0.886982 1.420428 1.524847
v -0.890138 1.436937 1.308066
v -0.883826 1.404415 1.721464
v -0.849945 1.342058 2.050763
v -0.891716 1.447036 1.229921
v -0.702577 1.969625 -2.318763
v -0.724392 1.885095 -2.369126
v -0.746206 1.800565 -2.421593
v -0.813830 1.800565 -2.351510
v -0.781108 1.885095 -2.307363
v -0.748387 1.969625 -2.262528
v -0.620144 2.066354 -2.230898
v -0.462075 2.082557 -2.220123
v -0.313008 2.080056 -2.223539
v -0.158103 2.086545 -2.224147
v -0.612213 2.018736 -2.277676
v -0.406493 2.025199 -2.277229
v -0.293020 2.027066 -2.276474
v -0.141498 2.037685 -2.278821
v -0.691670 2.011890 -2.277616
vn -0.0000 1.0000 -0.0000
vn 0.0319 0.9325 0.3597
vn 0.0118 0.9883 0.1519
vn 0.0020 0.9993 0.0373
vn 0.0013 0.9996 0.0294
vn 0.0003 1.0000 0.0084
vn 0.0005 0.9997 0.0252
vn 0.0275 0.9334 0.3579
vn 0.0101 0.9885 0.1510
vn 0.0017 0.9993 0.0371
vn 0.0011 0.9996 0.0292
vn 0.0002 1.0000 0.0084
vn 0.0004 0.9997 0.0251
vn 0.0105 0.9341 0.3568
vn 0.0037 0.9886 0.1504
vn 0.0006 0.9993 0.0369
vn 0.0003 0.9996 0.0291
vn 0.0231 0.9995 0.0207
vn 0.0232 0.9997 0.0124
vn 0.0599 0.9309 0.3604
vn 0.0235 0.9880 0.1528
vn 0.0042 0.9993 0.0376
vn 0.0026 0.9996 0.0297
vn 0.0006 1.0000 0.0085
vn 0.0011 0.9997 0.0255
vn 0.4568 0.8759 -0.1554
vn 0.4924 0.8704 -0.0053
vn 0.5170 0.8559 -0.0095
vn 0.4741 0.8804 0.0097
vn 0.4250 0.9052 -0.0009
vn 0.3817 0.9242 0.0097
vn 0.2909 0.9566 0.0151
vn 0.3490 0.9368 0.0231
vn 0.4536 0.8823 0.1256
vn 0.4166 0.8581 0.3004
vn 0.6106 0.4862 -0.6251
vn 0.0992 0.9892 0.1076
vn 0.0089 0.9964 0.0839
vn 0.0105 0.9950 0.0990
vn 0.0107 0.9939 0.1098
vn 0.0186 0.9920 0.1250
vn 0.0221 0.9906 0.1347
vn 0.0308 0.9907 0.1324
vn 0.1371 0.9412 0.3089
vn 0.0583 0.9741 0.2186
vn 0.0405 0.9854 0.1653
vn 0.0216 0.9951 0.0968
vn 0.0227 0.9934 0.1128
vn 0.1245 0.9562 0.2648
vn 0.0575 0.9749 0.2153
vn 0.0399 0.9859 0.1628
vn 0.0213 0.9952 0.0953
vn 0.0224 0.9936 0.1110
vn 0.0432 0.9645 0.2605
vn 0.0566 0.9756 0.2121
vn 0.0393 0.9863 0.1603
vn 0.0209 0.9954 0.0938
vn 0.0220 0.9938 0.1093
vn 0.0450 0.9551 0.2930
vn 0.0576 0.9760 0.2100
vn 0.0402 0.9868 0.1569
vn 0.0205 0.9956 0.0917
vn 0.0203 0.9941 0.1070
vn 0.0506 0.9451 0.3227
vn 0.0557 0.9763 0.2089
vn 0.0378 0.9873 0.1543
vn 0.0201 0.9957 0.0902
vn 0.0212 0.9942 0.1053
vn 0.0589 0.9280 0.3680
vn 0.0542 0.9777 0.2031
vn 0.0376 0.9875 0.1533
vn 0.0200 0.9958 0.0897
vn 0.0211 0.9943 0.1045
vn 0.1815 0.9084 0.3766
vn 0.0545 0.9733 0.2228
vn 0.0366 0.9851 0.1683
vn 0.0189 0.9950 0.0986
vn 0.0436 0.9950 0.0900
vn -0.3116 0.9454 0.0952
vn -0.3378 0.9377 0.0812
vn -0.3690 0.9199 0.1325
vn -0.4194 0.8900 0.1790
vn -0.4365 0.8757 0.2066
vn -0.3090 0.9470 0.0878
vn -0.2655 0.9190 0.2915
vn 0.5282 0.7604 0.3777
vn 0.5932 0.7150 0.3700
vn 0.4297 0.8913 0.1447
vn 0.5123 0.8582 0.0314
vn 0.6275 0.7757 0.0673
vn 0.6039 0.7924 0.0860
vn 0.5135 0.8461 0.1426
vn 0.6073 0.7025 0.3709
vn 0.4975 0.8259 0.2653
vn 0.6014 0.6319 -0.4889
vn 0.6436 0.5225 -0.5592
vn 0.6164 0.5311 -0.5813
vn -0.0059 0.9715 -0.2371
vn 0.0224 0.9651 -0.2609
vn -0.0025 0.9577 -0.2878
vn 0.1126 0.8175 -0.5649
vn 0.0065 0.9106 -0.4132
vn 0.0735 0.6926 -0.7175
vn 0.0213 0.6967 -0.7170
vn 0.0055 0.7042 -0.7100
vn 0.0468 0.7175 -0.6950
vn 0.0029 0.7668 -0.6419
vn 0.0612 0.7043 -0.7072
vn -0.0319 0.9325 0.3597
vn -0.0118 0.9883 0.1519
vn -0.0020 0.9993 0.0373
vn -0.0013 0.9996 0.0294
vn -0.0003 1.0000 0.0084
vn -0.0005 0.9997 0.0252
vn -0.0275 0.9334 0.3579
vn -0.0101 0.9885 0.1510
vn -0.0017 0.9993 0.0371
vn -0.0011 0.9996 0.0292
vn -0.0002 1.0000 0.0084
vn -0.0004 0.9997 0.0251
vn -0.0105 0.9341 0.3568
vn -0.0037 0.9886 0.1504
vn -0.0006 0.9993 0.0369
vn -0.0003 0.9996 0.0291
vn -0.0231 0.9995 0.0207
vn -0.0232 0.9997 0.0124
vn -0.0599 0.9309 0.3604
vn -0.0235 0.9880 0.1528
vn -0.0042 0.9993 0.0376
vn -0.0026 0.9996 0.0297
vn -0.0006 1.0000 0.0085
vn -0.0011 0.9997 0.0255
vn -0.4568 0.8759 -0.1554
vn -0.4924 0.8704 -0.0053
vn -0.5170 0.8559 -0.0095
vn -0.4741 0.8804 0.0097
vn -0.4250 0.9052 -0.0009
vn -0.3817 0.9242 0.0097
vn -0.2909 0.9566 0.0151
vn -0.3490 0.9368 0.0231
vn -0.4536 0.8823 0.1256
vn -0.4166 0.8581 0.3004
vn -0.6106 0.4862 -0.6252
vn -0.0992 0.9892 0.1076
vn -0.0089 0.9964 0.0839
vn -0.0105 0.9950 0.0990
vn -0.0107 0.9939 0.1098
vn -0.0186 0.9920 0.1250
vn -0.0221 0.9906 0.1347
vn -0.0308 0.9907 0.1324
vn -0.1371 0.9412 0.3089
vn -0.0583 0.9741 0.2186
vn -0.0405 0.9854 0.1653
vn -0.0216 0.9951 0.0968
vn -0.0227 0.9934 0.1128
vn -0.1245 0.9562 0.2648
vn -0.0575 0.9749 0.2153
vn -0.0399 0.9859 0.1628
vn -0.0213 0.9952 0.0953
vn -0.0224 0.9936 0.1110
vn -0.0432 0.9645 0.2605
vn -0.0566 0.9756 0.2121
vn -0.0393 0.9863 0.1603
vn -0.0209 0.9954 0.0938
vn -0.0220 0.9938 0.1093
vn -0.0450 0.9551 0.2930
vn -0.0576 0.9760 0.2100
vn -0.0402 0.9868 0.1569
vn -0.0205 0.9956 0.0917
vn -0.0203 0.9941 0.1070
vn -0.0506 0.9451 0.3227
vn -0.0557 0.9763 0.2089
vn -0.0378 0.9873 0.1543
vn -0.0201 0.9957 0.0902
vn -0.0212 0.9942 0.1053
vn -0.0589 0.9280 0.3680
vn -0.0542 0.9777 0.2031
vn -0.0376 0.9875 0.1533
vn -0.0200 0.9958 0.0897
vn -0.0211 0.9943 0.1045
vn -0.1815 0.9084 0.3766
vn -0.0545 0.9733 0.2228
vn -0.0366 0.9851 0.1683
vn -0.0189 0.9950 0.0986
vn -0.0436 0.9950 0.0900
vn 0.3116 0.9454 0.0952
vn 0.3378 0.9377 0.0812
vn 0.3690 0.9199 0.1325
vn 0.4194 0.8900 0.1790
vn 0.4365 0.8757 0.2066
vn 0.3090 0.9470 0.0878
vn 0.2655 0.9190 0.2915
vn -0.5282 0.7604 0.3777
vn -0.5932 0.7150 0.3700
vn -0.4297 0.8913 0.1447
vn -0.5123 0.8582 0.0314
vn -0.6275 0.7757 0.0673
vn -0.6039 0.7924 0.0860
vn -0.5135 0.8461 0.1426
vn -0.6073 0.7025 0.3709
vn -0.4975 0.8259 0.2653
vn -0.6014 0.6319 -0.4889
vn -0.6436 0.5225 -0.5592
vn -0.6164 0.5311 -0.5813
vn 0.0059 0.9715 -0.2371
vn -0.0224 0.9651 -0.2609
vn 0.0025 0.9577 -0.2878
vn -0.1126 0.8175 -0.5649
vn -0.0065 0.9106 -0.4132
vn -0.0735 0.6926 -0.7175
vn -0.0213 0.6967 -0.7170
vn -0.0055 0.7042 -0.7100
vn -0.0468 0.7175 -0.6950
vn -0.0029 0.7668 -0.6419
vn -0.0612 0.7043 -0.7072
vt 0.750000 0.982760
vt 1.000000 0.982760
vt 1.000000 1.000000
vt 0.750000 1.000000
vt 0.000000 0.982760
vt 0.250000 0.982760
vt 0.250000 1.000000
vt 0.000000 1.000000
vt 0.500000 0.982760
vt 0.500000 1.000000
vt 0.500000 0.000000
vt 0.750000 0.000000
vt 0.750000 0.111111
vt 0.500000 0.111111
vt 0.750000 0.222222
vt 0.500000 0.222222
vt 0.750000 0.333333
vt 0.500000 0.333333
vt 0.750000 0.444444
vt 0.500000 0.444444
vt 0.750000 0.555556
vt 0.500000 0.555556
vt 0.750000 0.666667
vt 0.500000 0.666667
vt 0.750000 0.777778
vt 0.500000 0.777778
vt 0.750000 0.888889
vt 0.500000 0.888889
vt 0.250000 0.000000
vt 0.250000 0.111111
vt 0.250000 0.222222
vt 0.250000 0.333333
vt 0.250000 0.444444
vt 0.250000 0.555556
vt 0.250000 0.666667
vt 0.250000 0.777778
vt 0.250000 0.888889
vt 0.000000 0.000000
vt 0.000000 0.111111
vt 0.000000 0.222222
vt 0.000000 0.333333
vt 0.000000 0.444444
vt 0.000000 0.555556
vt 0.000000 0.666667
vt 0.000000 0.777778
vt 0.000000 0.888889
vt 1.000000 0.000000
vt 1.000000 0.111111
vt 1.000000 0.222222
vt 1.000000 0.333333
vt 1.000000 0.444444
vt 1.000000 0.555556
vt 1.000000 0.666667
vt 1.000000 0.777778
vt 1.000000 0.888889
vt 0.857143 0.833333
vt 1.000000 0.833333
vt 0.857143 1.000000
vt 0.000000 0.833333
vt 0.142857 0.833333
vt 0.142857 1.000000
vt 0.238853 0.833333
vt 0.285714 0.833333
vt 0.285714 1.000000
vt 0.238853 1.000000
vt 0.428571 0.833333
vt 0.428571 1.000000
vt 0.571429 0.833333
vt 0.571429 1.000000
vt 0.714286 0.833333
vt 0.714286 1.000000
vt 0.714286 0.000000
vt 0.857143 0.000000
vt 0.857143 0.166667
vt 0.714286 0.166667
vt 0.857143 0.333333
vt 0.714286 0.333333
vt 0.857143 0.500000
vt 0.714286 0.500000
vt 0.857143 0.666667
vt 0.714286 0.666667
vt 0.571429 0.000000
vt 0.571429 0.166667
vt 0.571429 0.333333
vt 0.571429 0.500000
vt 0.571429 0.666667
vt 0.428571 0.000000
vt 0.428571 0.166667
vt 0.428571 0.333333
vt 0.428571 0.500000
vt 0.428571 0.666667
vt 0.285714 0.000000
vt 0.285714 0.166667
vt 0.285714 0.333333
vt 0.285714 0.500000
vt 0.285714 0.666667
vt 0.238853 0.000000
vt 0.238853 0.166667
vt 0.238853 0.333333
vt 0.238853 0.500000
vt 0.238853 0.666667
vt 0.142857 0.000000
vt 0.142857 0.166667
vt 0.000000 0.166667
vt 0.142857 0.333333
vt 0.000000 0.333333
vt 0.142857 0.500000
vt 0.000000 0.500000
vt 0.142857 0.666667
vt 1.000000 0.166667
vt 1.000000 0.500000
vt 1.000000 0.666667
s 0
f 67/1/1 64/2/1 4/3/1 8/4/1
f 68/5/1 65/6/1 10/7/1 3/8/1
f 65/6/1 66/9/1 9/10/1 10/7/1
f 66/9/1 67/1/1 8/4/1 9/10/1
f 6/11/2 7/12/2 43/13/2 35/14/2
f 35/14/3 43/13/3 44/15/3 36/16/3
f 36/16/1 44/15/1 45/17/1 37/18/1
f 37/18/4 45/17/4 46/19/4 38/20/4
f 38/20/5 46/19/5 47/21/5 39/22/5
f 39/22/6 47/21/6 48/23/6 40/24/6
f 40/24/7 48/23/7 49/25/7 41/26/7
f 41/26/1 49/25/1 50/27/1 42/28/1
f 5/29/8 6/11/8 35/14/8 27/30/8
f 27/30/9 35/14/9 36/16/9 28/31/9
f 28/31/1 36/16/1 37/18/1 29/32/1
f 29/32/10 37/18/10 38/20/10 30/33/10
f 30/33/11 38/20/11 39/22/11 31/34/11
f 31/34/12 39/22/12 40/24/12 32/35/12
f 32/35/13 40/24/13 41/26/13 33/36/13
f 33/36/1 41/26/1 42/28/1 34/37/1
f 1/38/14 5/29/14 27/30/14 18/39/14
f 18/39/15 27/30/15 28/31/15 17/40/15
f 17/40/1 28/31/1 29/32/1 16/41/1
f 16/41/16 29/32/16 30/33/16 15/42/16
f 15/42/17 30/33/17 31/34/17 14/43/17
f 14/43/18 31/34/18 32/35/18 13/44/18
f 13/44/19 32/35/19 33/36/19 12/45/19
f 12/45/1 33/36/1 34/37/1 11/46/1
f 7/12/20 2/47/20 19/48/20 43/13/20
f 43/13/21 19/48/21 20/49/21 44/15/21
f 44/15/1 20/49/1 21/50/1 45/17/1
f 45/17/22 21/50/22 22/51/22 46/19/22
f 46/19/23 22/51/23 23/52/23 47/21/23
f 47/21/24 23/52/24 24/53/24 48/23/24
f 48/23/25 24/53/25 25/54/25 49/25/25
f 49/25/1 25/54/1 26/55/1 50/27/1
f 42/28/1 50/27/1 67/1/1 66/9/1
f 34/37/1 42/28/1 66/9/1 65/6/1
f 11/46/1 34/37/1 65/6/1 68/5/1
f 50/27/1 26/55/1 64/2/1 67/1/1
f 4/3/26 64/2/26 54/38/26 51/38/26
f 54/38/27 64/2/27 26/55/27 56/38/27
f 56/38/28 26/55/28 25/54/28 57/38/28
f 57/38/29 25/54/29 24/53/29 58/38/29
f 58/38/30 24/53/30 23/52/30 59/38/30
f 59/38/31 23/52/31 22/51/31 60/38/31
f 60/38/32 22/51/32 21/50/32 61/38/32
f 61/38/33 21/50/33 20/49/33 62/38/33
f 62/38/34 20/49/34 19/48/34 63/38/34
f 55/38/35 63/38/35 19/48/35 2/47/35
f 144/38/36 145/38/36 53/38/36 52/38/36
f 124/56/37 94/57/37 72/3/37 79/58/37
f 85/59/38 99/60/38 84/61/38 71/8/38
f 131/62/39 104/63/39 83/64/39 126/65/39
f 104/63/40 109/66/40 82/67/40 83/64/40
f 109/66/41 114/68/41 81/69/41 82/67/41
f 114/68/42 119/70/42 80/71/42 81/69/42
f 119/70/43 124/56/43 79/58/43 80/71/43
f 77/72/44 78/73/44 120/74/44 115/75/44
f 115/75/45 120/74/45 121/76/45 116/77/45
f 116/77/46 121/76/46 122/78/46 117/79/46
f 117/79/47 122/78/47 123/80/47 118/81/47
f 118/81/48 123/80/48 124/56/48 119/70/48
f 76/82/49 77/72/49 115/75/49 110/83/49
f 110/83/50 115/75/50 116/77/50 111/84/50
f 111/84/51 116/77/51 117/79/51 112/85/51
f 112/85/52 117/79/52 118/81/52 113/86/52
f 113/86/53 118/81/53 119/70/53 114/68/53
f 75/87/54 76/82/54 110/83/54 105/88/54
f 105/88/55 110/83/55 111/84/55 106/89/55
f 106/89/56 111/84/56 112/85/56 107/90/56
f 107/90/57 112/85/57 113/86/57 108/91/57
f 108/91/58 113/86/58 114/68/58 109/66/58
f 74/92/59 75/87/59 105/88/59 100/93/59
f 100/93/60 105/88/60 106/89/60 101/94/60
f 101/94/61 106/89/61 107/90/61 102/95/61
f 102/95/62 107/90/62 108/91/62 103/96/62
f 103/96/63 108/91/63 109/66/63 104/63/63
f 125/97/64 74/92/64 100/93/64 127/98/64
f 127/98/65 100/93/65 101/94/65 128/99/65
f 128/99/66 101/94/66 102/95/66 129/100/66
f 129/100/67 102/95/67 103/96/67 130/101/67
f 130/101/68 103/96/68 104/63/68 131/62/68
f 69/38/69 73/102/69 95/103/69 89/104/69
f 89/104/70 95/103/70 96/105/70 88/106/70
f 88/106/71 96/105/71 97/107/71 87/108/71
f 87/108/72 97/107/72 98/109/72 86/44/72
f 86/44/73 98/109/73 99/60/73 85/59/73
f 78/73/74 70/47/74 90/110/74 120/74/74
f 120/74/75 90/110/75 91/50/75 121/76/75
f 121/76/76 91/50/76 92/111/76 122/78/76
f 122/78/77 92/111/77 93/112/77 123/80/77
f 123/80/78 93/112/78 94/57/78 124/56/78
f 98/109/79 130/101/79 131/62/79 99/60/79
f 97/107/80 129/100/80 130/101/80 98/109/80
f 96/105/81 128/99/81 129/100/81 97/107/81
f 95/103/82 127/98/82 128/99/82 96/105/82
f 95/103/83 73/102/83 127/98/83
f 99/60/84 131/62/84 126/65/84 84/61/84
f 125/97/85 127/98/85 73/102/85
f 2/47/86 132/38/86 133/38/86 55/38/86
f 132/38/87 136/38/87 134/38/87 133/38/87
f 134/38/88 136/38/88 72/3/88 141/38/88
f 141/38/89 72/3/89 94/57/89 138/38/89
f 138/38/90 94/57/90 93/112/90 137/38/90
f 137/38/91 93/112/91 92/111/91 139/38/91
f 139/38/92 92/111/92 91/50/92 135/38/92
f 90/110/93 70/47/93 140/38/93
f 140/38/94 135/38/94 91/50/94 90/110/94
f 51/38/95 54/38/95 147/38/95 142/38/95 158/38/95
f 142/38/96 147/38/96 146/38/96 143/38/96
f 143/38/97 146/38/97 145/38/97 144/38/97
f 3/8/98 10/7/98 151/38/98 152/38/98
f 151/38/99 10/7/99 9/10/99 150/38/99
f 150/38/100 9/10/100 8/4/100 149/38/100
f 148/38/101 4/3/101 51/38/101
f 148/38/102 149/38/102 8/4/102 4/3/102
f 148/38/103 51/38/103 153/38/103
f 153/38/104 154/38/104 149/38/104 148/38/104
f 154/38/105 155/38/105 150/38/105 149/38/105
f 155/38/106 156/38/106 151/38/106 150/38/106
f 157/38/107 152/38/107 151/38/107 156/38/107
f 153/38/108 51/38/108 158/38/108
f 215/1/1 164/4/1 160/3/1 212/2/1
f 68/5/1 3/8/1 166/7/1 213/6/1
f 213/6/1 166/7/1 165/10/1 214/9/1
f 214/9/1 165/10/1 164/4/1 215/1/1
f 162/11/109 183/14/109 191/13/109 163/12/109
f 183/14/110 184/16/110 192/15/110 191/13/110
f 184/16/1 185/18/1 193/17/1 192/15/1
f 185/18/111 186/20/111 194/19/111 193/17/111
f 186/20/112 187/22/112 195/21/112 194/19/112
f 187/22/113 188/24/113 196/23/113 195/21/113
f 188/24/114 189/26/114 197/25/114 196/23/114
f 189/26/1 190/28/1 198/27/1 197/25/1
f 161/29/115 175/30/115 183/14/115 162/11/115
f 175/30/116 176/31/116 184/16/116 183/14/116
f 176/31/1 177/32/1 185/18/1 184/16/1
f 177/32/117 178/33/117 186/20/117 185/18/117
f 178/33/118 179/34/118 187/22/118 186/20/118
f 179/34/119 180/35/119 188/24/119 187/22/119
f 180/35/120 181/36/120 189/26/120 188/24/120
f 181/36/1 182/37/1 190/28/1 189/26/1
f 1/38/121 18/39/121 175/30/121 161/29/121
f 18/39/122 17/40/122 176/31/122 175/30/122
f 17/40/1 16/41/1 177/32/1 176/31/1
f 16/41/123 15/42/123 178/33/123 177/32/123
f 15/42/124 14/43/124 179/34/124 178/33/124
f 14/43/125 13/44/125 180/35/125 179/34/125
f 13/44/126 12/45/126 181/36/126 180/35/126
f 12/45/1 11/46/1 182/37/1 181/36/1
f 163/12/127 191/13/127 167/48/127 159/47/127
f 191/13/128 192/15/128 168/49/128 167/48/128
f 192/15/1 193/17/1 169/50/1 168/49/1
f 193/17/129 194/19/129 170/51/129 169/50/129
f 194/19/130 195/21/130 171/52/130 170/51/130
f 195/21/131 196/23/131 172/53/131 171/52/131
f 196/23/132 197/25/132 173/54/132 172/53/132
f 197/25/1 198/27/1 174/55/1 173/54/1
f 190/28/1 214/9/1 215/1/1 198/27/1
f 182/37/1 213/6/1 214/9/1 190/28/1
f 11/46/1 68/5/1 213/6/1 182/37/1
f 198/27/1 215/1/1 212/2/1 174/55/1
f 160/3/133 199/38/133 202/38/133 212/2/133
f 202/38/134 204/38/134 174/55/134 212/2/134
f 204/38/135 205/38/135 173/54/135 174/55/135
f 205/38/136 206/38/136 172/53/136 173/54/136
f 206/38/137 207/38/137 171/52/137 172/53/137
f 207/38/138 208/38/138 170/51/138 171/52/138
f 208/38/139 209/38/139 169/50/139 170/51/139
f 209/38/140 210/38/140 168/49/140 169/50/140
f 210/38/141 211/38/141 167/48/141 168/49/141
f 203/38/142 159/47/142 167/48/142 211/38/142
f 284/38/143 200/38/143 201/38/143 285/38/143
f 264/56/144 224/58/144 217/3/144 234/57/144
f 85/59/145 71/8/145 229/61/145 239/60/145
f 271/62/146 266/65/146 228/64/146 244/63/146
f 244/63/147 228/64/147 227/67/147 249/66/147
f 249/66/148 227/67/148 226/69/148 254/68/148
f 254/68/149 226/69/149 225/71/149 259/70/149
f 259/70/150 225/71/150 224/58/150 264/56/150
f 222/72/151 255/75/151 260/74/151 223/73/151
f 255/75/152 256/77/152 261/76/152 260/74/152
f 256/77/153 257/79/153 262/78/153 261/76/153
f 257/79/154 258/81/154 263/80/154 262/78/154
f 258/81/155 259/70/155 264/56/155 263/80/155
f 221/82/156 250/83/156 255/75/156 222/72/156
f 250/83/157 251/84/157 256/77/157 255/75/157
f 251/84/158 252/85/158 257/79/158 256/77/158
f 252/85/159 253/86/159 258/81/159 257/79/159
f 253/86/160 254/68/160 259/70/160 258/81/160
f 220/87/161 245/88/161 250/83/161 221/82/161
f 245/88/162 246/89/162 251/84/162 250/83/162
f 246/89/163 247/90/163 252/85/163 251/84/163
f 247/90/164 248/91/164 253/86/164 252/85/164
f 248/91/165 249/66/165 254/68/165 253/86/165
f 219/92/166 240/93/166 245/88/166 220/87/166
f 240/93/167 241/94/167 246/89/167 245/88/167
f 241/94/168 242/95/168 247/90/168 246/89/168
f 242/95/169 243/96/169 248/91/169 247/90/169
f 243/96/170 244/63/170 249/66/170 248/91/170
f 265/97/171 267/98/171 240/93/171 219/92/171
f 267/98/172 268/99/172 241/94/172 240/93/172
f 268/99/173 269/100/173 242/95/173 241/94/173
f 269/100/174 270/101/174 243/96/174 242/95/174
f 270/101/175 271/62/175 244/63/175 243/96/175
f 69/38/176 89/104/176 235/103/176 218/102/176
f 89/104/177 88/106/177 236/105/177 235/103/177
f 88/106/178 87/108/178 237/107/178 236/105/178
f 87/108/179 86/44/179 238/109/179 237/107/179
f 86/44/180 85/59/180 239/60/180 238/109/180
f 223/73/181 260/74/181 230/110/181 216/47/181
f 260/74/182 261/76/182 231/50/182 230/110/182
f 261/76/183 262/78/183 232/111/183 231/50/183
f 262/78/184 263/80/184 233/112/184 232/111/184
f 263/80/185 264/56/185 234/57/185 233/112/185
f 238/109/186 239/60/186 271/62/186 270/101/186
f 237/107/187 238/109/187 270/101/187 269/100/187
f 236/105/188 237/107/188 269/100/188 268/99/188
f 235/103/189 236/105/189 268/99/189 267/98/189
f 235/103/190 267/98/190 218/102/190
f 239/60/191 229/61/191 266/65/191 271/62/191
f 265/97/192 218/102/192 267/98/192
f 159/47/193 203/38/193 273/38/193 272/38/193
f 272/38/194 273/38/194 274/38/194 276/38/194
f 274/38/195 281/38/195 217/3/195 276/38/195
f 281/38/196 278/38/196 234/57/196 217/3/196
f 278/38/197 277/38/197 233/112/197 234/57/197
f 277/38/198 279/38/198 232/111/198 233/112/198
f 279/38/199 275/38/199 231/50/199 232/111/199
f 230/110/200 280/38/200 216/47/200
f 280/38/201 230/110/201 231/50/201 275/38/201
f 199/38/202 296/38/202 282/38/202 287/38/202 202/38/202
f 282/38/203 283/38/203 286/38/203 287/38/203
f 283/38/204 284/38/204 285/38/204 286/38/204
f 3/8/205 152/38/205 291/38/205 166/7/205
f 291/38/206 290/38/206 165/10/206 166/7/206
f 290/38/207 289/38/207 164/4/207 165/10/207
f 288/38/208 199/38/208 160/3/208
f 288/38/209 160/3/209 164/4/209 289/38/209
f 288/38/210 292/38/210 199/38/210
f 292/38/211 288/38/211 289/38/211 293/38/211
f 293/38/212 289/38/212 290/38/212 294/38/212
f 294/38/213 290/38/213 291/38/213 295/38/213
f 157/38/214 295/38/214 291/38/214 152/38/214
f 292/38/215 296/38/215 199/38/215
o 平面.001
v 0.834664 1.406394 0.927752
v 1.040287 0.580447 0.852396
v 0.916647 1.464201 -0.317695
v 1.021970 0.578686 -0.392364
v 1.004833 1.270293 0.963211
v 1.038819 1.134192 0.970898
v 1.037798 0.998091 0.973535
v 1.046830 0.852648 0.956949
v 1.036784 0.716548 0.939388
v 1.012739 0.724715 -0.362071
v 1.013452 0.870744 -0.359551
v 1.028966 1.026114 -0.284282
v 1.014170 1.172143 -0.281762
v 0.984549 1.318172 -0.298178
v 0.913737 1.457778 -0.175434
v 0.910827 1.451355 -0.037536
v 0.907917 1.444932 0.100363
v 0.905007 1.438509 0.238261
v 0.902098 1.432086 0.376159
v 0.899188 1.425663 0.514057
v 0.919411 1.419240 0.651955
v 0.916502 1.412817 0.789853
v 1.009622 0.580251 0.657534
v 1.010236 0.580055 0.526297
v 1.017999 0.579860 0.395059
v 1.017714 0.579664 0.263822
v 1.025402 0.579468 0.132585
v 1.024060 0.579273 0.001348
v 1.023914 0.579077 -0.129889
v 1.022352 0.578881 -0.261127
v 0.960851 1.275613 0.779715
v 0.967194 1.280933 0.642927
v 0.970000 1.286252 0.506139
v 0.972425 1.291572 0.369351
v 0.974849 1.296892 0.232563
v 0.977274 1.302212 0.095775
v 0.979699 1.307532 -0.041013
v 0.982124 1.312852 -0.177801
v 1.007011 1.138409 0.769576
v 1.000210 1.142625 0.633898
v 1.002531 1.146842 0.498220
v 1.004471 1.151059 0.362542
v 1.006411 1.155276 0.226864
v 1.008350 1.159493 0.091187
v 1.010290 1.163710 -0.044491
v 1.012230 1.167927 -0.180169
v 1.029289 1.001205 0.759437
v 1.017134 1.004318 0.624869
v 1.007655 1.007432 0.490302
v 1.016456 1.010546 0.355734
v 1.021636 1.013660 0.221166
v 1.024602 1.016773 0.086599
v 1.026056 1.019887 -0.047969
v 1.022276 1.023001 -0.182537
v 1.021247 0.854659 0.677811
v 0.985859 0.856670 0.544354
v 1.002645 0.858680 0.410896
v 1.008602 0.860691 0.277439
v 1.009572 0.862701 0.143981
v 1.010542 0.864712 0.010524
v 1.011512 0.866723 -0.122934
v 1.012482 0.868733 -0.256391
v 1.020301 0.717455 0.667673
v 0.998300 0.718363 0.535325
v 1.012423 0.719270 0.402978
v 1.010314 0.720177 0.270631
v 1.010799 0.721085 0.138283
v 1.011284 0.721992 0.005936
v 1.011769 0.722900 -0.126412
v 1.012254 0.723807 -0.258759
v 1.043290 0.648497 0.921140
v 1.008601 0.651700 -0.370274
v 1.012868 0.648853 0.662603
v 0.997817 0.649209 0.530811
v 1.010879 0.649565 0.399019
v 1.007388 0.649921 0.267226
v 1.007631 0.650277 0.135434
v 1.007874 0.650633 0.003642
v 1.008116 0.650988 -0.128150
v 1.008358 0.651344 -0.259943
v 1.049426 0.614472 0.904441
v 1.035275 0.615193 -0.378163
v 1.015455 0.614552 0.658173
v 1.018088 0.614632 0.528554
v 1.026080 0.614712 0.397039
v 1.031872 0.614792 0.265524
v 1.034344 0.614873 0.134010
v 1.035030 0.614953 0.002495
v 1.035033 0.615033 -0.129020
v 1.035154 0.615113 -0.260535
v 0.959456 1.503467 -1.369136
v 1.075317 1.162619 -1.414535
v 1.048299 1.065030 -1.417252
v 1.092612 1.027616 -1.274729
v 1.092612 0.919575 -1.148692
v 1.070379 0.742638 -1.069434
v 1.053783 0.587273 -1.029472
v 1.054083 0.587650 -0.952804
v 1.087364 0.976662 -1.066261
v 1.072703 0.763220 -0.979235
v 1.041158 1.332307 -1.406138
v 1.094119 1.130091 -1.234625
v 1.048342 0.587839 -0.796084
v 1.087973 1.060944 -0.845907
v 1.069517 1.253170 -1.029495
v 1.011029 1.429723 -1.388117
v 1.025301 1.351192 -0.876096
v 1.063321 1.115599 -0.671916
v 1.037185 0.688391 -0.656210
v 0.918627 1.483834 -0.685495
v 1.043779 0.587933 -0.630982
v 1.048342 0.824391 -0.820996
v 1.030641 1.299717 -0.678706
v 1.045911 1.207658 -0.675311
v 1.037185 0.901995 -0.664063
v 1.037185 1.008797 -0.667989
v 1.037185 0.795193 -0.660136
v 0.919748 1.318347 0.956388
v 0.998676 1.258358 1.830772
v 0.998676 1.151105 2.050731
v 1.080072 0.978410 1.878036
v 1.080072 1.027492 1.727155
v 1.080072 1.049306 1.427210
v 1.080072 0.992953 1.196344
v 1.067944 0.812986 1.092727
v 1.074843 0.634837 1.050613
v 1.074843 0.398517 1.032738
v 1.061524 0.420332 0.985474
v 1.036566 0.423967 0.909124
v 1.032920 0.516677 0.765515
v 1.031136 0.525767 -0.841460
v 1.031136 0.491228 -0.941442
v 1.031136 0.491228 -1.043241
v 0.998676 1.178373 2.088906
v 0.976537 1.325618 1.932571
v 0.822341 1.303804 2.194734
v 0.875241 1.366222 1.972564
v 0.888056 1.405604 1.701705
v 0.885735 1.453959 1.119994
v 0.856117 1.540124 0.987291
v 0.884598 1.481953 0.897674
v 0.896175 1.401968 0.958206
v 0.998676 1.074756 2.153257
v 0.994844 1.017754 2.435028
v 0.742494 0.928491 2.609173
v 0.638743 1.070393 2.504465
v 0.745632 1.085663 2.441204
v 0.791442 1.044216 2.415027
v 0.998676 1.140198 2.144532
v 1.080072 0.869339 2.002376
v 0.998676 0.699189 2.070565
v 0.998676 0.472322 2.083089
v 0.929521 1.521791 -1.816763
v 1.015325 0.797623 2.436448
v 0.865879 1.799267 -2.073298
v 0.998676 0.475594 2.159123
v 1.080072 0.916240 2.076229
v 1.080072 1.044943 1.938800
v 1.080072 1.125655 1.783920
v 1.080072 1.158377 1.397809
v 1.080072 1.073301 1.092411
v 1.046209 0.824620 1.011699
v 0.546588 0.940366 2.504465
v 1.038105 0.641667 0.985877
v 0.000000 0.940366 2.504465
v 0.000000 0.435864 2.504465
v 0.895098 0.450558 2.447042
v 0.998676 1.151105 2.050731
v 0.998676 1.074756 2.153257
v 0.979090 0.478866 2.397212
v 0.998676 0.577491 2.437867
v 0.782883 0.577030 2.591358
v 0.789550 0.681738 2.606628
v 1.074192 0.870912 2.197785
v 0.807091 0.899769 2.630624
v 0.998676 0.475594 2.159123
v 1.034001 0.719912 2.148216
v 1.080072 0.916240 2.076229
v 0.603380 0.437682 2.504465
v 0.805161 0.446771 2.504465
v 0.553135 0.865956 2.609173
v 0.553135 0.865956 2.609173
v 0.000000 0.868481 2.609173
v 0.560394 0.776915 2.629195
v 0.000000 0.814511 2.630624
v 0.693533 0.732530 2.633858
v 0.717230 0.552034 2.619486
v 0.581138 0.558624 2.620883
v 0.000000 0.526584 2.619486
v 0.684885 0.579956 2.620529
v 0.565974 0.810724 2.630624
v 0.000000 0.783764 2.548557
v 0.000000 0.780433 2.629330
v 0.728823 0.756491 2.634987
v 0.584527 0.524767 2.619486
v 0.000000 0.560320 2.621017
v 0.717230 0.552034 2.619486
v 0.000000 0.563652 2.540243
v 0.560693 0.780247 2.548422
v 0.693832 0.735861 2.553085
v 0.581437 0.561955 2.540110
v 0.685184 0.583288 2.539756
v 0.597561 0.752686 2.589275
v 0.000000 0.756203 2.589410
v 0.551600 1.277780 2.383641
v 0.535098 0.897961 2.516494
v 0.000000 0.904020 2.552495
v 0.535426 1.278113 2.383641
v 0.433850 1.278366 2.383641
v 0.303343 1.278618 2.383641
v 0.188617 1.278871 2.383641
v 0.062493 1.279123 2.383641
v 0.061120 0.903334 2.548416
v 0.185224 0.902324 2.542416
v 0.297930 0.901314 2.536415
v 0.426417 0.900304 2.530415
v 0.525974 0.899294 2.524415
v 0.565809 1.076967 2.562665
v 0.585495 1.126607 2.556149
v 0.603428 1.218620 2.523334
v 0.000000 1.221082 2.530836
v 0.000000 1.130205 2.572652
v 0.000000 1.081701 2.588168
v 0.073501 1.081111 2.563955
v 0.073846 1.129651 2.549609
v 0.074192 1.220717 2.508966
v 0.174233 1.080499 2.560459
v 0.175080 1.129424 2.547297
v 0.175925 1.220512 2.507848
v 0.311489 1.079390 2.555481
v 0.312842 1.128291 2.544158
v 0.314200 1.219831 2.506519
v 0.416605 1.079064 2.551934
v 0.418464 1.128388 2.541750
v 0.420316 1.219758 2.505293
v 0.540586 1.077912 2.545215
v 0.543046 1.126788 2.538077
v 0.545438 1.218811 2.503882
v 0.591281 1.219087 2.504178
v 0.543008 1.273326 2.373755
v 0.537740 0.908523 2.502759
v 0.525859 0.912349 2.502123
v 0.547255 1.273281 2.373772
v 0.315241 1.274022 2.373779
v 0.421744 1.273869 2.373800
v 0.173311 0.914164 2.524460
v 0.176577 1.274463 2.373836
v 0.074457 1.274614 2.373814
v 0.073125 0.914945 2.529463
v 0.414582 0.912093 2.512656
v 0.310011 0.912880 2.517692
v 0.062207 1.220803 2.529986
v 0.187909 1.220393 2.528736
v 0.302215 1.219983 2.527485
v 0.432301 1.219572 2.526235
v 0.533457 1.219162 2.524985
v 0.554137 1.079838 2.543824
v 0.573928 1.129986 2.535371
v 0.061521 1.081164 2.585279
v 0.061864 1.129798 2.570782
v 0.186213 1.080375 2.581028
v 0.187061 1.129198 2.568032
v 0.299509 1.079586 2.576777
v 0.300862 1.128598 2.565281
v 0.428585 1.078797 2.572527
v 0.430443 1.127999 2.562531
v 0.528730 1.078008 2.568277
v 0.531093 1.127399 2.559781
v 0.836988 1.869945 -2.075915
v 0.782495 2.011301 -1.926706
v 0.782495 2.013919 -1.256575
v 0.782495 2.003448 -0.377027
v 0.782495 1.965185 0.189646
v 0.800781 1.889736 0.414205
v 0.825018 1.775120 0.598985
v 0.861395 1.629116 0.772144
v 0.780787 1.796659 0.620813
v 0.752724 1.902955 0.456708
v 0.726523 1.995907 0.192693
v 0.726523 2.043583 -0.372944
v 0.726523 2.061009 -1.927788
v 0.718791 2.055185 -2.190793
v 0.749250 1.964810 -2.261992
v 0.792318 1.829986 -2.333191
v 0.848433 1.707281 -2.396816
v 0.848433 1.704252 -2.311983
v 0.867132 1.676984 -2.299864
v 0.903954 1.531556 -2.348340
v 0.923590 1.465287 -2.350158
v 1.004832 1.240448 -2.234472
v 1.040937 1.036192 -2.113534
v 1.050218 1.008925 -2.058999
v 1.056173 0.969538 -1.954473
v 1.046370 1.051471 -1.864609
v 1.047240 1.093758 -1.696944
v 1.043724 1.083153 -1.530308
v 0.816437 1.668391 0.804052
v 0.726523 2.034473 -0.090126
v 0.782495 1.991680 -0.087905
v 0.726523 2.048128 -1.248541
v 0.967281 1.483373 -2.193424
v 0.987062 1.382038 -2.312670
v 1.030757 1.354770 -1.744663
v 1.078607 1.183195 -1.548364
v 1.069672 1.179265 -1.748231
v 1.052712 1.147290 -1.921943
v 0.925451 1.249285 -2.508411
v 0.909228 1.250794 -2.571421
v 0.903088 1.095272 -2.592992
v 0.903088 0.979132 -2.582268
v 0.903088 0.750639 -2.577219
v 0.873020 0.762000 -2.636810
v 0.873020 0.639548 -2.626711
v 0.903088 0.580215 -2.585052
v 1.056173 0.489323 -2.074148
v 1.056173 0.647678 -2.055313
v 1.056173 0.852893 -2.009766
v 1.050218 0.945047 -2.089296
v 1.056173 0.911215 -1.982119
v 1.053036 0.885715 -2.112020
v 1.034059 0.654697 -2.149891
v 1.034059 0.510783 -2.156203
v 0.746371 0.584693 -2.680097
v 0.000000 0.582454 -2.680097
v 0.649137 0.644025 -2.721756
v 0.000000 0.635070 -2.721756
v 0.642421 0.764239 -2.731855
v 0.000000 0.753045 -2.731855
v 0.770998 0.815832 -2.682622
v 0.000000 0.806966 -2.682622
v 0.800538 1.063035 -2.670961
v 0.780275 1.431509 -2.645308
v 0.000000 1.436173 -2.663424
v 0.808312 1.479705 -2.606126
v 0.772553 1.714471 -2.476487
v 0.825734 1.249792 -2.608490
v 0.000000 1.498225 -2.608317
v 0.678731 1.197855 2.482993
v 0.621248 1.275332 2.326949
v 0.799945 1.298450 2.200233
v 0.131393 1.300325 2.427261
v 0.070161 1.279706 2.427261
v 0.543950 1.280463 2.375329
v 0.607502 1.214100 2.516140
v 0.586258 1.119128 2.545387
v 0.567514 1.074142 2.547109
v 0.000000 1.280486 2.375458
v -0.834664 1.406394 0.927752
v -1.040287 0.580447 0.852396
v -0.916647 1.464201 -0.317695
v -1.021970 0.578686 -0.392364
v -1.004833 1.270293 0.963211
v -1.038819 1.134192 0.970898
v -1.037798 0.998091 0.973535
v -1.046830 0.852648 0.956949
v -1.036784 0.716548 0.939388
v -1.012739 0.724715 -0.362071
v -1.013452 0.870744 -0.359551
v -1.028966 1.026114 -0.284282
v -1.014170 1.172143 -0.281762
v -0.984549 1.318172 -0.298178
v -0.913737 1.457778 -0.175434
v -0.910827 1.451355 -0.037536
v -0.907917 1.444932 0.100363
v -0.905007 1.438509 0.238261
v -0.902098 1.432086 0.376159
v -0.899188 1.425663 0.514057
v -0.919411 1.419240 0.651955
v -0.916502 1.412817 0.789853
v -1.009622 0.580251 0.657534
v -1.010236 0.580055 0.526297
v -1.017999 0.579860 0.395059
v -1.017714 0.579664 0.263822
v -1.025402 0.579468 0.132585
v -1.024060 0.579273 0.001348
v -1.023914 0.579077 -0.129889
v -1.022352 0.578881 -0.261127
v -0.960851 1.275613 0.779715
v -0.967194 1.280933 0.642927
v -0.970000 1.286252 0.506139
v -0.972425 1.291572 0.369351
v -0.974849 1.296892 0.232563
v -0.977274 1.302212 0.095775
v -0.979699 1.307532 -0.041013
v -0.982124 1.312852 -0.177801
v -1.007011 1.138409 0.769576
v -1.000210 1.142625 0.633898
v -1.002531 1.146842 0.498220
v -1.004471 1.151059 0.362542
v -1.006411 1.155276 0.226864
v -1.008350 1.159493 0.091187
v -1.010290 1.163710 -0.044491
v -1.012230 1.167927 -0.180169
v -1.029289 1.001205 0.759437
v -1.017134 1.004318 0.624869
v -1.007655 1.007432 0.490302
v -1.016456 1.010546 0.355734
v -1.021636 1.013660 0.221166
v -1.024602 1.016773 0.086599
v -1.026056 1.019887 -0.047969
v -1.022276 1.023001 -0.182537
v -1.021247 0.854659 0.677811
v -0.985859 0.856670 0.544354
v -1.002645 0.858680 0.410896
v -1.008602 0.860691 0.277439
v -1.009572 0.862701 0.143981
v -1.010542 0.864712 0.010524
v -1.011512 0.866723 -0.122934
v -1.012482 0.868733 -0.256391
v -1.020301 0.717455 0.667673
v -0.998300 0.718363 0.535325
v -1.012423 0.719270 0.402978
v -1.010314 0.720177 0.270631
v -1.010799 0.721085 0.138283
v -1.011284 0.721992 0.005936
v -1.011769 0.722900 -0.126412
v -1.012254 0.723807 -0.258759
v -1.043290 0.648497 0.921140
v -1.008601 0.651700 -0.370274
v -1.012868 0.648853 0.662603
v -0.997817 0.649209 0.530811
v -1.010879 0.649565 0.399019
v -1.007388 0.649921 0.267226
v -1.007631 0.650277 0.135434
v -1.007874 0.650633 0.003642
v -1.008116 0.650988 -0.128150
v -1.008358 0.651344 -0.259943
v -1.049426 0.614472 0.904441
v -1.035275 0.615193 -0.378163
v -1.015455 0.614552 0.658173
v -1.018088 0.614632 0.528554
v -1.026080 0.614712 0.397039
v -1.031872 0.614792 0.265524
v -1.034344 0.614873 0.134010
v -1.035030 0.614953 0.002495
v -1.035033 0.615033 -0.129020
v -1.035154 0.615113 -0.260535
v -0.959456 1.503467 -1.369136
v -1.075317 1.162619 -1.414535
v -1.048299 1.065030 -1.417252
v -1.092612 1.027616 -1.274729
v -1.092612 0.919575 -1.148692
v -1.070379 0.742638 -1.069434
v -1.053783 0.587273 -1.029472
v -1.054083 0.587650 -0.952804
v -1.087364 0.976662 -1.066261
v -1.072703 0.763220 -0.979235
v -1.041158 1.332307 -1.406138
v -1.094119 1.130091 -1.234625
v -1.048342 0.587839 -0.796084
v -1.087973 1.060944 -0.845907
v -1.069517 1.253170 -1.029495
v -1.011029 1.429723 -1.388117
v -1.025301 1.351192 -0.876096
v -1.063321 1.115599 -0.671916
v -1.037185 0.688391 -0.656210
v -0.918627 1.483834 -0.685495
v -1.043779 0.587933 -0.630982
v -1.048342 0.824391 -0.820996
v -1.030641 1.299717 -0.678706
v -1.045911 1.207658 -0.675311
v -1.037185 0.901995 -0.664063
v -1.037185 1.008797 -0.667989
v -1.037185 0.795193 -0.660136
v -0.919748 1.318347 0.956388
v -0.998676 1.258358 1.830772
v -0.998676 1.151105 2.050731
v -1.080072 0.978410 1.878036
v -1.080072 1.027492 1.727155
v -1.080072 1.049306 1.427210
v -1.080072 0.992953 1.196344
v -1.067944 0.812986 1.092727
v -1.074843 0.634837 1.050613
v -1.074843 0.398517 1.032738
v -1.061524 0.420332 0.985474
v -1.036566 0.423967 0.909124
v -1.032920 0.516677 0.765515
v -1.031136 0.525767 -0.841460
v -1.031136 0.491228 -0.941442
v -1.031136 0.491228 -1.043241
v -0.998676 1.178373 2.088906
v -0.976537 1.325618 1.932571
v -0.822341 1.303804 2.194734
v -0.875241 1.366222 1.972564
v -0.888056 1.405604 1.701705
v -0.885735 1.453959 1.119994
v -0.856117 1.540124 0.987291
v -0.884598 1.481953 0.897674
v -0.896175 1.401968 0.958206
v -0.998676 1.074756 2.153257
v -0.994844 1.017754 2.435028
v -0.742494 0.928491 2.609173
v -0.638743 1.070393 2.504465
v -0.745632 1.085663 2.441204
v -0.791442 1.044216 2.415027
v -0.998676 1.140198 2.144532
v -1.080072 0.869339 2.002376
v -0.998676 0.699189 2.070565
v -0.998676 0.472322 2.083089
v -0.929521 1.521791 -1.816763
v -1.015325 0.797623 2.436448
v -0.865879 1.799267 -2.073298
v -0.998676 0.475594 2.159123
v -1.080072 0.916240 2.076229
v -1.080072 1.044943 1.938800
v -1.080072 1.125655 1.783920
v -1.080072 1.158377 1.397809
v -1.080072 1.073301 1.092411
v -1.046209 0.824620 1.011699
v -0.546588 0.940366 2.504465
v -1.038105 0.641667 0.985877
v -0.895098 0.450558 2.447042
v -0.998676 1.151105 2.050731
v -0.998676 1.074756 2.153257
v -0.979090 0.478866 2.397212
v -0.998676 0.577491 2.437867
v -0.782883 0.577030 2.591358
v -0.789550 0.681738 2.606628
v -1.074192 0.870912 2.197785
v -0.807091 0.899769 2.630624
v -0.998676 0.475594 2.159123
v -1.034001 0.719912 2.148216
v -1.080072 0.916240 2.076229
v -0.603380 0.437682 2.504465
v -0.805161 0.446771 2.504465
v -0.553135 0.865956 2.609173
v -0.553135 0.865956 2.609173
v -0.560394 0.776915 2.629195
v -0.693533 0.732530 2.633858
v -0.717230 0.552034 2.619486
v -0.581138 0.558624 2.620883
v -0.684885 0.579956 2.620529
v -0.565974 0.810724 2.630624
v -0.728823 0.756491 2.634987
v -0.584527 0.524767 2.619486
v -0.717230 0.552034 2.619486
v -0.560693 0.780247 2.548422
v -0.693832 0.735861 2.553085
v -0.581437 0.561955 2.540110
v -0.685184 0.583288 2.539756
v -0.597561 0.752686 2.589275
v -0.551600 1.277780 2.383641
v -0.535098 0.897961 2.516494
v -0.535426 1.278113 2.383641
v -0.433850 1.278366 2.383641
v -0.303343 1.278618 2.383641
v -0.188617 1.278871 2.383641
v -0.062493 1.279123 2.383641
v -0.061120 0.903334 2.548416
v -0.185224 0.902324 2.542416
v -0.297930 0.901314 2.536415
v -0.426417 0.900304 2.530415
v -0.525974 0.899294 2.524415
v -0.565809 1.076967 2.562665
v -0.585495 1.126607 2.556149
v -0.603428 1.218620 2.523334
v -0.073501 1.081111 2.563955
v -0.073846 1.129651 2.549609
v -0.074192 1.220717 2.508966
v -0.174233 1.080499 2.560459
v -0.175080 1.129424 2.547297
v -0.175925 1.220512 2.507848
v -0.311489 1.079390 2.555481
v -0.312842 1.128291 2.544158
v -0.314200 1.219831 2.506519
v -0.416605 1.079064 2.551934
v -0.418464 1.128388 2.541750
v -0.420316 1.219758 2.505293
v -0.540586 1.077912 2.545215
v -0.543046 1.126788 2.538077
v -0.545438 1.218811 2.503882
v -0.591281 1.219087 2.504178
v -0.543008 1.273326 2.373755
v -0.537740 0.908523 2.502759
v -0.525859 0.912349 2.502123
v -0.547255 1.273281 2.373772
v -0.315241 1.274022 2.373779
v -0.421744 1.273869 2.373800
v -0.173311 0.914164 2.524460
v -0.176577 1.274463 2.373836
v -0.074457 1.274614 2.373814
v -0.073125 0.914945 2.529463
v -0.414582 0.912093 2.512656
v -0.310011 0.912880 2.517692
v -0.062207 1.220803 2.529986
v -0.187909 1.220393 2.528736
v -0.302215 1.219983 2.527485
v -0.432301 1.219572 2.526235
v -0.533457 1.219162 2.524985
v -0.554137 1.079838 2.543824
v -0.573928 1.129986 2.535371
v -0.061521 1.081164 2.585279
v -0.061864 1.129798 2.570782
v -0.186213 1.080375 2.581028
v -0.187061 1.129198 2.568032
v -0.299509 1.079586 2.576777
v -0.300862 1.128598 2.565281
v -0.428585 1.078797 2.572527
v -0.430443 1.127999 2.562531
v -0.528730 1.078008 2.568277
v -0.531093 1.127399 2.559781
v -0.836988 1.869945 -2.075915
v -0.782495 2.011301 -1.926706
v -0.782495 2.013919 -1.256575
v -0.782495 2.003448 -0.377027
v -0.782495 1.965185 0.189646
v -0.800781 1.889736 0.414205
v -0.825018 1.775120 0.598985
v -0.861395 1.629116 0.772144
v -0.780787 1.796659 0.620813
v -0.752724 1.902955 0.456708
v -0.726523 1.995907 0.192693
v -0.726523 2.043583 -0.372944
v -0.726523 2.061009 -1.927788
v -0.718791 2.055185 -2.190793
v -0.749250 1.964810 -2.261992
v -0.792318 1.829986 -2.333191
v -0.848433 1.707281 -2.396816
v -0.848433 1.704252 -2.311983
v -0.867132 1.676984 -2.299864
v -0.903954 1.531556 -2.348340
v -0.923590 1.465287 -2.350158
v -1.004832 1.240448 -2.234472
v -1.040937 1.036192 -2.113534
v -1.050218 1.008925 -2.058999
v -1.056173 0.969538 -1.954473
v -1.046370 1.051471 -1.864609
v -1.047240 1.093758 -1.696944
v -1.043724 1.083153 -1.530308
v -0.816437 1.668391 0.804052
v -0.726523 2.034473 -0.090126
v -0.782495 1.991680 -0.087905
v -0.726523 2.048128 -1.248541
v -0.967281 1.483373 -2.193424
v -0.987062 1.382038 -2.312670
v -1.030757 1.354770 -1.744663
v -1.078607 1.183195 -1.548364
v -1.069672 1.179265 -1.748231
v -1.052712 1.147290 -1.921943
v -0.925451 1.249285 -2.508411
v -0.909228 1.250794 -2.571421
v -0.903088 1.095272 -2.592992
v -0.903088 0.979132 -2.582268
v -0.903088 0.750639 -2.577219
v -0.873020 0.762000 -2.636810
v -0.873020 0.639548 -2.626711
v -0.903088 0.580215 -2.585052
v -1.056173 0.489323 -2.074148
v -1.056173 0.647678 -2.055313
v -1.056173 0.852893 -2.009766
v -1.050218 0.945047 -2.089296
v -1.056173 0.911215 -1.982119
v -1.053036 0.885715 -2.112020
v -1.034059 0.654697 -2.149891
v -1.034059 0.510783 -2.156203
v -0.746371 0.584693 -2.680097
v -0.649137 0.644025 -2.721756
v -0.642421 0.764239 -2.731855
v -0.770998 0.815832 -2.682622
v -0.800538 1.063035 -2.670961
v -0.780275 1.431509 -2.645308
v -0.808312 1.479705 -2.606126
v -0.772553 1.714471 -2.476487
v -0.825734 1.249792 -2.608490
v -0.678731 1.197855 2.482993
v -0.621248 1.275332 2.326949
v -0.799945 1.298450 2.200233
v -0.131393 1.300325 2.427261
v -0.070161 1.279706 2.427261
v -0.543950 1.280463 2.375329
v -0.607502 1.214100 2.516140
v -0.586258 1.119128 2.545387
v -0.567514 1.074142 2.547109
vn 0.9413 -0.3377 -0.0008
vn 0.9041 0.4257 0.0374
vn 0.9789 0.2023 0.0279
vn 0.9954 0.0842 0.0453
vn 0.9946 -0.0980 0.0347
vn 1.0000 -0.0034 0.0070
vn 0.9966 -0.0323 -0.0763
vn 0.9761 0.0553 -0.2101
vn 0.9906 0.0722 0.1160
vn 0.9991 0.0402 0.0149
vn 0.9999 0.0102 0.0056
vn 1.0000 0.0067 0.0055
vn 1.0000 0.0033 0.0055
vn 1.0000 -0.0000 0.0055
vn 0.9973 0.0265 -0.0687
vn 0.9839 -0.0349 -0.1752
vn 0.9906 -0.1345 0.0244
vn 0.9960 -0.0712 0.0535
vn 0.9968 -0.0771 0.0214
vn 0.9956 -0.0923 0.0129
vn 0.9953 -0.0968 0.0072
vn 0.9972 -0.0732 -0.0119
vn 0.9923 0.0798 -0.0949
vn 0.9873 0.1450 -0.0653
vn 0.9965 0.0806 -0.0242
vn 0.9974 0.0588 0.0412
vn 0.9951 0.0947 0.0288
vn 0.9938 0.1093 0.0210
vn 0.9937 0.1106 0.0155
vn 0.9960 0.0891 -0.0044
vn 0.9437 0.2783 -0.1790
vn 0.9612 0.2757 0.0080
vn 0.9733 0.2281 0.0263
vn 0.9744 0.2236 0.0234
vn 0.9755 0.2189 0.0233
vn 0.9765 0.2143 0.0231
vn 0.9775 0.2097 0.0230
vn 0.9784 0.2052 0.0229
vn 0.7600 0.6279 0.1678
vn 0.9483 0.3140 0.0454
vn 0.9180 0.3945 -0.0413
vn 0.8931 0.4484 0.0365
vn 0.8956 0.4434 0.0363
vn 0.8981 0.4384 0.0362
vn 0.9005 0.4334 0.0360
vn 0.9029 0.4285 0.0359
vn 0.9840 -0.1045 -0.1442
vn 0.9807 -0.1954 0.0123
vn 0.9722 -0.2267 0.0584
vn 0.9525 -0.3038 0.0201
vn 0.9492 -0.3125 0.0368
vn 0.9630 -0.2697 -0.0023
vn 0.9556 -0.2947 -0.0004
vn 0.9493 -0.3145 -0.0051
vn 0.9986 -0.0523 0.0025
vn 0.9988 -0.0493 0.0025
vn 0.9989 -0.0463 0.0025
vn 0.9991 -0.0433 0.0025
vn 0.9993 -0.0308 -0.0213
vn 0.9945 -0.0208 0.1023
vn 0.9892 -0.0472 -0.1390
vn 0.9961 0.0083 -0.0881
vn 0.9985 -0.0553 0.0031
vn 0.8023 0.5969 0.0021
vn 0.7982 0.6024 0.0017
vn 0.7971 0.6039 0.0038
vn 0.8094 0.5871 0.0093
vn 0.8700 0.4929 0.0084
vn 0.8900 0.4503 0.0719
vn 0.9469 0.3185 -0.0444
vn 0.9786 0.1635 -0.1247
vn 0.8059 0.5921 0.0024
vn 0.8747 0.4812 0.0570
vn 0.9759 0.1925 0.1024
vn 0.9855 0.1337 0.1048
vn 0.9860 -0.1644 0.0285
vn 0.9970 -0.0024 0.0775
vn 0.9968 -0.0247 0.0759
vn 0.9765 0.1784 0.1205
vn 0.9970 0.0723 0.0275
vn 0.9982 -0.0458 0.0385
vn 0.9974 0.0052 0.0718
vn 0.9943 -0.0323 0.1013
vn 0.9906 -0.0950 0.0986
vn 0.9961 -0.0730 0.0497
vn 0.9997 0.0035 0.0260
vn 0.9730 -0.0936 -0.2108
vn 0.9741 0.2231 -0.0378
vn 0.9978 0.0609 0.0266
vn 0.9702 0.2200 0.1015
vn 0.9391 0.3433 0.0159
vn 0.8225 0.5650 0.0647
vn 0.9273 0.3671 0.0732
vn 0.9727 -0.1293 0.1929
vn 0.9943 -0.1063 -0.0023
vn 0.8750 0.4842 0.0064
vn 0.8816 0.3786 0.2820
vn 0.9974 -0.0015 -0.0721
vn 0.8696 0.4937 -0.0065
vn 0.9837 -0.1503 -0.0991
vn 0.9298 0.0775 -0.3598
vn 0.1445 0.7798 0.6091
vn 0.3452 0.8072 0.4788
vn 0.9990 0.0442 0.0070
vn 0.1889 -0.0531 0.9806
vn 0.9562 0.2354 0.1741
vn 0.9003 0.3177 0.2975
vn 0.9805 -0.1642 0.1078
vn 0.5729 -0.1539 0.8050
vn 0.9791 -0.2026 0.0198
vn 0.9868 -0.1390 0.0831
vn 0.9917 0.0975 0.0843
vn 0.6541 -0.0362 0.7556
vn -0.4883 0.4249 -0.7622
vn 0.5323 -0.3965 0.7480
vn -0.0000 -0.7912 0.6115
vn -0.0811 0.7458 -0.6612
vn -0.9984 0.0567 -0.0014
vn -0.1257 0.3570 0.9256
vn -0.3705 0.5416 0.7546
vn 0.0019 0.8198 0.5726
vn 0.0021 0.3659 0.9307
vn -0.0001 -0.0401 0.9992
vn -0.0366 -0.0184 0.9992
vn -0.0000 -0.0433 0.9991
vn 0.0086 -0.0345 0.9994
vn -0.0051 -0.8559 0.5171
vn -0.0060 -0.0802 0.9968
vn -0.0035 -0.0410 0.9992
vn -0.2011 0.9788 0.0396
vn -0.3147 -0.9483 -0.0403
vn 0.0029 0.9991 0.0412
vn -0.0097 0.9222 0.3865
vn 0.0036 0.9282 0.3719
vn 0.0047 0.9267 0.3757
vn 0.0031 0.9253 0.3793
vn 0.0054 0.9237 0.3831
vn 0.0477 -0.2344 0.9710
vn 0.0355 0.1828 0.9825
vn 0.0203 0.3611 0.9323
vn 0.0387 -0.2254 0.9735
vn 0.0278 0.2129 0.9767
vn 0.0159 0.3752 0.9268
vn 0.0425 -0.2165 0.9754
vn 0.0314 0.2421 0.9698
vn 0.0179 0.3887 0.9212
vn 0.0399 -0.2074 0.9774
vn 0.0288 0.2712 0.9621
vn 0.0163 0.4024 0.9153
vn 0.0536 -0.1997 0.9784
vn 0.0391 0.2948 0.9547
vn 0.0222 0.4134 0.9103
vn 0.9371 -0.1636 0.3082
vn 0.0751 0.1386 0.9875
vn 0.0142 0.3382 0.9410
vn -0.7503 0.4626 0.4723
vn 0.6245 -0.6725 -0.3971
vn -0.0213 -0.9061 0.4225
vn -0.0016 -0.9080 0.4190
vn -0.0016 -0.9105 0.4136
vn 0.0330 0.8435 0.5361
vn 0.0320 0.8417 0.5390
vn 0.5489 0.7761 0.3105
vn -0.5389 0.7823 0.3125
vn 0.5607 0.7651 0.3165
vn -0.5420 0.7791 0.3150
vn 0.5803 0.7485 0.3209
vn -0.8444 0.0079 0.5357
vn -0.7699 0.3813 0.5117
vn -0.7961 0.3335 0.5049
vn 0.8673 -0.1030 0.4869
vn 0.8630 0.1381 0.4860
vn 0.8502 0.2123 0.4818
vn -0.8594 -0.1037 0.5008
vn -0.8549 0.1479 0.4972
vn -0.8448 0.2188 0.4883
vn 0.8655 -0.1180 0.4868
vn 0.8676 0.0900 0.4890
vn 0.8545 0.1871 0.4845
vn -0.8594 -0.1074 0.4999
vn -0.8566 0.1344 0.4982
vn -0.8463 0.2116 0.4890
vn 0.8876 -0.1243 0.4435
vn 0.8827 0.0313 0.4689
vn 0.8634 0.1575 0.4792
vn 0.8850 0.4221 0.1963
vn 0.6647 0.6509 0.3666
vn 0.5488 0.7410 0.3869
vn 0.4675 0.8480 0.2497
vn 0.5469 0.8316 0.0966
vn 0.5953 0.8030 0.0293
vn 0.5538 0.8326 0.0071
vn 0.6000 0.7999 0.0061
vn 0.9614 0.0039 -0.2751
vn 0.9407 0.3345 -0.0564
vn 0.9834 0.1668 -0.0720
vn 0.9827 -0.1846 -0.0158
vn 0.9986 0.0229 -0.0483
vn 0.9942 -0.0049 -0.1073
vn 0.9543 0.0033 -0.2989
vn 0.9490 0.0113 -0.3152
vn 0.9706 0.0200 -0.2398
vn 0.8926 0.4409 -0.0938
vn 0.4975 0.1636 -0.8519
vn 0.6184 -0.0174 -0.7857
vn 0.6300 -0.0492 -0.7750
vn 0.4944 0.8651 -0.0845
vn 0.3797 -0.0657 -0.9228
vn 0.3842 -0.0660 -0.9209
vn 0.4388 -0.1511 -0.8858
vn 0.0048 -0.5944 -0.8042
vn 0.0013 -0.0845 -0.9964
vn -0.0098 0.6886 -0.7251
vn 0.0275 0.0468 -0.9985
vn 0.0192 0.6470 -0.7622
vn 0.3135 0.7468 0.5865
vn -0.0091 0.9316 0.3635
vn 0.7720 0.0650 -0.6323
vn -0.9413 -0.3377 -0.0008
vn -0.9041 0.4257 0.0374
vn -0.9789 0.2023 0.0279
vn -0.9954 0.0842 0.0453
vn -0.9946 -0.0980 0.0347
vn -1.0000 -0.0034 0.0070
vn -0.9966 -0.0323 -0.0763
vn -0.9761 0.0553 -0.2101
vn -0.9906 0.0722 0.1160
vn -0.9991 0.0402 0.0149
vn -0.9999 0.0102 0.0056
vn -1.0000 0.0067 0.0055
vn -1.0000 0.0033 0.0055
vn -1.0000 -0.0000 0.0055
vn -0.9973 0.0265 -0.0687
vn -0.9839 -0.0349 -0.1752
vn -0.9906 -0.1345 0.0244
vn -0.9960 -0.0712 0.0535
vn -0.9968 -0.0771 0.0214
vn -0.9956 -0.0923 0.0129
vn -0.9953 -0.0968 0.0072
vn -0.9972 -0.0732 -0.0119
vn -0.9923 0.0798 -0.0949
vn -0.9873 0.1450 -0.0653
vn -0.9965 0.0806 -0.0242
vn -0.9974 0.0588 0.0412
vn -0.9951 0.0947 0.0288
vn -0.9938 0.1093 0.0210
vn -0.9937 0.1106 0.0155
vn -0.9960 0.0891 -0.0044
vn -0.9437 0.2783 -0.1790
vn -0.9612 0.2757 0.0080
vn -0.9733 0.2281 0.0263
vn -0.9744 0.2236 0.0234
vn -0.9755 0.2189 0.0233
vn -0.9765 0.2143 0.0231
vn -0.9775 0.2097 0.0230
vn -0.9784 0.2052 0.0229
vn -0.7600 0.6279 0.1678
vn -0.9483 0.3140 0.0454
vn -0.9180 0.3945 -0.0413
vn -0.8931 0.4484 0.0365
vn -0.8956 0.4433 0.0363
vn -0.8981 0.4384 0.0362
vn -0.9005 0.4334 0.0360
vn -0.9029 0.4285 0.0359
vn -0.9840 -0.1045 -0.1442
vn -0.9807 -0.1954 0.0123
vn -0.9722 -0.2267 0.0584
vn -0.9525 -0.3038 0.0201
vn -0.9492 -0.3125 0.0368
vn -0.9630 -0.2697 -0.0023
vn -0.9556 -0.2947 -0.0004
vn -0.9493 -0.3145 -0.0051
vn -0.9986 -0.0523 0.0025
vn -0.9988 -0.0493 0.0025
vn -0.9989 -0.0463 0.0025
vn -0.9991 -0.0433 0.0025
vn -0.9993 -0.0308 -0.0213
vn -0.9945 -0.0208 0.1023
vn -0.9892 -0.0472 -0.1390
vn -0.9961 0.0083 -0.0881
vn -0.9985 -0.0553 0.0031
vn -0.8023 0.5969 0.0021
vn -0.7982 0.6024 0.0017
vn -0.7971 0.6039 0.0038
vn -0.8094 0.5871 0.0093
vn -0.8700 0.4929 0.0084
vn -0.8900 0.4503 0.0719
vn -0.9469 0.3185 -0.0444
vn -0.9786 0.1635 -0.1247
vn -0.8059 0.5921 0.0024
vn -0.8747 0.4812 0.0570
vn -0.9759 0.1925 0.1024
vn -0.9855 0.1337 0.1048
vn -0.9860 -0.1644 0.0285
vn -0.9970 -0.0024 0.0775
vn -0.9968 -0.0247 0.0759
vn -0.9765 0.1784 0.1205
vn -0.9970 0.0723 0.0275
vn -0.9982 -0.0458 0.0385
vn -0.9974 0.0052 0.0718
vn -0.9943 -0.0323 0.1013
vn -0.9906 -0.0950 0.0986
vn -0.9961 -0.0730 0.0497
vn -0.9997 0.0035 0.0260
vn -0.9730 -0.0936 -0.2108
vn -0.9741 0.2231 -0.0378
vn -0.9978 0.0609 0.0266
vn -0.9702 0.2200 0.1015
vn -0.9391 0.3433 0.0159
vn -0.8225 0.5650 0.0647
vn -0.9273 0.3671 0.0732
vn -0.9727 -0.1293 0.1929
vn -0.9943 -0.1063 -0.0023
vn -0.8750 0.4842 0.0064
vn -0.8816 0.3786 0.2820
vn -0.9974 -0.0015 -0.0721
vn -0.8696 0.4937 -0.0065
vn -0.9837 -0.1503 -0.0991
vn -0.9298 0.0775 -0.3598
vn -0.1445 0.7798 0.6091
vn -0.3452 0.8072 0.4788
vn -0.9990 0.0442 0.0070
vn -0.1889 -0.0531 0.9806
vn -0.9562 0.2354 0.1741
vn -0.9003 0.3177 0.2975
vn -0.9805 -0.1642 0.1078
vn -0.5729 -0.1539 0.8050
vn -0.9791 -0.2026 0.0198
vn -0.9868 -0.1390 0.0831
vn -0.9917 0.0975 0.0843
vn -0.6541 -0.0362 0.7556
vn 0.4883 0.4249 -0.7622
vn -0.5323 -0.3965 0.7480
vn 0.0811 0.7458 -0.6612
vn 0.9984 0.0567 -0.0014
vn 0.1257 0.3570 0.9256
vn 0.3705 0.5416 0.7546
vn -0.0019 0.8198 0.5726
vn -0.0021 0.3659 0.9307
vn 0.0001 -0.0401 0.9992
vn 0.0366 -0.0184 0.9992
vn -0.0086 -0.0345 0.9994
vn 0.0051 -0.8559 0.5171
vn 0.0060 -0.0802 0.9968
vn 0.0035 -0.0410 0.9992
vn 0.2011 0.9788 0.0396
vn 0.3147 -0.9483 -0.0403
vn -0.0029 0.9991 0.0412
vn 0.0097 0.9222 0.3865
vn -0.0036 0.9282 0.3719
vn -0.0047 0.9267 0.3757
vn -0.0031 0.9253 0.3793
vn -0.0054 0.9237 0.3831
vn -0.0477 -0.2344 0.9710
vn -0.0355 0.1828 0.9825
vn -0.0203 0.3611 0.9323
vn -0.0387 -0.2254 0.9735
vn -0.0278 0.2129 0.9767
vn -0.0159 0.3752 0.9268
vn -0.0425 -0.2165 0.9754
vn -0.0314 0.2421 0.9698
vn -0.0179 0.3887 0.9212
vn -0.0399 -0.2074 0.9774
vn -0.0288 0.2712 0.9621
vn -0.0163 0.4024 0.9153
vn -0.0536 -0.1997 0.9784
vn -0.0391 0.2948 0.9547
vn -0.0222 0.4134 0.9103
vn -0.9371 -0.1636 0.3082
vn -0.0751 0.1386 0.9875
vn -0.0142 0.3382 0.9410
vn 0.7503 0.4626 0.4723
vn -0.6245 -0.6725 -0.3970
vn 0.0213 -0.9061 0.4225
vn 0.0016 -0.9080 0.4190
vn 0.0016 -0.9105 0.4136
vn -0.0330 0.8435 0.5361
vn -0.0320 0.8417 0.5390
vn -0.5489 0.7761 0.3105
vn 0.5389 0.7823 0.3125
vn -0.5607 0.7651 0.3165
vn 0.5420 0.7791 0.3150
vn -0.5803 0.7485 0.3209
vn 0.8444 0.0079 0.5357
vn 0.7699 0.3813 0.5117
vn 0.7961 0.3335 0.5049
vn -0.8673 -0.1030 0.4869
vn -0.8630 0.1381 0.4860
vn -0.8502 0.2123 0.4818
vn 0.8594 -0.1037 0.5008
vn 0.8549 0.1479 0.4972
vn 0.8448 0.2188 0.4883
vn -0.8655 -0.1180 0.4868
vn -0.8676 0.0900 0.4890
vn -0.8545 0.1871 0.4845
vn 0.8594 -0.1074 0.4999
vn 0.8566 0.1344 0.4982
vn 0.8463 0.2116 0.4890
vn -0.8876 -0.1243 0.4435
vn -0.8827 0.0313 0.4689
vn -0.8634 0.1575 0.4792
vn -0.8850 0.4221 0.1963
vn -0.6647 0.6509 0.3666
vn -0.5488 0.7410 0.3869
vn -0.4675 0.8480 0.2497
vn -0.5469 0.8316 0.0966
vn -0.5953 0.8030 0.0293
vn -0.5538 0.8326 0.0071
vn -0.6000 0.7999 0.0061
vn -0.9614 0.0039 -0.2751
vn -0.9407 0.3345 -0.0564
vn -0.9834 0.1668 -0.0720
vn -0.9827 -0.1846 -0.0158
vn -0.9986 0.0229 -0.0483
vn -0.9942 -0.0049 -0.1073
vn -0.9543 0.0033 -0.2989
vn -0.9490 0.0113 -0.3152
vn -0.9706 0.0200 -0.2398
vn -0.8926 0.4409 -0.0938
vn -0.4975 0.1636 -0.8519
vn -0.6184 -0.0174 -0.7857
vn -0.6300 -0.0492 -0.7750
vn -0.4944 0.8651 -0.0845
vn -0.3797 -0.0657 -0.9228
vn -0.3842 -0.0660 -0.9209
vn -0.4388 -0.1511 -0.8858
vn -0.0048 -0.5944 -0.8042
vn -0.0013 -0.0845 -0.9964
vn 0.0098 0.6886 -0.7251
vn -0.0275 0.0468 -0.9985
vn -0.0192 0.6470 -0.7622
vn -0.3135 0.7468 0.5865
vn 0.0091 0.9316 0.3635
vn -0.7720 0.0650 -0.6323
vt 0.958333 0.888889
vt 1.000000 0.888889
vt 1.000000 1.000000
vt 0.958333 1.000000
vt 0.000000 0.888889
vt 0.166667 0.888889
vt 0.166667 1.000000
vt 0.000000 1.000000
vt 0.333333 0.888889
vt 0.333333 1.000000
vt 0.500000 0.888889
vt 0.500000 1.000000
vt 0.666667 0.888889
vt 0.666667 1.000000
vt 0.833333 0.888889
vt 0.833333 1.000000
vt 0.666667 0.000000
vt 0.833333 0.000000
vt 0.833333 0.111111
vt 0.666667 0.111111
vt 0.833333 0.222222
vt 0.666667 0.222222
vt 0.833333 0.333333
vt 0.666667 0.333333
vt 0.833333 0.444444
vt 0.666667 0.444444
vt 0.833333 0.555556
vt 0.666667 0.555556
vt 0.833333 0.666667
vt 0.666667 0.666667
vt 0.833333 0.777778
vt 0.666667 0.777778
vt 0.500000 0.000000
vt 0.500000 0.111111
vt 0.500000 0.222222
vt 0.500000 0.333333
vt 0.500000 0.444444
vt 0.500000 0.555556
vt 0.500000 0.666667
vt 0.500000 0.777778
vt 0.333333 0.000000
vt 0.333333 0.111111
vt 0.333333 0.222222
vt 0.333333 0.333333
vt 0.333333 0.444444
vt 0.333333 0.555556
vt 0.333333 0.666667
vt 0.333333 0.777778
vt 0.166667 0.000000
vt 0.166667 0.111111
vt 0.166667 0.222222
vt 0.166667 0.333333
vt 0.166667 0.444444
vt 0.166667 0.555556
vt 0.166667 0.666667
vt 0.166667 0.777778
vt 0.000000 0.000000
vt 0.083333 0.000000
vt 0.000000 0.111111
vt 0.000000 0.222222
vt 0.000000 0.333333
vt 0.000000 0.444444
vt 0.000000 0.555556
vt 0.000000 0.666667
vt 0.000000 0.777778
vt 0.958333 0.000000
vt 1.000000 0.000000
vt 1.000000 0.111111
vt 0.958333 0.111111
vt 1.000000 0.222222
vt 0.958333 0.222222
vt 1.000000 0.333333
vt 0.958333 0.333333
vt 1.000000 0.444444
vt 0.958333 0.444444
vt 1.000000 0.555556
vt 0.958333 0.555556
vt 1.000000 0.666667
vt 0.958333 0.666667
vt 1.000000 0.777778
vt 0.958333 0.777778
vt 0.916667 0.777778
vt 0.916667 0.888889
vt 0.916667 0.666667
vt 0.916667 0.555556
vt 0.916667 0.444444
vt 0.916667 0.333333
vt 0.916667 0.222222
vt 0.916667 0.111111
vt 0.916667 0.000000
vt 0.916667 1.000000
vt 0.817719 0.790890
vt 0.961655 0.791204
vt 0.864533 0.983621
vt 0.912473 0.983587
vt 0.129185 0.791465
vt 0.264070 0.791865
vt 0.264114 0.984060
vt 0.129142 0.984121
vt 0.279961 0.791613
vt 0.446628 0.791614
vt 0.446628 1.000000
vt 0.279961 1.000000
vt 0.461985 0.791261
vt 0.597937 0.792071
vt 0.597979 0.983832
vt 0.461944 0.983896
vt 0.613295 0.791614
vt 0.779961 0.791613
vt 0.779961 1.000000
vt 0.613295 1.000000
vt 0.613294 0.000000
vt 0.779961 0.000000
vt 0.779961 0.291614
vt 0.613294 0.291614
vt 0.779961 0.541613
vt 0.613294 0.541613
vt 0.462148 0.019106
vt 0.597775 0.019072
vt 0.597817 0.292607
vt 0.462102 0.290975
vt 0.597879 0.542487
vt 0.462043 0.540955
vt 0.279961 0.000000
vt 0.446628 0.000000
vt 0.446628 0.291613
vt 0.279961 0.291613
vt 0.446628 0.541613
vt 0.279961 0.541614
vt 0.129362 0.019232
vt 0.263894 0.019200
vt 0.263948 0.291889
vt 0.129306 0.291686
vt 0.264009 0.542060
vt 0.129247 0.541379
vt 0.113295 0.000000
vt 0.113295 0.291614
vt 0.000000 0.291614
vt 0.113295 0.541614
vt 0.000000 0.541614
vt 0.113295 0.791614
vt 0.000000 0.791614
vt 0.991282 0.018890
vt 0.794400 0.019715
vt 0.927220 0.303972
vt 0.850218 0.292992
vt 0.951649 0.549861
vt 0.828470 0.540534
vt 1.000000 0.791613
vt 0.113295 1.000000
vt 1.000000 0.291613
vt 1.000000 0.541614
s 0
f 386/113/216 326/114/216 300/115/216 378/116/216
f 311/117/217 334/118/217 310/119/217 299/120/217
f 334/118/218 342/121/218 309/122/218 310/119/218
f 342/121/219 350/123/219 308/124/219 309/122/219
f 350/123/220 358/125/220 307/126/220 308/124/220
f 358/125/221 366/127/221 306/128/221 307/126/221
f 304/129/222 305/130/222 359/131/222 351/132/222
f 351/132/223 359/131/223 360/133/223 352/134/223
f 352/134/224 360/133/224 361/135/224 353/136/224
f 353/136/225 361/135/225 362/137/225 354/138/225
f 354/138/226 362/137/226 363/139/226 355/140/226
f 355/140/227 363/139/227 364/141/227 356/142/227
f 356/142/228 364/141/228 365/143/228 357/144/228
f 357/144/229 365/143/229 366/127/229 358/125/229
f 303/145/230 304/129/230 351/132/230 343/146/230
f 343/146/231 351/132/231 352/134/231 344/147/231
f 344/147/232 352/134/232 353/136/232 345/148/232
f 345/148/233 353/136/233 354/138/233 346/149/233
f 346/149/234 354/138/234 355/140/234 347/150/234
f 347/150/235 355/140/235 356/142/235 348/151/235
f 348/151/236 356/142/236 357/144/236 349/152/236
f 349/152/237 357/144/237 358/125/237 350/123/237
f 302/153/238 303/145/238 343/146/238 335/154/238
f 335/154/239 343/146/239 344/147/239 336/155/239
f 336/155/240 344/147/240 345/148/240 337/156/240
f 337/156/241 345/148/241 346/149/241 338/157/241
f 338/157/242 346/149/242 347/150/242 339/158/242
f 339/158/243 347/150/243 348/151/243 340/159/243
f 340/159/244 348/151/244 349/152/244 341/160/244
f 341/160/245 349/152/245 350/123/245 342/121/245
f 301/161/246 302/153/246 335/154/246 327/162/246
f 327/162/247 335/154/247 336/155/247 328/163/247
f 328/163/248 336/155/248 337/156/248 329/164/248
f 329/164/249 337/156/249 338/157/249 330/165/249
f 330/165/250 338/157/250 339/158/250 331/166/250
f 331/166/251 339/158/251 340/159/251 332/167/251
f 332/167/252 340/159/252 341/160/252 333/168/252
f 333/168/253 341/160/253 342/121/253 334/118/253
f 297/169/254 414/170/254 301/161/254 327/162/254 318/171/254
f 318/171/255 327/162/255 328/163/255 317/172/255
f 317/172/256 328/163/256 329/164/256 316/173/256
f 316/173/257 329/164/257 330/165/257 315/174/257
f 315/174/258 330/165/258 331/166/258 314/175/258
f 314/175/259 331/166/259 332/167/259 313/176/259
f 313/176/260 332/167/260 333/168/260 312/177/260
f 312/177/261 333/168/261 334/118/261 311/117/261
f 377/178/262 298/179/262 319/180/262 379/181/262
f 379/181/263 319/180/263 320/182/263 380/183/263
f 380/183/264 320/182/264 321/184/264 381/185/264
f 381/185/265 321/184/265 322/186/265 382/187/265
f 382/187/266 322/186/266 323/188/266 383/189/266
f 383/189/267 323/188/267 324/190/267 384/191/267
f 384/191/268 324/190/268 325/192/268 385/193/268
f 385/193/269 325/192/269 326/114/269 386/113/269
f 365/143/270 375/194/270 376/195/270 366/127/270
f 364/141/271 374/196/271 375/194/271 365/143/271
f 363/139/272 373/197/272 374/196/272 364/141/272
f 362/137/273 372/198/273 373/197/273 363/139/273
f 361/135/274 371/199/274 372/198/274 362/137/274
f 360/133/275 370/200/275 371/199/275 361/135/275
f 359/131/276 369/201/276 370/200/276 360/133/276
f 305/130/277 367/202/277 369/201/277 359/131/277
f 366/127/278 376/195/278 368/203/278 306/128/278
f 375/194/279 385/193/279 386/113/279 376/195/279
f 374/196/280 384/191/280 385/193/280 375/194/280
f 373/197/281 383/189/281 384/191/281 374/196/281
f 372/198/282 382/187/282 383/189/282 373/197/282
f 371/199/283 381/185/283 382/187/283 372/198/283
f 370/200/284 380/183/284 381/185/284 371/199/284
f 369/201/285 379/181/285 380/183/285 370/200/285
f 367/202/286 377/178/286 379/181/286 369/201/286
f 376/195/287 386/113/287 378/116/287 368/203/287
f 299/120/288 310/119/288 409/169/288 406/169/288
f 409/169/289 310/119/289 309/122/289 410/169/289
f 410/169/290 309/122/290 308/124/290 404/169/290
f 404/169/291 308/124/291 307/126/291 412/169/291
f 412/169/292 307/126/292 306/128/292 411/169/292
f 411/169/293 306/128/293 368/203/293 413/169/293
f 413/169/294 368/203/294 378/116/294 405/169/294
f 407/169/295 399/169/295 405/169/295
f 405/169/296 378/116/296 300/115/296 407/169/296
f 405/169/297 399/169/297 408/169/297 411/169/297 413/169/297
f 399/169/298 394/169/298 396/169/298 408/169/298
f 408/169/299 396/169/299 395/169/299 400/169/299
f 396/169/300 392/169/300 391/169/300 395/169/300
f 395/169/301 391/169/301 390/169/301 398/169/301
f 389/169/302 388/169/302 398/169/302 390/169/302
f 388/169/303 397/169/303 401/169/303 398/169/303
f 401/169/304 400/169/304 395/169/304 398/169/304
f 400/169/305 401/169/305 403/169/305 404/169/305
f 401/169/306 397/169/306 402/169/306 403/169/306
f 387/169/307 406/169/307 403/169/307 402/169/307
f 406/169/308 409/169/308 410/169/308 404/169/308 403/169/308
f 400/169/309 404/169/309 412/169/309 411/169/309 408/169/309
f 394/169/310 393/169/310 392/169/310 396/169/310
f 414/170/311 297/169/311 438/169/311 437/169/311 436/169/311 435/169/311 434/169/311 433/169/311 432/169/311 431/169/311 430/169/311 416/169/311 415/169/311
f 454/169/312 464/169/312 465/169/312
f 455/169/313 454/169/313 417/169/313 418/169/313 419/169/313 420/169/313 421/169/313 422/169/313 460/169/313 458/169/313 457/169/313 456/169/313
f 455/169/314 456/169/314 457/169/314 458/169/314 460/169/314 367/202/314 305/130/314 304/129/314 303/145/314 302/153/314 301/161/314 414/170/314 415/169/314 416/169/314 454/169/314
f 454/169/315 453/169/315 473/169/315 452/169/315 448/169/315 447/169/315 446/169/315 417/169/315
f 425/169/316 460/169/316 422/169/316 423/169/316 424/169/316
f 471/169/317 440/169/317 441/169/317
f 440/169/318 439/169/318 416/169/318 430/169/318 445/169/318 444/169/318 443/169/318 442/169/318 441/169/318
f 377/178/319 367/202/319 460/169/319 425/169/319 426/169/319 427/169/319 428/169/319 429/169/319 393/169/319 394/169/319 399/169/319 407/169/319 300/115/319 326/114/319 325/192/319 324/190/319 323/188/319 322/186/319 321/184/319 320/182/319 319/180/319 298/179/319
f 468/169/320 469/169/320 471/169/320 487/169/320 490/169/320 493/169/320
f 465/169/321 440/169/321 450/169/321 470/169/321
f 454/169/322 465/169/322 474/169/322
f 467/169/323 473/169/323 470/169/323 450/169/323
f 469/169/324 468/169/324 467/169/324
f 467/169/325 466/169/325 473/169/325
f 466/169/326 472/169/326 473/169/326
f 465/169/327 470/169/327 473/169/327 474/169/327
f 469/169/328 467/169/328 450/169/328 440/169/328 471/169/328
f 476/169/329 493/169/329 468/169/329
f 476/169/330 463/169/330 466/169/330 467/169/330 468/169/330
f 462/169/331 475/169/331 491/169/331 485/169/331
f 475/169/332 491/169/332 493/169/332 476/169/332
f 486/169/333 482/169/333 496/169/333 498/169/333
f 487/169/334 471/169/334 441/169/334 478/169/334
f 441/169/335 442/169/335 459/169/335 478/169/335
f 461/169/336 479/169/336 478/169/336 459/169/336
f 479/169/337 481/169/337 487/169/337 478/169/337
f 489/169/338 480/169/338 487/169/338 481/169/338
f 480/169/339 482/169/339 490/169/339 487/169/339
f 484/169/340 492/169/340 485/169/340 491/169/340
f 486/169/341 484/169/341 491/169/341 493/169/341
f 480/169/342 489/169/342 500/169/342 499/169/342
f 482/169/343 486/169/343 493/169/343 490/169/343
f 488/169/344 494/169/344 497/169/344 498/169/344 496/169/344 495/169/344
f 484/169/345 486/169/345 498/169/345 497/169/345
f 482/169/346 480/169/346 495/169/346 496/169/346
f 492/169/347 484/169/347 497/169/347 494/169/347
f 534/204/348 535/205/348 536/206/348 539/207/348
f 522/208/349 525/209/349 543/210/349 544/211/349
f 549/212/350 550/213/350 506/214/350 507/215/350
f 528/216/351 531/217/351 541/218/351 540/219/351
f 551/220/352 552/221/352 504/222/352 505/223/352
f 512/224/353 513/225/353 563/226/353 561/227/353
f 561/227/354 563/226/354 564/228/354 562/229/354
f 562/229/355 564/228/355 552/221/355 551/220/355
f 547/230/356 546/231/356 529/232/356 526/233/356
f 526/233/357 529/232/357 530/234/357 527/235/357
f 527/235/358 530/234/358 531/217/358 528/216/358
f 510/236/359 511/237/359 559/238/359 557/239/359
f 557/239/360 559/238/360 560/240/360 558/241/360
f 558/241/361 560/240/361 550/213/361 549/212/361
f 545/242/362 542/243/362 523/244/362 520/245/362
f 520/245/363 523/244/363 524/246/363 521/247/363
f 521/247/364 524/246/364 525/209/364 522/208/364
f 503/169/365 509/248/365 555/249/365 519/250/365
f 519/250/366 555/249/366 556/251/366 518/252/366
f 518/252/367 556/251/367 548/253/367 517/254/367
f 537/255/368 538/256/368 553/257/368 532/258/368
f 532/258/369 553/257/369 554/259/369 533/260/369
f 533/260/370 554/259/370 535/205/370 534/204/370
f 536/206/371 535/205/371 516/261/371 501/115/371
f 538/256/372 537/255/372 513/225/372 502/179/372
f 539/207/373 536/206/373 501/115/373 504/222/373
f 540/219/374 541/218/374 505/223/374 506/214/374
f 544/211/375 543/210/375 507/215/375 508/262/375
f 542/243/376 545/242/376 509/248/376 510/236/376
f 546/231/377 547/230/377 511/237/377 512/224/377
f 522/208/378 544/211/378 508/262/378 548/253/378
f 543/210/379 525/209/379 549/212/379 507/215/379
f 528/216/380 540/219/380 506/214/380 550/213/380
f 541/218/381 531/217/381 551/220/381 505/223/381
f 534/204/382 539/207/382 504/222/382 552/221/382
f 553/257/383 538/256/383 502/179/383 514/263/383
f 554/259/384 553/257/384 514/263/384 515/264/384
f 535/205/385 554/259/385 515/264/385 516/261/385
f 545/242/386 520/245/386 555/249/386 509/248/386
f 520/245/387 521/247/387 556/251/387 555/249/387
f 521/247/388 522/208/388 548/253/388 556/251/388
f 523/244/389 542/243/389 510/236/389 557/239/389
f 524/246/390 523/244/390 557/239/390 558/241/390
f 525/209/391 524/246/391 558/241/391 549/212/391
f 547/230/392 526/233/392 559/238/392 511/237/392
f 526/233/393 527/235/393 560/240/393 559/238/393
f 527/235/394 528/216/394 550/213/394 560/240/394
f 529/232/395 546/231/395 512/224/395 561/227/395
f 530/234/396 529/232/396 561/227/396 562/229/396
f 531/217/397 530/234/397 562/229/397 551/220/397
f 537/255/398 532/258/398 563/226/398 513/225/398
f 532/258/399 533/260/399 564/228/399 563/226/399
f 533/260/400 534/204/400 552/221/400 564/228/400
f 436/169/401 437/169/401 572/169/401 593/169/401
f 593/169/402 572/169/402 571/169/402 573/169/402
f 573/169/403 571/169/403 570/169/403 574/169/403
f 574/169/404 570/169/404 569/169/404 575/169/404
f 569/169/405 595/169/405 594/169/405 575/169/405
f 594/169/406 595/169/406 568/169/406 576/169/406
f 576/169/407 568/169/407 567/169/407 596/169/407
f 596/169/408 567/169/408 566/169/408 577/169/408
f 588/169/409 614/169/409 606/169/409 605/169/409 604/169/409 603/169/409 586/169/409 587/169/409
f 599/169/410 598/169/410 585/169/410 597/169/410 402/169/410 397/169/410
f 397/169/411 388/169/411 600/169/411 601/169/411 602/169/411 588/169/411 587/169/411 586/169/411 598/169/411 599/169/411
f 389/169/412 592/169/412 591/169/412 590/169/412 589/169/412 588/169/412 602/169/412 601/169/412 600/169/412 388/169/412
f 589/169/413 615/169/413 614/169/413 588/169/413
f 615/169/414 613/169/414 612/169/414 617/169/414 616/169/414 614/169/414
f 616/169/415 617/169/415 607/169/415 606/169/415 614/169/415
f 618/169/416 610/169/416 609/169/416 608/169/416 607/169/416 617/169/416
f 611/169/417 618/169/417 617/169/417 612/169/417
f 597/169/418 585/169/418 584/169/418 583/169/418 582/169/418 581/169/418 580/169/418 579/169/418 578/169/418 577/169/418 566/169/418 565/169/418 451/169/418 449/169/418 387/169/418 402/169/418
f 604/169/419 605/169/419 627/169/419 632/169/419
f 625/169/420 606/169/420 607/169/420
f 625/169/421 627/169/421 605/169/421 606/169/421
f 625/169/422 607/169/422 608/169/422
f 625/169/423 608/169/423 623/169/423
f 623/169/424 608/169/424 609/169/424 621/169/424
f 621/169/425 609/169/425 610/169/425 619/169/425
f 622/169/426 621/169/426 619/169/426 620/169/426
f 622/169/427 624/169/427 623/169/427 621/169/427
f 624/169/428 626/169/428 625/169/428 623/169/428
f 626/169/429 629/169/429 628/169/429 632/169/429 627/169/429 625/169/429
f 633/169/430 630/169/430 628/169/430 629/169/430
f 642/169/431 459/169/431 442/169/431 634/169/431 635/169/431 636/169/431 637/169/431 638/169/431 639/169/431 640/169/431 641/169/431
f 643/169/432 517/254/432 548/253/432 508/262/432
f 628/169/433 630/169/433 632/169/433
f 733/113/434 725/116/434 647/115/434 673/114/434
f 658/117/435 646/120/435 657/119/435 681/118/435
f 681/118/436 657/119/436 656/122/436 689/121/436
f 689/121/437 656/122/437 655/124/437 697/123/437
f 697/123/438 655/124/438 654/126/438 705/125/438
f 705/125/439 654/126/439 653/128/439 713/127/439
f 651/129/440 698/132/440 706/131/440 652/130/440
f 698/132/441 699/134/441 707/133/441 706/131/441
f 699/134/442 700/136/442 708/135/442 707/133/442
f 700/136/443 701/138/443 709/137/443 708/135/443
f 701/138/444 702/140/444 710/139/444 709/137/444
f 702/140/445 703/142/445 711/141/445 710/139/445
f 703/142/446 704/144/446 712/143/446 711/141/446
f 704/144/447 705/125/447 713/127/447 712/143/447
f 650/145/448 690/146/448 698/132/448 651/129/448
f 690/146/449 691/147/449 699/134/449 698/132/449
f 691/147/450 692/148/450 700/136/450 699/134/450
f 692/148/451 693/149/451 701/138/451 700/136/451
f 693/149/452 694/150/452 702/140/452 701/138/452
f 694/150/453 695/151/453 703/142/453 702/140/453
f 695/151/454 696/152/454 704/144/454 703/142/454
f 696/152/455 697/123/455 705/125/455 704/144/455
f 649/153/456 682/154/456 690/146/456 650/145/456
f 682/154/457 683/155/457 691/147/457 690/146/457
f 683/155/458 684/156/458 692/148/458 691/147/458
f 684/156/459 685/157/459 693/149/459 692/148/459
f 685/157/460 686/158/460 694/150/460 693/149/460
f 686/158/461 687/159/461 695/151/461 694/150/461
f 687/159/462 688/160/462 696/152/462 695/151/462
f 688/160/463 689/121/463 697/123/463 696/152/463
f 648/161/464 674/162/464 682/154/464 649/153/464
f 674/162/465 675/163/465 683/155/465 682/154/465
f 675/163/466 676/164/466 684/156/466 683/155/466
f 676/164/467 677/165/467 685/157/467 684/156/467
f 677/165/468 678/166/468 686/158/468 685/157/468
f 678/166/469 679/167/469 687/159/469 686/158/469
f 679/167/470 680/168/470 688/160/470 687/159/470
f 680/168/471 681/118/471 689/121/471 688/160/471
f 644/169/472 665/171/472 674/162/472 648/161/472 761/170/472
f 665/171/473 664/172/473 675/163/473 674/162/473
f 664/172/474 663/173/474 676/164/474 675/163/474
f 663/173/475 662/174/475 677/165/475 676/164/475
f 662/174/476 661/175/476 678/166/476 677/165/476
f 661/175/477 660/176/477 679/167/477 678/166/477
f 660/176/478 659/177/478 680/168/478 679/167/478
f 659/177/479 658/117/479 681/118/479 680/168/479
f 724/178/480 726/181/480 666/180/480 645/179/480
f 726/181/481 727/183/481 667/182/481 666/180/481
f 727/183/482 728/185/482 668/184/482 667/182/482
f 728/185/483 729/187/483 669/186/483 668/184/483
f 729/187/484 730/189/484 670/188/484 669/186/484
f 730/189/485 731/191/485 671/190/485 670/188/485
f 731/191/486 732/193/486 672/192/486 671/190/486
f 732/193/487 733/113/487 673/114/487 672/192/487
f 712/143/488 713/127/488 723/195/488 722/194/488
f 711/141/489 712/143/489 722/194/489 721/196/489
f 710/139/490 711/141/490 721/196/490 720/197/490
f 709/137/491 710/139/491 720/197/491 719/198/491
f 708/135/492 709/137/492 719/198/492 718/199/492
f 707/133/493 708/135/493 718/199/493 717/200/493
f 706/131/494 707/133/494 717/200/494 716/201/494
f 652/130/495 706/131/495 716/201/495 714/202/495
f 713/127/496 653/128/496 715/203/496 723/195/496
f 722/194/497 723/195/497 733/113/497 732/193/497
f 721/196/498 722/194/498 732/193/498 731/191/498
f 720/197/499 721/196/499 731/191/499 730/189/499
f 719/198/500 720/197/500 730/189/500 729/187/500
f 718/199/501 719/198/501 729/187/501 728/185/501
f 717/200/502 718/199/502 728/185/502 727/183/502
f 716/201/503 717/200/503 727/183/503 726/181/503
f 714/202/504 716/201/504 726/181/504 724/178/504
f 723/195/505 715/203/505 725/116/505 733/113/505
f 646/120/506 753/169/506 756/169/506 657/119/506
f 756/169/507 757/169/507 656/122/507 657/119/507
f 757/169/508 751/169/508 655/124/508 656/122/508
f 751/169/509 759/169/509 654/126/509 655/124/509
f 759/169/510 758/169/510 653/128/510 654/126/510
f 758/169/511 760/169/511 715/203/511 653/128/511
f 760/169/512 752/169/512 725/116/512 715/203/512
f 754/169/513 752/169/513 746/169/513
f 752/169/514 754/169/514 647/115/514 725/116/514
f 752/169/515 760/169/515 758/169/515 755/169/515 746/169/515
f 746/169/516 755/169/516 743/169/516 741/169/516
f 755/169/517 747/169/517 742/169/517 743/169/517
f 743/169/518 742/169/518 738/169/518 739/169/518
f 742/169/519 745/169/519 737/169/519 738/169/519
f 736/169/520 737/169/520 745/169/520 735/169/520
f 735/169/521 745/169/521 748/169/521 744/169/521
f 748/169/522 745/169/522 742/169/522 747/169/522
f 747/169/523 751/169/523 750/169/523 748/169/523
f 748/169/524 750/169/524 749/169/524 744/169/524
f 734/169/525 749/169/525 750/169/525 753/169/525
f 753/169/526 750/169/526 751/169/526 757/169/526 756/169/526
f 747/169/527 755/169/527 758/169/527 759/169/527 751/169/527
f 741/169/528 743/169/528 739/169/528 740/169/528
f 761/170/529 762/169/529 763/169/529 777/169/529 778/169/529 779/169/529 780/169/529 781/169/529 782/169/529 783/169/529 784/169/529 785/169/529 644/169/529
f 801/169/530 810/169/530 809/169/530
f 802/169/531 803/169/531 804/169/531 805/169/531 807/169/531 769/169/531 768/169/531 767/169/531 766/169/531 765/169/531 764/169/531 801/169/531
f 802/169/532 801/169/532 763/169/532 762/169/532 761/170/532 648/161/532 649/153/532 650/145/532 651/129/532 652/130/532 714/202/532 807/169/532 805/169/532 804/169/532 803/169/532
f 801/169/533 764/169/533 793/169/533 794/169/533 795/169/533 799/169/533 818/169/533 800/169/533
f 772/169/534 771/169/534 770/169/534 769/169/534 807/169/534
f 816/169/535 788/169/535 787/169/535
f 787/169/536 788/169/536 789/169/536 790/169/536 791/169/536 792/169/536 777/169/536 763/169/536 786/169/536
f 724/178/537 645/179/537 666/180/537 667/182/537 668/184/537 669/186/537 670/188/537 671/190/537 672/192/537 673/114/537 647/115/537 754/169/537 746/169/537 741/169/537 740/169/537 776/169/537 775/169/537 774/169/537 773/169/537 772/169/537 807/169/537 714/202/537
f 813/169/538 832/169/538 830/169/538 829/169/538 816/169/538 814/169/538
f 810/169/539 815/169/539 797/169/539 787/169/539
f 801/169/540 819/169/540 810/169/540
f 812/169/541 797/169/541 815/169/541 818/169/541
f 814/169/542 812/169/542 813/169/542
f 812/169/543 818/169/543 811/169/543
f 811/169/544 818/169/544 817/169/544
f 810/169/545 819/169/545 818/169/545 815/169/545
f 814/169/546 816/169/546 787/169/546 797/169/546 812/169/546
f 821/169/547 813/169/547 832/169/547
f 821/169/548 813/169/548 812/169/548 811/169/548 808/169/548
f 462/169/331 485/169/331 831/169/331 820/169/331
f 820/169/549 821/169/549 832/169/549 831/169/549
f 828/169/550 836/169/550 834/169/550 825/169/550
f 829/169/551 823/169/551 788/169/551 816/169/551
f 788/169/552 823/169/552 806/169/552 789/169/552
f 461/169/553 806/169/553 823/169/553 479/169/553
f 479/169/554 823/169/554 829/169/554 481/169/554
f 489/169/555 481/169/555 829/169/555 824/169/555
f 824/169/556 829/169/556 830/169/556 825/169/556
f 827/169/340 831/169/340 485/169/340 492/169/340
f 828/169/557 832/169/557 831/169/557 827/169/557
f 824/169/558 837/169/558 500/169/558 489/169/558
f 825/169/559 830/169/559 832/169/559 828/169/559
f 488/169/560 833/169/560 834/169/560 836/169/560 835/169/560 494/169/560
f 827/169/561 835/169/561 836/169/561 828/169/561
f 825/169/562 834/169/562 833/169/562 824/169/562
f 492/169/563 494/169/563 835/169/563 827/169/563
f 867/204/564 872/207/564 869/206/564 868/205/564
f 855/208/565 877/211/565 876/210/565 858/209/565
f 882/212/566 843/215/566 842/214/566 883/213/566
f 861/216/567 873/219/567 874/218/567 864/217/567
f 884/220/568 841/223/568 840/222/568 885/221/568
f 848/224/569 894/227/569 896/226/569 849/225/569
f 894/227/570 895/229/570 897/228/570 896/226/570
f 895/229/571 884/220/571 885/221/571 897/228/571
f 880/230/572 859/233/572 862/232/572 879/231/572
f 859/233/573 860/235/573 863/234/573 862/232/573
f 860/235/574 861/216/574 864/217/574 863/234/574
f 846/236/575 890/239/575 892/238/575 847/237/575
f 890/239/576 891/241/576 893/240/576 892/238/576
f 891/241/577 882/212/577 883/213/577 893/240/577
f 878/242/578 853/245/578 856/244/578 875/243/578
f 853/245/579 854/247/579 857/246/579 856/244/579
f 854/247/580 855/208/580 858/209/580 857/246/580
f 503/169/581 519/250/581 888/249/581 845/248/581
f 519/250/582 518/252/582 889/251/582 888/249/582
f 518/252/583 517/254/583 881/253/583 889/251/583
f 870/255/584 865/258/584 886/257/584 871/256/584
f 865/258/585 866/260/585 887/259/585 886/257/585
f 866/260/586 867/204/586 868/205/586 887/259/586
f 869/206/587 838/115/587 852/261/587 868/205/587
f 871/256/588 839/179/588 849/225/588 870/255/588
f 872/207/589 840/222/589 838/115/589 869/206/589
f 873/219/590 842/214/590 841/223/590 874/218/590
f 877/211/591 844/262/591 843/215/591 876/210/591
f 875/243/592 846/236/592 845/248/592 878/242/592
f 879/231/593 848/224/593 847/237/593 880/230/593
f 855/208/594 881/253/594 844/262/594 877/211/594
f 876/210/595 843/215/595 882/212/595 858/209/595
f 861/216/596 883/213/596 842/214/596 873/219/596
f 874/218/597 841/223/597 884/220/597 864/217/597
f 867/204/598 885/221/598 840/222/598 872/207/598
f 886/257/599 850/263/599 839/179/599 871/256/599
f 887/259/600 851/264/600 850/263/600 886/257/600
f 868/205/601 852/261/601 851/264/601 887/259/601
f 878/242/602 845/248/602 888/249/602 853/245/602
f 853/245/603 888/249/603 889/251/603 854/247/603
f 854/247/604 889/251/604 881/253/604 855/208/604
f 856/244/605 890/239/605 846/236/605 875/243/605
f 857/246/606 891/241/606 890/239/606 856/244/606
f 858/209/607 882/212/607 891/241/607 857/246/607
f 880/230/608 847/237/608 892/238/608 859/233/608
f 859/233/609 892/238/609 893/240/609 860/235/609
f 860/235/610 893/240/610 883/213/610 861/216/610
f 862/232/611 894/227/611 848/224/611 879/231/611
f 863/234/612 895/229/612 894/227/612 862/232/612
f 864/217/613 884/220/613 895/229/613 863/234/613
f 870/255/614 849/225/614 896/226/614 865/258/614
f 865/258/615 896/226/615 897/228/615 866/260/615
f 866/260/616 897/228/616 885/221/616 867/204/616
f 783/169/617 926/169/617 905/169/617 784/169/617
f 926/169/618 906/169/618 904/169/618 905/169/618
f 906/169/619 907/169/619 903/169/619 904/169/619
f 907/169/620 908/169/620 902/169/620 903/169/620
f 902/169/621 908/169/621 927/169/621 928/169/621
f 927/169/622 909/169/622 901/169/622 928/169/622
f 909/169/623 929/169/623 900/169/623 901/169/623
f 929/169/624 910/169/624 899/169/624 900/169/624
f 921/169/625 920/169/625 919/169/625 936/169/625 937/169/625 938/169/625 939/169/625 947/169/625
f 932/169/626 744/169/626 749/169/626 930/169/626 918/169/626 931/169/626
f 744/169/627 932/169/627 931/169/627 919/169/627 920/169/627 921/169/627 935/169/627 934/169/627 933/169/627 735/169/627
f 736/169/628 735/169/628 933/169/628 934/169/628 935/169/628 921/169/628 922/169/628 923/169/628 924/169/628 925/169/628
f 922/169/629 921/169/629 947/169/629 948/169/629
f 948/169/630 947/169/630 949/169/630 950/169/630 945/169/630 946/169/630
f 949/169/631 947/169/631 939/169/631 940/169/631 950/169/631
f 951/169/632 950/169/632 940/169/632 941/169/632 942/169/632 943/169/632
f 944/169/633 945/169/633 950/169/633 951/169/633
f 930/169/634 749/169/634 734/169/634 796/169/634 798/169/634 898/169/634 899/169/634 910/169/634 911/169/634 912/169/634 913/169/634 914/169/634 915/169/634 916/169/634 917/169/634 918/169/634
f 937/169/635 960/169/635 956/169/635 938/169/635
f 955/169/636 940/169/636 939/169/636
f 955/169/637 939/169/637 938/169/637 956/169/637
f 955/169/638 941/169/638 940/169/638
f 955/169/639 954/169/639 941/169/639
f 954/169/640 953/169/640 942/169/640 941/169/640
f 953/169/641 952/169/641 943/169/641 942/169/641
f 622/169/642 620/169/642 952/169/642 953/169/642
f 622/169/643 953/169/643 954/169/643 624/169/643
f 624/169/644 954/169/644 955/169/644 626/169/644
f 626/169/645 955/169/645 956/169/645 960/169/645 957/169/645 629/169/645
f 633/169/646 629/169/646 957/169/646 958/169/646
f 969/169/647 968/169/647 967/169/647 966/169/647 965/169/647 964/169/647 963/169/647 962/169/647 961/169/647 789/169/647 806/169/647
f 643/169/648 844/262/648 881/253/648 517/254/648
f 957/169/649 960/169/649 958/169/649
l 441 477
l 477 478
l 490 483
l 483 491
l 483 493
l 630 631
l 631 581
l 788 822
l 822 823
l 830 826
l 826 831
l 826 832
l 958 959
l 959 914
o 立方体
v 0.559241 0.985980 -2.689037
v 0.504825 1.312475 -2.689037
v 0.541103 1.217895 -2.689037
v 0.000000 1.309884 -2.689037
v 0.000000 1.215304 -2.709926
v 0.478913 0.932859 -2.689037
v 0.357125 0.921199 -2.689037
v 0.000000 0.922495 -2.689037
v 0.476128 1.312328 -2.689037
v 0.513534 1.289772 -2.689037
v 0.000000 1.287181 -2.709926
v 0.484341 1.289624 -2.709926
v 0.531585 0.999484 -2.689037
v 0.516586 1.191259 -2.689037
v 0.510343 1.217748 -2.709926
v 0.469802 0.958627 -2.689037
v 0.000000 1.188912 -2.689037
v 0.355906 0.947722 -2.689037
v 0.000000 0.946047 -2.689037
v 0.531585 0.999484 -2.646607
v 0.516586 1.191259 -2.646607
v 0.469802 0.958627 -2.646607
v 0.355906 0.947722 -2.646607
v 0.000000 0.946047 -2.646607
v 0.000000 1.188912 -2.646607
v -0.559241 0.985980 -2.689037
v -0.504825 1.312475 -2.689037
v -0.541103 1.217895 -2.689037
v -0.478913 0.932859 -2.689037
v -0.357125 0.921199 -2.689037
v -0.476128 1.312328 -2.689037
v -0.513534 1.289772 -2.689037
v -0.484341 1.289624 -2.709926
v -0.531585 0.999484 -2.689037
v -0.516586 1.191259 -2.689037
v -0.510343 1.217748 -2.709926
v -0.469802 0.958627 -2.689037
v -0.355906 0.947722 -2.689037
v -0.531585 0.999484 -2.646607
v -0.516586 1.191259 -2.646607
v -0.469802 0.958627 -2.646607
v -0.355906 0.947722 -2.646607
vn -0.0000 -0.0000 1.0000
vn 0.0953 -0.9954 -0.0000
vn -0.5585 -0.2081 0.8030
vn -0.2941 -0.4877 0.8220
vn 0.0034 -0.6767 0.7362
vn -0.0029 0.6197 0.7848
vn -0.5002 0.4604 0.7333
vn 0.9970 0.0780 -0.0000
vn -0.0045 1.0000 -0.0000
vn 0.0047 -1.0000 -0.0000
vn 0.5516 -0.8341 -0.0000
vn -0.0953 -0.9954 -0.0000
vn 0.5585 -0.2081 0.8030
vn 0.2941 -0.4877 0.8220
vn -0.0034 -0.6767 0.7362
vn 0.0029 0.6197 0.7848
vn 0.5002 0.4604 0.7333
vn -0.9970 0.0780 -0.0000
vn 0.0045 1.0000 -0.0000
vn -0.0047 -1.0000 -0.0000
vn -0.5516 -0.8341 -0.0000
vt 0.000000 0.000000
s 0
f 981/265/650 980/265/650 974/265/650 984/265/650
f 987/265/651 985/265/651 991/265/651 992/265/651
f 979/265/652 981/265/652 984/265/652 972/265/652
f 971/265/653 978/265/653 981/265/653 979/265/653
f 978/265/654 973/265/654 980/265/654 981/265/654
f 983/265/650 982/265/650 970/265/650 972/265/650
f 986/265/655 983/265/655 984/265/655 974/265/655
f 982/265/650 985/265/650 975/265/650 970/265/650
f 985/265/650 987/265/650 976/265/650 975/265/650
f 987/265/650 988/265/650 977/265/650 976/265/650
f 989/265/650 990/265/650 994/265/650 993/265/650 992/265/650 991/265/650
f 983/265/656 972/265/656 984/265/656
f 982/265/657 983/265/657 990/265/657 989/265/657
f 983/265/658 986/265/658 994/265/658 990/265/658
f 988/265/659 987/265/659 992/265/659 993/265/659
f 985/265/660 982/265/660 989/265/660 991/265/660
f 1002/265/650 1005/265/650 974/265/650 980/265/650
f 1007/265/661 1011/265/661 1010/265/661 1006/265/661
f 1001/265/662 997/265/662 1005/265/662 1002/265/662
f 996/265/663 1001/265/663 1002/265/663 1000/265/663
f 1000/265/664 1002/265/664 980/265/664 973/265/664
f 1004/265/650 997/265/650 995/265/650 1003/265/650
f 986/265/665 974/265/665 1005/265/665 1004/265/665
f 1003/265/650 995/265/650 998/265/650 1006/265/650
f 1006/265/650 998/265/650 999/265/650 1007/265/650
f 1007/265/650 999/265/650 977/265/650 988/265/650
f 1008/265/650 1010/265/650 1011/265/650 993/265/650 994/265/650 1009/265/650
f 1004/265/666 1005/265/666 997/265/666
f 1003/265/667 1008/265/667 1009/265/667 1004/265/667
f 1004/265/668 1009/265/668 994/265/668 986/265/668
f 988/265/669 993/265/669 1011/265/669 1007/265/669
f 1006/265/670 1010/265/670 1008/265/670 1003/265/670
o light_head
v 0.642468 1.076427 2.522265
v 1.004083 1.140866 2.146184
v 1.000654 1.165263 2.096997
v 0.999906 1.245107 2.023672
v 0.976997 1.323070 1.937355
v 0.821515 1.301623 2.191864
v 0.625373 1.271622 2.326319
v 0.681157 1.198744 2.478456
v 0.796323 1.049252 2.411601
v 0.750436 1.088479 2.437218
v 0.756794 1.214413 2.410255
v 0.873826 1.253591 2.292132
v -0.642468 1.076427 2.522265
v -1.004083 1.140866 2.146184
v -1.000654 1.165263 2.096997
v -0.999906 1.245107 2.023672
v -0.976997 1.323070 1.937355
v -0.821515 1.301623 2.191864
v -0.625373 1.271622 2.326319
v -0.681157 1.198744 2.478456
v -0.796323 1.049252 2.411601
v -0.750436 1.088479 2.437218
v -0.756794 1.214413 2.410255
v -0.873826 1.253591 2.292132
vn 0.5943 0.1396 0.7920
vn 0.4229 0.6602 0.6207
vn 0.7404 0.1071 0.6635
vn 0.1208 0.9090 0.3988
vn 0.8318 0.4365 0.3430
vn 0.5404 0.7821 0.3103
vn -0.5943 0.1396 0.7920
vn -0.4229 0.6602 0.6207
vn -0.7404 0.1071 0.6635
vn -0.1208 0.9090 0.3988
vn -0.8318 0.4365 0.3430
vn -0.5404 0.7821 0.3103
vt 0.000000 0.000000
s 0
f 1020/266/671 1022/266/671 1012/266/671 1021/266/671
f 1022/266/672 1018/266/672 1019/266/672 1012/266/672
f 1013/266/673 1023/266/673 1022/266/673 1020/266/673
f 1023/266/674 1017/266/674 1018/266/674 1022/266/674
f 1014/266/675 1015/266/675 1023/266/675 1013/266/675
f 1015/266/676 1016/266/676 1017/266/676 1023/266/676
f 1032/266/677 1033/266/677 1024/266/677 1034/266/677
f 1034/266/678 1024/266/678 1031/266/678 1030/266/678
f 1025/266/679 1032/266/679 1034/266/679 1035/266/679
f 1035/266/680 1034/266/680 1030/266/680 1029/266/680
f 1026/266/681 1025/266/681 1035/266/681 1027/266/681
f 1027/266/682 1035/266/682 1029/266/682 1028/266/682
o light_tail
v 1.004023 1.241854 -2.232880
v 0.983760 1.380563 -2.314128
v 0.924445 1.460040 -2.341452
v 0.901201 1.535018 -2.343760
v 0.865212 1.677476 -2.300126
v 0.844968 1.709716 -2.315719
v 0.773739 1.711216 -2.462085
v 0.811228 1.478784 -2.607178
v 0.826973 1.250852 -2.607178
v 0.909449 1.250852 -2.568972
v 0.792484 1.595000 -2.540555
v 0.819101 1.364818 -2.607178
v 0.823037 1.307835 -2.607178
v 0.809354 1.710466 -2.431565
v 0.844490 1.636234 -2.504075
v 0.866131 1.507204 -2.561815
v 0.879818 1.412636 -2.561790
v 0.896489 1.345619 -2.561790
v -1.004023 1.241854 -2.232880
v -0.983760 1.380563 -2.314128
v -0.924445 1.460040 -2.341452
v -0.901201 1.535018 -2.343760
v -0.865212 1.677476 -2.300126
v -0.844968 1.709716 -2.315719
v -0.773739 1.711216 -2.462085
v -0.811228 1.478784 -2.607178
v -0.826973 1.250852 -2.607178
v -0.909449 1.250852 -2.568972
v -0.792484 1.595000 -2.540555
v -0.819101 1.364818 -2.607178
v -0.823037 1.307835 -2.607178
v -0.809354 1.710466 -2.431565
v -0.844490 1.636234 -2.504075
v -0.866131 1.507204 -2.561815
v -0.879818 1.412636 -2.561790
v -0.896489 1.345619 -2.561790
vn 0.2542 0.6440 -0.7216
vn 0.3229 0.4698 -0.8216
vn 0.5911 0.0610 -0.8043
vn 0.5199 0.0864 -0.8499
vn 0.4530 0.0924 -0.8867
vn 0.8161 0.5377 -0.2118
vn 0.9495 0.2646 -0.1688
vn 0.9561 0.2054 -0.2090
vn 0.8657 0.3907 -0.3127
vn 0.9534 0.0409 -0.2988
vn -0.2542 0.6440 -0.7216
vn -0.3229 0.4698 -0.8216
vn -0.5911 0.0610 -0.8043
vn -0.5199 0.0864 -0.8499
vn -0.4530 0.0924 -0.8867
vn -0.8161 0.5377 -0.2118
vn -0.9495 0.2646 -0.1688
vn -0.9561 0.2054 -0.2091
vn -0.8657 0.3907 -0.3127
vn -0.9534 0.0409 -0.2988
vt 0.000000 0.000000
s 0
f 1049/267/683 1050/267/683 1046/267/683 1042/267/683
f 1050/267/684 1051/267/684 1043/267/684 1046/267/684
f 1051/267/685 1052/267/685 1047/267/685 1043/267/685
f 1052/267/686 1053/267/686 1048/267/686 1047/267/686
f 1053/267/687 1045/267/687 1044/267/687 1048/267/687
f 1041/267/688 1040/267/688 1050/267/688 1049/267/688
f 1040/267/689 1039/267/689 1051/267/689 1050/267/689
f 1039/267/690 1038/267/690 1052/267/690 1051/267/690
f 1038/267/691 1037/267/691 1053/267/691 1052/267/691
f 1037/267/692 1036/267/692 1045/267/692 1053/267/692
f 1067/267/693 1060/267/693 1064/267/693 1068/267/693
f 1068/267/694 1064/267/694 1061/267/694 1069/267/694
f 1069/267/695 1061/267/695 1065/267/695 1070/267/695
f 1070/267/696 1065/267/696 1066/267/696 1071/267/696
f 1071/267/697 1066/267/697 1062/267/697 1063/267/697
f 1059/267/698 1067/267/698 1068/267/698 1058/267/698
f 1058/267/699 1068/267/699 1069/267/699 1057/267/699
f 1057/267/700 1069/267/700 1070/267/700 1056/267/700
f 1056/267/701 1070/267/701 1071/267/701 1055/267/701
f 1055/267/702 1071/267/702 1063/267/702 1054/267/702
