# Blender 5.2.0 LTS
# www.blender.org
mtllib sample.mtl
o ボディ
v 0.000000 0.400000 1.000000
v 1.000000 0.400000 1.000000
v 0.000000 0.400000 -1.000000
v 1.000000 0.400000 -1.000000
v 0.000000 1.000000 1.000000
v 1.000000 1.000000 1.000000
v 0.000000 1.000000 2.100000
v 1.000000 1.000000 2.100000
v 0.000000 0.400000 2.100000
v 1.000000 0.400000 2.100000
v 0.000000 0.400000 2.400000
v 1.000000 0.400000 2.400000
v 0.000000 1.300000 2.400000
v 1.000000 1.300000 2.400000
v 0.000000 1.300000 1.500000
v 0.933388 1.354204 1.461282
v 0.000000 2.000000 1.000000
v 0.933388 1.945796 1.038717
v 0.000000 2.000000 -1.000000
v 0.949007 1.958506 -1.029639
v 0.000000 1.300000 -1.500000
v 0.949007 1.341494 -1.470361
v 0.000000 1.300000 -2.500000
v 1.000000 1.300000 -2.500000
v 0.000000 0.400000 -2.500000
v 1.000000 0.400000 -2.500000
v 0.000000 0.400000 -2.500000
v 1.000000 0.400000 -2.500000
v 0.000000 0.400000 -2.100000
v 1.000000 0.400000 -2.100000
v 0.000000 1.000000 -2.100000
v 1.000000 1.000000 -2.100000
v 0.000000 1.000000 -1.000000
v 1.000000 1.000000 -1.000000
v 1.000000 1.300000 1.500000
v 0.000000 1.354204 1.461282
v 1.000000 2.000000 1.000000
v 0.000000 1.945796 1.038717
v 1.000000 2.000000 -1.000000
v 0.000000 1.958506 -1.029639
v 1.000000 1.300000 -1.500000
v 0.000000 1.341494 -1.470361
v -1.000000 0.400000 1.000000
v -1.000000 0.400000 -1.000000
v -1.000000 1.000000 1.000000
v -1.000000 1.000000 2.100000
v -1.000000 0.400000 2.100000
v -1.000000 0.400000 2.400000
v -1.000000 1.300000 2.400000
v -0.933388 1.354204 1.461282
v -0.933388 1.945796 1.038717
v -0.949007 1.958506 -1.029639
v -0.949007 1.341494 -1.470361
v -1.000000 1.300000 -2.500000
v -1.000000 0.400000 -2.500000
v -1.000000 0.400000 -2.500000
v -1.000000 0.400000 -2.100000
v -1.000000 1.000000 -2.100000
v -1.000000 1.000000 -1.000000
v -1.000000 1.300000 1.500000
v -1.000000 2.000000 1.000000
v -1.000000 2.000000 -1.000000
v -1.000000 1.300000 -1.500000
vn -0.0000 -1.0000 -0.0000
vn -0.0000 -0.0000 1.0000
vn -0.0000 -0.0000 -1.0000
vn -0.0000 1.0000 -0.0000
vn 1.0000 -0.0000 -0.0000
vn -0.0000 0.5812 0.8137
vn -0.0000 0.5812 -0.8137
vn -1.0000 -0.0000 -0.0000
vt 0.356040 0.351094
vt 0.356040 0.082930
vt 0.490122 0.082930
vt 0.490122 0.351094
vt 0.490122 0.431543
vt 0.356040 0.431543
vt 0.490122 0.579033
vt 0.356040 0.579033
vt 0.490122 0.659482
vt 0.356040 0.659482
vt 0.490122 0.699707
vt 0.356040 0.699707
vt 0.136557 0.002481
vt 0.136557 0.123149
vt 0.002481 0.123149
vt 0.002481 0.002481
vt 0.136557 0.243817
vt 0.002481 0.243817
vt 0.136557 0.359154
vt 0.136557 0.627305
vt 0.002481 0.627305
vt 0.002481 0.359154
vt 0.136557 0.742641
vt 0.136557 0.876717
vt 0.002482 0.876717
vt 0.002481 0.742642
vt 0.136557 0.997385
vt 0.002482 0.997385
vt 0.136557 0.997519
vt 0.002482 0.997519
vt 0.629165 0.002481
vt 0.629165 0.056114
vt 0.495084 0.056114
vt 0.495084 0.002481
vt 0.629165 0.136563
vt 0.495084 0.136563
vt 0.629165 0.284053
vt 0.495084 0.284053
vt 0.490122 0.002481
vt 0.356040 0.002481
vt 0.351078 0.359154
vt 0.351078 0.627305
vt 0.270632 0.627305
vt 0.270632 0.774789
vt 0.351078 0.774789
vt 0.351078 0.828419
vt 0.230410 0.828419
vt 0.230410 0.694343
vt 0.230410 0.292116
vt 0.230410 0.171448
vt 0.351078 0.171448
vt 0.351078 0.211671
vt 0.270632 0.211671
vt 0.270632 0.359154
vt 0.002481 0.252748
vt 0.127626 0.252748
vt 0.127626 0.350223
vt 0.002481 0.350223
vt 0.002481 0.634142
vt 0.129720 0.634142
vt 0.129720 0.735804
vt 0.002481 0.735805
s 0
usemtl マテリアル
f 1/1/1 3/2/1 4/3/1 2/4/1
f 2/4/2 6/5/2 5/6/2 1/1/2
f 6/5/1 8/7/1 7/8/1 5/6/1
f 8/7/3 10/9/3 9/10/3 7/8/3
f 10/9/1 12/11/1 11/12/1 9/10/1
f 12/13/2 14/14/2 13/15/2 11/16/2
f 14/14/4 35/17/4 15/18/4 13/15/4
f 37/19/4 39/20/4 19/21/4 17/22/4
f 41/23/4 24/24/4 23/25/4 21/26/4
f 24/24/3 26/27/3 25/28/3 23/25/3
f 26/27/4 28/29/4 27/30/4 25/28/4
f 28/31/1 30/32/1 29/33/1 27/34/1
f 30/32/2 32/35/2 31/36/2 29/33/2
f 32/35/1 34/37/1 33/38/1 31/36/1
f 34/39/3 4/3/3 3/2/3 33/40/3
f 2/41/5 4/42/5 34/43/5 32/44/5 30/45/5 28/46/5 24/47/5 41/48/5 39/20/5 37/19/5 35/49/5 14/50/5 12/51/5 10/52/5 8/53/5 6/54/5
f 36/55/6 15/18/6 35/17/6 16/56/6
f 18/57/6 37/19/6 17/22/6 38/58/6
f 16/56/6 35/17/6 37/19/6 18/57/6
f 40/59/7 19/21/7 39/20/7 20/60/7
f 22/61/7 41/23/7 21/26/7 42/62/7
f 20/60/7 39/20/7 41/23/7 22/61/7
f 1/1/1 43/4/1 44/3/1 3/2/1
f 43/4/2 1/1/2 5/6/2 45/5/2
f 45/5/1 5/6/1 7/8/1 46/7/1
f 46/7/3 7/8/3 9/10/3 47/9/3
f 47/9/1 9/10/1 11/12/1 48/11/1
f 48/13/2 11/16/2 13/15/2 49/14/2
f 49/14/4 13/15/4 15/18/4 60/17/4
f 61/19/4 17/22/4 19/21/4 62/20/4
f 63/23/4 21/26/4 23/25/4 54/24/4
f 54/24/3 23/25/3 25/28/3 55/27/3
f 55/27/4 25/28/4 27/30/4 56/29/4
f 56/31/1 27/34/1 29/33/1 57/32/1
f 57/32/2 29/33/2 31/36/2 58/35/2
f 58/35/1 31/36/1 33/38/1 59/37/1
f 59/39/3 33/40/3 3/2/3 44/3/3
f 43/41/8 45/54/8 46/53/8 47/52/8 48/51/8 49/50/8 60/49/8 61/19/8 62/20/8 63/48/8 54/47/8 56/46/8 57/45/8 58/44/8 59/43/8 44/42/8
f 36/55/6 50/56/6 60/17/6 15/18/6
f 51/57/6 38/58/6 17/22/6 61/19/6
f 50/56/6 51/57/6 61/19/6 60/17/6
f 40/59/7 52/60/7 62/20/7 19/21/7
f 53/61/7 42/62/7 21/26/7 63/23/7
f 52/60/7 53/61/7 63/23/7 62/20/7
o light_head
v 0.702222 1.098298 2.400000
v 0.402222 1.098298 2.400000
v 0.402222 0.898298 2.400000
v 0.702222 0.898298 2.400000
v 0.702222 1.098298 2.500000
v 0.402222 1.098298 2.500000
v 0.402222 0.898298 2.500000
v 0.702222 0.898298 2.500000
v -0.702222 1.098298 2.400000
v -0.402222 1.098298 2.400000
v -0.402222 0.898298 2.400000
v -0.702222 0.898298 2.400000
v -0.702222 1.098298 2.500000
v -0.402222 1.098298 2.500000
v -0.402222 0.898298 2.500000
v -0.702222 0.898298 2.500000
vn -0.0000 -1.0000 -0.0000
vn -0.0000 1.0000 -0.0000
vn -1.0000 -0.0000 -0.0000
vn -0.0000 -0.0000 1.0000
vn 1.0000 -0.0000 -0.0000
vt 0.495084 0.472361
vt 0.495084 0.438104
vt 0.506503 0.438104
vt 0.506503 0.472361
vt 0.540760 0.438104
vt 0.540760 0.472361
vt 0.529341 0.472361
vt 0.529341 0.438104
vt 0.529341 0.483781
vt 0.506503 0.483781
vt 0.529341 0.426684
vt 0.506503 0.426684
s 0
usemtl マテリアル.001
f 66/63/9 67/64/9 71/65/9 70/66/9
f 64/67/10 65/68/10 69/69/10 68/70/10
f 65/71/11 66/72/11 70/66/11 69/69/11
f 68/70/12 69/69/12 70/66/12 71/65/12
f 64/73/13 68/70/13 71/65/13 67/74/13
f 74/63/9 78/66/9 79/65/9 75/64/9
f 72/67/10 76/70/10 77/69/10 73/68/10
f 73/71/13 77/69/13 78/66/13 74/72/13
f 76/70/12 79/65/12 78/66/12 77/69/12
f 72/73/11 75/74/11 79/65/11 76/70/11
o light_tail
v 0.700000 1.100000 -2.500000
v 0.300000 1.100000 -2.600000
v 0.300000 1.000000 -2.600000
v 0.700000 1.000000 -2.600000
v 0.700000 1.100000 -2.600000
v 0.700000 1.000000 -2.500000
v 0.300000 1.000000 -2.500000
v 0.300000 1.100000 -2.500000
v -0.700000 1.100000 -2.500000
v -0.300000 1.100000 -2.600000
v -0.300000 1.000000 -2.600000
v -0.700000 1.000000 -2.600000
v -0.700000 1.100000 -2.600000
v -0.700000 1.000000 -2.500000
v -0.300000 1.000000 -2.500000
v -0.300000 1.100000 -2.500000
vn -0.0000 -0.0000 -1.0000
vn -1.0000 -0.0000 -0.0000
vn 1.0000 -0.0000 -0.0000
vn -0.0000 -1.0000 -0.0000
vn -0.0000 1.0000 -0.0000
vt 0.505818 0.299749
vt 0.516551 0.299749
vt 0.516551 0.342684
vt 0.505818 0.342684
vt 0.505818 0.353418
vt 0.516551 0.353418
vt 0.516551 0.289015
vt 0.505818 0.289015
vt 0.527285 0.342684
vt 0.527285 0.299749
vt 0.495084 0.299749
vt 0.495084 0.342684
s 0
usemtl マテリアル.002
f 84/75/14 83/76/14 82/77/14 81/78/14
f 87/79/15 81/78/15 82/77/15 86/80/15
f 85/81/16 83/76/16 84/75/16 80/82/16
f 86/83/17 82/77/17 83/76/17 85/84/17
f 80/85/18 84/75/18 81/78/18 87/86/18
f 92/75/14 89/78/14 90/77/14 91/76/14
f 95/79/16 94/80/16 90/77/16 89/78/16
f 93/81/15 88/82/15 92/75/15 91/76/15
f 94/83/17 93/84/17 91/76/17 90/77/17
f 88/85/18 95/86/18 89/78/18 92/75/18
o light_reverse
v 0.800000 0.800000 -2.500000
v 0.600000 0.800000 -2.500000
v 0.600000 0.700000 -2.500000
v 0.800000 0.700000 -2.500000
v 0.800000 0.800000 -2.600000
v 0.600000 0.800000 -2.600000
v 0.600000 0.700000 -2.600000
v 0.800000 0.700000 -2.600000
v -0.800000 0.800000 -2.500000
v -0.600000 0.800000 -2.500000
v -0.600000 0.700000 -2.500000
v -0.800000 0.700000 -2.500000
v -0.800000 0.800000 -2.600000
v -0.600000 0.800000 -2.600000
v -0.600000 0.700000 -2.600000
v -0.800000 0.700000 -2.600000
vn -1.0000 -0.0000 -0.0000
vn 1.0000 -0.0000 -0.0000
vn -0.0000 -1.0000 -0.0000
vn -0.0000 1.0000 -0.0000
vn -0.0000 -0.0000 -1.0000
vt 0.510919 0.421723
vt 0.510919 0.405887
vt 0.526755 0.405887
vt 0.526755 0.421723
vt 0.526755 0.358380
vt 0.526755 0.374216
vt 0.510919 0.374216
vt 0.510919 0.358380
vt 0.542590 0.405887
vt 0.542590 0.374216
vt 0.495084 0.374216
vt 0.495084 0.405887
s 0
usemtl マテリアル.003
f 97/87/19 101/88/19 102/89/19 98/90/19
f 99/91/20 103/92/20 100/93/20 96/94/20
f 98/95/21 102/89/21 103/92/21 99/96/21
f 96/97/22 100/93/22 101/88/22 97/98/22
f 100/93/23 103/92/23 102/89/23 101/88/23
f 105/87/20 106/90/20 110/89/20 109/88/20
f 107/91/19 104/94/19 108/93/19 111/92/19
f 106/95/21 107/96/21 111/92/21 110/89/21
f 104/97/22 105/98/22 109/88/22 108/93/22
f 108/93/23 109/88/23 110/89/23 111/92/23
