# Blender 5.2.0 LTS
# www.blender.org
mtllib wheel.mtl
o 円柱
v 0.188357 0.000000 -0.327995
v 0.188357 -0.101356 -0.311942
v 0.188357 -0.192790 -0.265353
v 0.188357 -0.265353 -0.192790
v 0.188357 -0.311942 -0.101356
v 0.188357 -0.327995 0.000000
v 0.188357 -0.311942 0.101356
v 0.188357 -0.265353 0.192790
v 0.188357 -0.192790 0.265353
v 0.188357 -0.101356 0.311942
v 0.188357 0.000000 0.327995
v 0.188357 0.101356 0.311942
v 0.188357 0.192790 0.265353
v 0.188357 0.265353 0.192790
v 0.188357 0.311942 0.101356
v 0.188357 0.327995 0.000000
v 0.188357 0.311942 -0.101356
v 0.188357 0.265353 -0.192790
v 0.188357 0.192790 -0.265353
v 0.188357 0.101356 -0.311942
v -0.000836 0.000000 -0.445482
v -0.000836 -0.137662 -0.423679
v -0.000836 -0.261848 -0.360403
v -0.000836 -0.360403 -0.261848
v -0.000836 -0.423679 -0.137662
v -0.000836 -0.445482 0.000000
v -0.000836 -0.423679 0.137662
v -0.000836 -0.360403 0.261848
v -0.000836 -0.261848 0.360403
v -0.000836 -0.137662 0.423679
v -0.000836 0.000000 0.445482
v -0.000836 0.137662 0.423679
v -0.000836 0.261848 0.360403
v -0.000836 0.360403 0.261848
v -0.000836 0.423679 0.137662
v -0.000836 0.445482 0.000000
v -0.000836 0.423679 -0.137662
v -0.000836 0.360403 -0.261848
v -0.000836 0.261848 -0.360403
v -0.000836 0.137662 -0.423679
v 0.143809 -0.137662 -0.423679
v 0.143809 -0.261848 -0.360403
v 0.143809 0.000000 -0.445482
v 0.143809 -0.360403 -0.261848
v 0.143809 -0.423679 -0.137662
v 0.143809 -0.423679 0.137662
v 0.143809 -0.445482 0.000000
v 0.143809 -0.360403 0.261848
v 0.143809 -0.261848 0.360403
v 0.143809 -0.137662 0.423679
v 0.143809 0.137662 0.423679
v 0.143809 0.000000 0.445482
v 0.143809 0.261848 0.360403
v 0.143809 0.360403 0.261848
v 0.143809 0.423679 0.137662
v 0.143809 0.423679 -0.137662
v 0.143809 0.445482 0.000000
v 0.143809 0.360403 -0.261848
v 0.143809 0.261848 -0.360403
v 0.143809 0.137662 -0.423679
v 0.188357 -0.131196 -0.403781
v 0.188357 0.000000 -0.424560
v 0.188357 -0.249550 -0.343476
v 0.188357 -0.343476 -0.249550
v 0.188357 -0.403781 -0.131196
v 0.188357 -0.424560 0.000000
v 0.188357 -0.403781 0.131196
v 0.188357 -0.343476 0.249550
v 0.188357 -0.249550 0.343476
v 0.188357 -0.131196 0.403781
v 0.188357 0.000000 0.424560
v 0.188357 0.131196 0.403781
v 0.188357 0.249550 0.343476
v 0.188357 0.343476 0.249550
v 0.188357 0.403781 0.131196
v 0.188357 0.424560 0.000000
v 0.188357 0.403781 -0.131196
v 0.188357 0.343476 -0.249550
v 0.188357 0.249550 -0.343476
v 0.188357 0.131196 -0.403781
v 0.188357 -0.124539 -0.383292
v 0.188357 0.000000 -0.403017
v 0.188357 -0.236887 -0.326047
v 0.188357 -0.326047 -0.236887
v 0.188357 -0.383292 -0.124539
v 0.188357 -0.403017 0.000000
v 0.188357 -0.383292 0.124539
v 0.188357 -0.326047 0.236887
v 0.188357 -0.236887 0.326047
v 0.188357 -0.124539 0.383292
v 0.188357 0.000000 0.403017
v 0.188357 0.124539 0.383292
v 0.188357 0.236887 0.326047
v 0.188357 0.326047 0.236887
v 0.188357 0.383292 0.124539
v 0.188357 0.403017 0.000000
v 0.188357 0.383292 -0.124539
v 0.188357 0.326047 -0.236887
v 0.188357 0.236887 -0.326047
v 0.188357 0.124539 -0.383292
v -0.000836 -0.101356 -0.311942
v -0.000836 -0.000000 -0.327995
v -0.000836 -0.192790 -0.265353
v -0.000836 -0.265353 -0.192790
v -0.000836 -0.311942 -0.101356
v -0.000836 -0.327995 0.000000
v -0.000836 -0.311942 0.101356
v -0.000836 -0.265353 0.192790
v -0.000836 -0.192790 0.265353
v -0.000836 -0.101356 0.311942
v -0.000836 -0.000000 0.327995
v -0.000836 0.101356 0.311942
v -0.000836 0.192790 0.265353
v -0.000836 0.265353 0.192790
v -0.000836 0.311941 0.101356
v -0.000836 0.327995 0.000000
v -0.000836 0.311941 -0.101356
v -0.000836 0.265353 -0.192790
v -0.000836 0.192790 -0.265353
v -0.000836 0.101356 -0.311942
v -0.190028 0.000000 -0.327995
v -0.190028 -0.101356 -0.311942
v -0.190028 -0.192790 -0.265353
v -0.190028 -0.265353 -0.192790
v -0.190028 -0.311942 -0.101356
v -0.190028 -0.327995 0.000000
v -0.190028 -0.311942 0.101356
v -0.190028 -0.265353 0.192790
v -0.190028 -0.192790 0.265353
v -0.190028 -0.101356 0.311942
v -0.190028 0.000000 0.327995
v -0.190028 0.101356 0.311942
v -0.190028 0.192790 0.265353
v -0.190028 0.265353 0.192790
v -0.190028 0.311942 0.101356
v -0.190028 0.327995 0.000000
v -0.190028 0.311942 -0.101356
v -0.190028 0.265353 -0.192790
v -0.190028 0.192790 -0.265353
v -0.190028 0.101356 -0.311942
v -0.145480 -0.137662 -0.423679
v -0.145480 -0.261848 -0.360403
v -0.145480 0.000000 -0.445482
v -0.145480 -0.360403 -0.261848
v -0.145480 -0.423679 -0.137662
v -0.145480 -0.423679 0.137662
v -0.145480 -0.445482 0.000000
v -0.145480 -0.360403 0.261848
v -0.145480 -0.261848 0.360403
v -0.145480 -0.137662 0.423679
v -0.145480 0.137662 0.423679
v -0.145480 0.000000 0.445482
v -0.145480 0.261848 0.360403
v -0.145480 0.360403 0.261848
v -0.145480 0.423679 0.137662
v -0.145480 0.423679 -0.137662
v -0.145480 0.445482 0.000000
v -0.145480 0.360403 -0.261848
v -0.145480 0.261848 -0.360403
v -0.145480 0.137662 -0.423679
v -0.190028 -0.131196 -0.403781
v -0.190028 0.000000 -0.424560
v -0.190028 -0.249550 -0.343476
v -0.190028 -0.343476 -0.249550
v -0.190028 -0.403781 -0.131196
v -0.190028 -0.424560 0.000000
v -0.190028 -0.403781 0.131196
v -0.190028 -0.343476 0.249550
v -0.190028 -0.249550 0.343476
v -0.190028 -0.131196 0.403781
v -0.190028 0.000000 0.424560
v -0.190028 0.131196 0.403781
v -0.190028 0.249550 0.343476
v -0.190028 0.343476 0.249550
v -0.190028 0.403781 0.131196
v -0.190028 0.424560 0.000000
v -0.190028 0.403781 -0.131196
v -0.190028 0.343476 -0.249550
v -0.190028 0.249550 -0.343476
v -0.190028 0.131196 -0.403781
v -0.190028 -0.124539 -0.383292
v -0.190028 0.000000 -0.403017
v -0.190028 -0.236887 -0.326047
v -0.190028 -0.326047 -0.236887
v -0.190028 -0.383292 -0.124539
v -0.190028 -0.403017 0.000000
v -0.190028 -0.383292 0.124539
v -0.190028 -0.326047 0.236887
v -0.190028 -0.236887 0.326047
v -0.190028 -0.124539 0.383292
v -0.190028 0.000000 0.403017
v -0.190028 0.124539 0.383292
v -0.190028 0.236887 0.326047
v -0.190028 0.326047 0.236887
v -0.190028 0.383292 0.124539
v -0.190028 0.403017 0.000000
v -0.190028 0.383292 -0.124539
v -0.190028 0.326047 -0.236887
v -0.190028 0.236887 -0.326047
v -0.190028 0.124539 -0.383292
vn -0.0000 -0.1564 -0.9877
vn -0.0000 -0.4540 -0.8910
vn -0.0000 -0.7071 -0.7071
vn -0.0000 -0.8910 -0.4540
vn -0.0000 -0.9877 -0.1564
vn -0.0000 -0.9877 0.1564
vn -0.0000 -0.8910 0.4540
vn -0.0000 -0.7071 0.7071
vn -0.0000 -0.4540 0.8910
vn -0.0000 -0.1564 0.9877
vn -0.0000 0.1564 0.9877
vn -0.0000 0.4540 0.8910
vn -0.0000 0.7071 0.7071
vn -0.0000 0.8910 0.4540
vn -0.0000 0.9877 0.1564
vn -0.0000 0.9877 -0.1564
vn -0.0000 0.8910 -0.4540
vn -0.0000 0.7071 -0.7071
vn -0.0000 0.4540 -0.8910
vn -0.0000 0.1564 -0.9877
vn 0.4208 -0.1419 -0.8960
vn 0.4208 -0.4118 -0.8083
vn 0.4208 -0.6415 -0.6415
vn 0.4208 -0.8083 -0.4118
vn 0.4208 -0.8960 -0.1419
vn 0.4208 -0.8960 0.1419
vn 0.4208 -0.8083 0.4118
vn 0.4208 -0.6415 0.6415
vn 0.4208 -0.4118 0.8083
vn 0.4208 -0.1419 0.8960
vn 0.4208 0.1419 0.8960
vn 0.4208 0.4118 0.8083
vn 0.4208 0.6415 0.6415
vn 0.4208 0.8083 0.4118
vn 0.4208 0.8960 0.1419
vn 0.4208 0.8960 -0.1419
vn 0.4208 0.8083 -0.4118
vn 0.4208 0.6415 -0.6415
vn 0.4208 0.4118 -0.8083
vn 0.4208 0.1419 -0.8960
vn 1.0000 -0.0000 -0.0000
vn -0.4208 -0.1419 -0.8960
vn -0.4208 -0.4118 -0.8083
vn -0.4208 -0.6415 -0.6415
vn -0.4208 -0.8083 -0.4118
vn -0.4208 -0.8960 -0.1419
vn -0.4208 -0.8960 0.1419
vn -0.4208 -0.8083 0.4118
vn -0.4208 -0.6415 0.6415
vn -0.4208 -0.4118 0.8083
vn -0.4208 -0.1419 0.8960
vn -0.4208 0.1419 0.8960
vn -0.4208 0.4118 0.8083
vn -0.4208 0.6415 0.6415
vn -0.4208 0.8083 0.4118
vn -0.4208 0.8960 0.1419
vn -0.4208 0.8960 -0.1419
vn -0.4208 0.8083 -0.4118
vn -0.4208 0.6415 -0.6415
vn -0.4208 0.4118 -0.8083
vn -0.4208 0.1419 -0.8960
vn -1.0000 -0.0000 -0.0000
vt 1.000000 0.750000
vt 1.000000 1.000000
vt 0.950000 1.000000
vt 0.950000 0.750000
vt 0.900000 1.000000
vt 0.900000 0.750000
vt 0.850000 1.000000
vt 0.850000 0.750000
vt 0.800000 1.000000
vt 0.800000 0.750000
vt 0.750000 1.000000
vt 0.750000 0.750000
vt 0.700000 1.000000
vt 0.700000 0.750000
vt 0.650000 1.000000
vt 0.650000 0.750000
vt 0.600000 1.000000
vt 0.600000 0.750000
vt 0.550000 1.000000
vt 0.550000 0.750000
vt 0.500000 1.000000
vt 0.500000 0.750000
vt 0.450000 1.000000
vt 0.450000 0.750000
vt 0.400000 1.000000
vt 0.400000 0.750000
vt 0.350000 1.000000
vt 0.350000 0.750000
vt 0.300000 1.000000
vt 0.300000 0.750000
vt 0.250000 1.000000
vt 0.250000 0.750000
vt 0.200000 1.000000
vt 0.200000 0.750000
vt 0.150000 1.000000
vt 0.150000 0.750000
vt 0.100000 1.000000
vt 0.100000 0.750000
vt 0.146136 0.392957
vt 0.107043 0.353864
vt 0.050000 1.000000
vt 0.050000 0.750000
vt -0.000000 1.000000
vt -0.000000 0.750000
vt 0.250000 0.478729
vt 0.320681 0.467534
vt 0.324164 0.478254
vt 0.250000 0.490000
vt 0.384443 0.435045
vt 0.391068 0.444164
vt 0.435045 0.384443
vt 0.444164 0.391068
vt 0.467534 0.320681
vt 0.478254 0.324164
vt 0.478728 0.250000
vt 0.490000 0.250000
vt 0.467534 0.179319
vt 0.478254 0.175836
vt 0.435045 0.115557
vt 0.444164 0.108932
vt 0.384443 0.064955
vt 0.391068 0.055836
vt 0.320681 0.032466
vt 0.324164 0.021746
vt 0.250000 0.021272
vt 0.250000 0.010000
vt 0.179319 0.032466
vt 0.175836 0.021746
vt 0.115557 0.064955
vt 0.108932 0.055836
vt 0.064955 0.115557
vt 0.055836 0.108932
vt 0.032466 0.179319
vt 0.021746 0.175836
vt 0.021272 0.250000
vt 0.010000 0.250000
vt 0.032466 0.320681
vt 0.021746 0.324164
vt 0.064955 0.384443
vt 0.055836 0.391068
vt 0.115557 0.435045
vt 0.108932 0.444164
vt 0.179319 0.467534
vt 0.175836 0.478254
vt 0.250000 0.467122
vt 0.317094 0.456495
vt 0.377621 0.425655
vt 0.425656 0.377621
vt 0.456495 0.317094
vt 0.467122 0.250000
vt 0.456495 0.182906
vt 0.425655 0.122379
vt 0.377621 0.074345
vt 0.317094 0.043505
vt 0.250000 0.032878
vt 0.182906 0.043505
vt 0.122379 0.074345
vt 0.074345 0.122379
vt 0.043505 0.182906
vt 0.032878 0.250000
vt 0.043505 0.317094
vt 0.074345 0.377621
vt 0.122379 0.425656
vt 0.182906 0.456495
vt 0.250000 0.426704
vt 0.304605 0.418056
vt 0.353864 0.392957
vt 0.392957 0.353864
vt 0.418056 0.304605
vt 0.426704 0.250000
vt 0.418056 0.195395
vt 0.392957 0.146136
vt 0.353864 0.107043
vt 0.304605 0.081944
vt 0.250000 0.073295
vt 0.195395 0.081944
vt 0.146136 0.107043
vt 0.107043 0.146136
vt 0.081944 0.195395
vt 0.073295 0.250000
vt 0.081944 0.304605
vt 0.195395 0.418056
s 0
f 21/1/1 43/2/1 41/3/1 22/4/1
f 22/4/2 41/3/2 42/5/2 23/6/2
f 23/6/3 42/5/3 44/7/3 24/8/3
f 24/8/4 44/7/4 45/9/4 25/10/4
f 25/10/5 45/9/5 47/11/5 26/12/5
f 26/12/6 47/11/6 46/13/6 27/14/6
f 27/14/7 46/13/7 48/15/7 28/16/7
f 28/16/8 48/15/8 49/17/8 29/18/8
f 29/18/9 49/17/9 50/19/9 30/20/9
f 30/20/10 50/19/10 52/21/10 31/22/10
f 31/22/11 52/21/11 51/23/11 32/24/11
f 32/24/12 51/23/12 53/25/12 33/26/12
f 33/26/13 53/25/13 54/27/13 34/28/13
f 34/28/14 54/27/14 55/29/14 35/30/14
f 35/30/15 55/29/15 57/31/15 36/32/15
f 36/32/16 57/31/16 56/33/16 37/34/16
f 37/34/17 56/33/17 58/35/17 38/36/17
f 38/36/18 58/35/18 59/37/18 39/38/18
f 19/39/8 18/40/8 118/40/8 119/39/8
f 39/38/19 59/37/19 60/41/19 40/42/19
f 40/42/20 60/41/20 43/43/20 21/44/20
f 62/45/21 61/46/21 41/47/21 43/48/21
f 61/46/22 63/49/22 42/50/22 41/47/22
f 63/49/23 64/51/23 44/52/23 42/50/23
f 64/51/24 65/53/24 45/54/24 44/52/24
f 65/53/25 66/55/25 47/56/25 45/54/25
f 66/55/26 67/57/26 46/58/26 47/56/26
f 67/57/27 68/59/27 48/60/27 46/58/27
f 68/59/28 69/61/28 49/62/28 48/60/28
f 69/61/29 70/63/29 50/64/29 49/62/29
f 70/63/30 71/65/30 52/66/30 50/64/30
f 71/65/31 72/67/31 51/68/31 52/66/31
f 72/67/32 73/69/32 53/70/32 51/68/32
f 73/69/33 74/71/33 54/72/33 53/70/33
f 74/71/34 75/73/34 55/74/34 54/72/34
f 75/73/35 76/75/35 57/76/35 55/74/35
f 76/75/36 77/77/36 56/78/36 57/76/36
f 77/77/37 78/79/37 58/80/37 56/78/37
f 78/79/38 79/81/38 59/82/38 58/80/38
f 79/81/39 80/83/39 60/84/39 59/82/39
f 80/83/40 62/45/40 43/48/40 60/84/40
f 82/85/41 81/86/41 61/46/41 62/45/41
f 81/86/41 83/87/41 63/49/41 61/46/41
f 83/87/41 84/88/41 64/51/41 63/49/41
f 84/88/41 85/89/41 65/53/41 64/51/41
f 85/89/41 86/90/41 66/55/41 65/53/41
f 86/90/41 87/91/41 67/57/41 66/55/41
f 87/91/41 88/92/41 68/59/41 67/57/41
f 88/92/41 89/93/41 69/61/41 68/59/41
f 89/93/41 90/94/41 70/63/41 69/61/41
f 90/94/41 91/95/41 71/65/41 70/63/41
f 91/95/41 92/96/41 72/67/41 71/65/41
f 92/96/41 93/97/41 73/69/41 72/67/41
f 93/97/41 94/98/41 74/71/41 73/69/41
f 94/98/41 95/99/41 75/73/41 74/71/41
f 95/99/41 96/100/41 76/75/41 75/73/41
f 96/100/41 97/101/41 77/77/41 76/75/41
f 97/101/41 98/102/41 78/79/41 77/77/41
f 98/102/41 99/103/41 79/81/41 78/79/41
f 99/103/41 100/104/41 80/83/41 79/81/41
f 100/104/41 82/85/41 62/45/41 80/83/41
f 1/105/41 2/106/41 81/86/41 82/85/41
f 2/106/41 3/107/41 83/87/41 81/86/41
f 3/107/41 4/108/41 84/88/41 83/87/41
f 4/108/41 5/109/41 85/89/41 84/88/41
f 5/109/41 6/110/41 86/90/41 85/89/41
f 6/110/41 7/111/41 87/91/41 86/90/41
f 7/111/41 8/112/41 88/92/41 87/91/41
f 8/112/41 9/113/41 89/93/41 88/92/41
f 9/113/41 10/114/41 90/94/41 89/93/41
f 10/114/41 11/115/41 91/95/41 90/94/41
f 11/115/41 12/116/41 92/96/41 91/95/41
f 12/116/41 13/117/41 93/97/41 92/96/41
f 13/117/41 14/118/41 94/98/41 93/97/41
f 14/118/41 15/119/41 95/99/41 94/98/41
f 15/119/41 16/120/41 96/100/41 95/99/41
f 16/120/41 17/121/41 97/101/41 96/100/41
f 17/121/41 18/40/41 98/102/41 97/101/41
f 18/40/41 19/39/41 99/103/41 98/102/41
f 19/39/41 20/122/41 100/104/41 99/103/41
f 20/122/41 1/105/41 82/85/41 100/104/41
f 12/116/1 11/115/1 111/115/1 112/116/1
f 5/109/14 4/108/14 104/108/14 105/109/14
f 20/122/9 19/39/9 119/39/9 120/122/9
f 13/117/2 12/116/2 112/116/2 113/117/2
f 6/110/15 5/109/15 105/109/15 106/110/15
f 1/105/10 20/122/10 120/122/10 102/105/10
f 14/118/3 13/117/3 113/117/3 114/118/3
f 7/111/16 6/110/16 106/110/16 107/111/16
f 15/119/4 14/118/4 114/118/4 115/119/4
f 8/112/17 7/111/17 107/111/17 108/112/17
f 16/120/5 15/119/5 115/119/5 116/120/5
f 9/113/18 8/112/18 108/112/18 109/113/18
f 2/106/11 1/105/11 102/105/11 101/106/11
f 17/121/6 16/120/6 116/120/6 117/121/6
f 10/114/19 9/113/19 109/113/19 110/114/19
f 3/107/12 2/106/12 101/106/12 103/107/12
f 18/40/7 17/121/7 117/121/7 118/40/7
f 11/115/20 10/114/20 110/114/20 111/115/20
f 4/108/13 3/107/13 103/107/13 104/108/13
f 21/1/1 22/4/1 141/3/1 143/2/1
f 22/4/2 23/6/2 142/5/2 141/3/2
f 23/6/3 24/8/3 144/7/3 142/5/3
f 24/8/4 25/10/4 145/9/4 144/7/4
f 25/10/5 26/12/5 147/11/5 145/9/5
f 26/12/6 27/14/6 146/13/6 147/11/6
f 27/14/7 28/16/7 148/15/7 146/13/7
f 28/16/8 29/18/8 149/17/8 148/15/8
f 29/18/9 30/20/9 150/19/9 149/17/9
f 30/20/10 31/22/10 152/21/10 150/19/10
f 31/22/11 32/24/11 151/23/11 152/21/11
f 32/24/12 33/26/12 153/25/12 151/23/12
f 33/26/13 34/28/13 154/27/13 153/25/13
f 34/28/14 35/30/14 155/29/14 154/27/14
f 35/30/15 36/32/15 157/31/15 155/29/15
f 36/32/16 37/34/16 156/33/16 157/31/16
f 37/34/17 38/36/17 158/35/17 156/33/17
f 38/36/18 39/38/18 159/37/18 158/35/18
f 139/39/8 119/39/8 118/40/8 138/40/8
f 39/38/19 40/42/19 160/41/19 159/37/19
f 40/42/20 21/44/20 143/43/20 160/41/20
f 162/45/42 143/48/42 141/47/42 161/46/42
f 161/46/43 141/47/43 142/50/43 163/49/43
f 163/49/44 142/50/44 144/52/44 164/51/44
f 164/51/45 144/52/45 145/54/45 165/53/45
f 165/53/46 145/54/46 147/56/46 166/55/46
f 166/55/47 147/56/47 146/58/47 167/57/47
f 167/57/48 146/58/48 148/60/48 168/59/48
f 168/59/49 148/60/49 149/62/49 169/61/49
f 169/61/50 149/62/50 150/64/50 170/63/50
f 170/63/51 150/64/51 152/66/51 171/65/51
f 171/65/52 152/66/52 151/68/52 172/67/52
f 172/67/53 151/68/53 153/70/53 173/69/53
f 173/69/54 153/70/54 154/72/54 174/71/54
f 174/71/55 154/72/55 155/74/55 175/73/55
f 175/73/56 155/74/56 157/76/56 176/75/56
f 176/75/57 157/76/57 156/78/57 177/77/57
f 177/77/58 156/78/58 158/80/58 178/79/58
f 178/79/59 158/80/59 159/82/59 179/81/59
f 179/81/60 159/82/60 160/84/60 180/83/60
f 180/83/61 160/84/61 143/48/61 162/45/61
f 182/85/62 162/45/62 161/46/62 181/86/62
f 181/86/62 161/46/62 163/49/62 183/87/62
f 183/87/62 163/49/62 164/51/62 184/88/62
f 184/88/62 164/51/62 165/53/62 185/89/62
f 185/89/62 165/53/62 166/55/62 186/90/62
f 186/90/62 166/55/62 167/57/62 187/91/62
f 187/91/62 167/57/62 168/59/62 188/92/62
f 188/92/62 168/59/62 169/61/62 189/93/62
f 189/93/62 169/61/62 170/63/62 190/94/62
f 190/94/62 170/63/62 171/65/62 191/95/62
f 191/95/62 171/65/62 172/67/62 192/96/62
f 192/96/62 172/67/62 173/69/62 193/97/62
f 193/97/62 173/69/62 174/71/62 194/98/62
f 194/98/62 174/71/62 175/73/62 195/99/62
f 195/99/62 175/73/62 176/75/62 196/100/62
f 196/100/62 176/75/62 177/77/62 197/101/62
f 197/101/62 177/77/62 178/79/62 198/102/62
f 198/102/62 178/79/62 179/81/62 199/103/62
f 199/103/62 179/81/62 180/83/62 200/104/62
f 200/104/62 180/83/62 162/45/62 182/85/62
f 121/105/62 182/85/62 181/86/62 122/106/62
f 122/106/62 181/86/62 183/87/62 123/107/62
f 123/107/62 183/87/62 184/88/62 124/108/62
f 124/108/62 184/88/62 185/89/62 125/109/62
f 125/109/62 185/89/62 186/90/62 126/110/62
f 126/110/62 186/90/62 187/91/62 127/111/62
f 127/111/62 187/91/62 188/92/62 128/112/62
f 128/112/62 188/92/62 189/93/62 129/113/62
f 129/113/62 189/93/62 190/94/62 130/114/62
f 130/114/62 190/94/62 191/95/62 131/115/62
f 131/115/62 191/95/62 192/96/62 132/116/62
f 132/116/62 192/96/62 193/97/62 133/117/62
f 133/117/62 193/97/62 194/98/62 134/118/62
f 134/118/62 194/98/62 195/99/62 135/119/62
f 135/119/62 195/99/62 196/100/62 136/120/62
f 136/120/62 196/100/62 197/101/62 137/121/62
f 137/121/62 197/101/62 198/102/62 138/40/62
f 138/40/62 198/102/62 199/103/62 139/39/62
f 139/39/62 199/103/62 200/104/62 140/122/62
f 140/122/62 200/104/62 182/85/62 121/105/62
f 132/116/1 112/116/1 111/115/1 131/115/1
f 125/109/14 105/109/14 104/108/14 124/108/14
f 140/122/9 120/122/9 119/39/9 139/39/9
f 133/117/2 113/117/2 112/116/2 132/116/2
f 126/110/15 106/110/15 105/109/15 125/109/15
f 121/105/10 102/105/10 120/122/10 140/122/10
f 134/118/3 114/118/3 113/117/3 133/117/3
f 127/111/16 107/111/16 106/110/16 126/110/16
f 135/119/4 115/119/4 114/118/4 134/118/4
f 128/112/17 108/112/17 107/111/17 127/111/17
f 136/120/5 116/120/5 115/119/5 135/119/5
f 129/113/18 109/113/18 108/112/18 128/112/18
f 122/106/11 101/106/11 102/105/11 121/105/11
f 137/121/6 117/121/6 116/120/6 136/120/6
f 130/114/19 110/114/19 109/113/19 129/113/19
f 123/107/12 103/107/12 101/106/12 122/106/12
f 138/40/7 118/40/7 117/121/7 137/121/7
f 131/115/20 111/115/20 110/114/20 130/114/20
f 124/108/13 104/108/13 103/107/13 123/107/13
o 円柱.001
v 0.178970 -0.101588 -0.312655
v 0.178970 0.000000 -0.328744
v 0.178970 -0.193231 -0.265960
v 0.178970 -0.265960 -0.193231
v 0.178970 -0.312655 -0.101588
v 0.178970 -0.328744 0.000000
v 0.178970 -0.312655 0.101588
v 0.178970 -0.265960 0.193231
v 0.178970 -0.193231 0.265960
v 0.178970 -0.101588 0.312655
v 0.178970 0.000000 0.328744
v 0.178970 0.101588 0.312655
v 0.178970 0.193231 0.265960
v 0.178970 0.265960 0.193231
v 0.178970 0.312655 0.101588
v 0.178970 0.328744 0.000000
v 0.178970 0.312655 -0.101588
v 0.178970 0.265960 -0.193231
v 0.178970 0.193231 -0.265960
v 0.178970 0.101588 -0.312655
v 0.178970 -0.094668 -0.291357
v 0.178970 0.000000 -0.306351
v 0.178970 -0.180069 -0.247843
v 0.178970 -0.247843 -0.180069
v 0.178970 -0.291357 -0.094668
v 0.178970 -0.306351 0.000000
v 0.178970 -0.291357 0.094668
v 0.178970 -0.247843 0.180069
v 0.178970 -0.180069 0.247843
v 0.178970 -0.094668 0.291357
v 0.178970 0.000000 0.306351
v 0.178970 0.094668 0.291357
v 0.178970 0.180069 0.247843
v 0.178970 0.247843 0.180069
v 0.178970 0.291357 0.094668
v 0.178970 0.306351 0.000000
v 0.178970 0.291357 -0.094668
v 0.178970 0.247843 -0.180069
v 0.178970 0.180069 -0.247843
v 0.178970 0.094668 -0.291357
v 0.134037 0.000000 -0.000000
v 0.134037 0.000000 -0.306351
v 0.134037 -0.180069 -0.247843
v 0.134037 -0.291357 -0.094668
v 0.134037 -0.291357 0.094668
v 0.134037 -0.180069 0.247843
v 0.134037 0.000000 0.306351
v 0.134037 0.180069 0.247843
v 0.134037 0.291357 0.094668
v 0.134037 0.291357 -0.094668
v 0.134037 0.180069 -0.247843
vn 0.8876 0.0127 -0.4605
vn 1.0000 -0.0000 -0.0000
vn 0.8876 0.4340 0.1544
vn 0.8876 -0.2604 -0.3800
vn 0.8876 -0.2810 0.3651
vn 0.8876 0.4419 -0.1302
vn 0.8876 -0.4340 -0.1544
vn 0.8876 -0.0127 0.4605
vn 0.8876 0.2810 -0.3651
vn 0.8876 -0.4419 0.1302
vn 0.8876 0.2604 0.3800
vt 0.077217 0.193860
vt 0.103022 0.143214
vt 0.250000 0.431675
vt 0.306141 0.422783
vt 0.310244 0.435413
vt 0.250000 0.444955
vt 0.356786 0.396978
vt 0.364591 0.407722
vt 0.396978 0.356786
vt 0.407721 0.364591
vt 0.422783 0.306141
vt 0.435413 0.310244
vt 0.431675 0.250000
vt 0.444954 0.250000
vt 0.422783 0.193859
vt 0.435413 0.189756
vt 0.396978 0.143214
vt 0.407722 0.135409
vt 0.356786 0.103022
vt 0.364591 0.092279
vt 0.306141 0.077217
vt 0.310244 0.064587
vt 0.250000 0.068326
vt 0.250000 0.055046
vt 0.193859 0.077217
vt 0.189756 0.064587
vt 0.143214 0.103022
vt 0.135409 0.092279
vt 0.092279 0.135409
vt 0.064587 0.189756
vt 0.068326 0.250000
vt 0.055046 0.250000
vt 0.077217 0.306141
vt 0.064587 0.310244
vt 0.103022 0.356786
vt 0.092279 0.364592
vt 0.143214 0.396978
vt 0.135409 0.407722
vt 0.193860 0.422783
vt 0.189756 0.435413
s 0
f 235/123/63 234/124/63 241/124/63 249/123/63
f 222/125/64 221/126/64 201/127/64 202/128/64
f 221/126/64 223/129/64 203/130/64 201/127/64
f 223/129/64 224/131/64 204/132/64 203/130/64
f 224/131/64 225/133/64 205/134/64 204/132/64
f 225/133/64 226/135/64 206/136/64 205/134/64
f 226/135/64 227/137/64 207/138/64 206/136/64
f 227/137/64 228/139/64 208/140/64 207/138/64
f 228/139/64 229/141/64 209/142/64 208/140/64
f 229/141/64 230/143/64 210/144/64 209/142/64
f 230/143/64 231/145/64 211/146/64 210/144/64
f 231/145/64 232/147/64 212/148/64 211/146/64
f 232/147/64 233/149/64 213/150/64 212/148/64
f 233/149/64 234/124/64 214/151/64 213/150/64
f 234/124/64 235/123/64 215/152/64 214/151/64
f 235/123/64 236/153/64 216/154/64 215/152/64
f 236/153/64 237/155/64 217/156/64 216/154/64
f 237/155/64 238/157/64 218/158/64 217/156/64
f 238/157/64 239/159/64 219/160/64 218/158/64
f 239/159/64 240/161/64 220/162/64 219/160/64
f 240/161/64 222/125/64 202/128/64 220/162/64
f 229/141/65 228/139/65 241/139/65 246/141/65
f 237/155/66 236/153/66 241/153/66 250/155/66
f 223/129/67 221/126/67 241/126/67 243/129/67
f 231/145/68 230/143/68 241/143/68 247/145/68
f 239/159/69 238/157/69 241/157/69 251/159/69
f 225/133/70 224/131/70 241/131/70 244/133/70
f 233/149/71 232/147/71 241/147/71 248/149/71
f 222/125/72 240/161/72 241/161/72 242/125/72
f 227/137/73 226/135/73 241/135/73 245/137/73
o 円柱.002
v 0.136055 0.000000 -0.047452
v 0.183507 -0.000000 -0.047452
v 0.136055 -0.014663 -0.045129
v 0.183507 -0.014663 -0.045129
v 0.136055 -0.027891 -0.038389
v 0.183507 -0.027891 -0.038389
v 0.136055 -0.038389 -0.027891
v 0.183507 -0.038389 -0.027891
v 0.136055 -0.045129 -0.014663
v 0.183507 -0.045129 -0.014663
v 0.136055 -0.047452 -0.000000
v 0.183507 -0.047452 -0.000000
v 0.136055 -0.045129 0.014663
v 0.183507 -0.045129 0.014663
v 0.136055 -0.038389 0.027891
v 0.183507 -0.038389 0.027891
v 0.136055 -0.027891 0.038389
v 0.183507 -0.027891 0.038389
v 0.136055 -0.014663 0.045129
v 0.183507 -0.014663 0.045129
v 0.136055 0.000000 0.047452
v 0.183507 -0.000000 0.047452
v 0.136055 0.014663 0.045129
v 0.183507 0.014663 0.045129
v 0.136055 0.027891 0.038389
v 0.183507 0.027891 0.038389
v 0.136055 0.038389 0.027891
v 0.183507 0.038389 0.027891
v 0.136055 0.045129 0.014663
v 0.183507 0.045129 0.014663
v 0.136055 0.047452 -0.000000
v 0.183507 0.047452 -0.000000
v 0.136055 0.045129 -0.014663
v 0.183507 0.045129 -0.014663
v 0.136055 0.038389 -0.027891
v 0.183507 0.038389 -0.027891
v 0.136055 0.027891 -0.038389
v 0.183507 0.027891 -0.038389
v 0.136055 0.014663 -0.045129
v 0.183507 0.014663 -0.045129
vn -0.0000 -0.1564 -0.9877
vn -0.0000 -0.4540 -0.8910
vn -0.0000 -0.7071 -0.7071
vn -0.0000 -0.8910 -0.4540
vn -0.0000 -0.9877 -0.1564
vn -0.0000 -0.9877 0.1564
vn -0.0000 -0.8910 0.4540
vn -0.0000 -0.7071 0.7071
vn -0.0000 -0.4540 0.8910
vn -0.0000 -0.1564 0.9877
vn -0.0000 0.1564 0.9877
vn -0.0000 0.4540 0.8910
vn -0.0000 0.7071 0.7071
vn -0.0000 0.8910 0.4540
vn -0.0000 0.9877 0.1564
vn -0.0000 0.9877 -0.1564
vn -0.0000 0.8910 -0.4540
vn -0.0000 0.7071 -0.7071
vn 1.0000 -0.0000 -0.0000
vn -0.0000 0.4540 -0.8910
vn -0.0000 0.1564 -0.9877
vn -1.0000 -0.0000 -0.0000
vt 1.000000 0.500000
vt 1.000000 1.000000
vt 0.950000 1.000000
vt 0.950000 0.500000
vt 0.900000 1.000000
vt 0.900000 0.500000
vt 0.850000 1.000000
vt 0.850000 0.500000
vt 0.800000 1.000000
vt 0.800000 0.500000
vt 0.750000 1.000000
vt 0.750000 0.500000
vt 0.700000 1.000000
vt 0.700000 0.500000
vt 0.650000 1.000000
vt 0.650000 0.500000
vt 0.600000 1.000000
vt 0.600000 0.500000
vt 0.550000 1.000000
vt 0.550000 0.500000
vt 0.500000 1.000000
vt 0.500000 0.500000
vt 0.450000 1.000000
vt 0.450000 0.500000
vt 0.400000 1.000000
vt 0.400000 0.500000
vt 0.350000 1.000000
vt 0.350000 0.500000
vt 0.300000 1.000000
vt 0.300000 0.500000
vt 0.250000 1.000000
vt 0.250000 0.500000
vt 0.200000 1.000000
vt 0.200000 0.500000
vt 0.150000 1.000000
vt 0.150000 0.500000
vt 0.100000 1.000000
vt 0.100000 0.500000
vt 0.324164 0.478254
vt 0.250000 0.490000
vt 0.175836 0.478254
vt 0.108932 0.444164
vt 0.055836 0.391068
vt 0.021746 0.324164
vt 0.010000 0.250000
vt 0.021746 0.175836
vt 0.055836 0.108932
vt 0.108932 0.055836
vt 0.175836 0.021746
vt 0.250000 0.010000
vt 0.324164 0.021746
vt 0.391068 0.055836
vt 0.444164 0.108932
vt 0.478254 0.175836
vt 0.490000 0.250000
vt 0.478254 0.324164
vt 0.444164 0.391068
vt 0.391068 0.444164
vt 0.050000 1.000000
vt 0.050000 0.500000
vt -0.000000 1.000000
vt -0.000000 0.500000
vt 0.750000 0.490000
vt 0.824164 0.478254
vt 0.891068 0.444164
vt 0.944164 0.391068
vt 0.978254 0.324164
vt 0.990000 0.250000
vt 0.978254 0.175836
vt 0.944164 0.108932
vt 0.891068 0.055836
vt 0.824164 0.021746
vt 0.750000 0.010000
vt 0.675836 0.021746
vt 0.608932 0.055836
vt 0.555836 0.108932
vt 0.521746 0.175836
vt 0.510000 0.250000
vt 0.521746 0.324164
vt 0.555836 0.391068
vt 0.608932 0.444164
vt 0.675836 0.478254
s 0
f 252/163/74 253/164/74 255/165/74 254/166/74
f 254/166/75 255/165/75 257/167/75 256/168/75
f 256/168/76 257/167/76 259/169/76 258/170/76
f 258/170/77 259/169/77 261/171/77 260/172/77
f 260/172/78 261/171/78 263/173/78 262/174/78
f 262/174/79 263/173/79 265/175/79 264/176/79
f 264/176/80 265/175/80 267/177/80 266/178/80
f 266/178/81 267/177/81 269/179/81 268/180/81
f 268/180/82 269/179/82 271/181/82 270/182/82
f 270/182/83 271/181/83 273/183/83 272/184/83
f 272/184/84 273/183/84 275/185/84 274/186/84
f 274/186/85 275/185/85 277/187/85 276/188/85
f 276/188/86 277/187/86 279/189/86 278/190/86
f 278/190/87 279/189/87 281/191/87 280/192/87
f 280/192/88 281/191/88 283/193/88 282/194/88
f 282/194/89 283/193/89 285/195/89 284/196/89
f 284/196/90 285/195/90 287/197/90 286/198/90
f 286/198/91 287/197/91 289/199/91 288/200/91
f 255/201/92 253/202/92 291/203/92 289/204/92 287/205/92 285/206/92 283/207/92 281/208/92 279/209/92 277/210/92 275/211/92 273/212/92 271/213/92 269/214/92 267/215/92 265/216/92 263/217/92 261/218/92 259/219/92 257/220/92
f 288/200/93 289/199/93 291/221/93 290/222/93
f 290/222/94 291/221/94 253/223/94 252/224/94
f 252/225/95 254/226/95 256/227/95 258/228/95 260/229/95 262/230/95 264/231/95 266/232/95 268/233/95 270/234/95 272/235/95 274/236/95 276/237/95 278/238/95 280/239/95 282/240/95 284/241/95 286/242/95 288/243/95 290/244/95
o 円柱.003
v -0.207683 0.000000 -0.030886
v 0.152926 -0.000000 -0.030886
v -0.207683 -0.009544 -0.029374
v 0.152926 -0.009544 -0.029374
v -0.207683 -0.018154 -0.024987
v 0.152926 -0.018154 -0.024987
v -0.207683 -0.024987 -0.018154
v 0.152926 -0.024987 -0.018154
v -0.207683 -0.029374 -0.009544
v 0.152926 -0.029374 -0.009544
v -0.207683 -0.030886 0.000000
v 0.152926 -0.030886 0.000000
v -0.207683 -0.029374 0.009544
v 0.152926 -0.029374 0.009544
v -0.207683 -0.024987 0.018154
v 0.152926 -0.024987 0.018154
v -0.207683 -0.018154 0.024987
v 0.152926 -0.018154 0.024987
v -0.207683 -0.009544 0.029374
v 0.152926 -0.009544 0.029374
v -0.207683 0.000000 0.030886
v 0.152926 -0.000000 0.030886
v -0.207683 0.009544 0.029374
v 0.152926 0.009544 0.029374
v -0.207683 0.018154 0.024987
v 0.152926 0.018154 0.024987
v -0.207683 0.024987 0.018154
v 0.152926 0.024987 0.018154
v -0.207683 0.029374 0.009544
v 0.152926 0.029374 0.009544
v -0.207683 0.030886 0.000000
v 0.152926 0.030886 0.000000
v -0.207683 0.029374 -0.009544
v 0.152926 0.029374 -0.009544
v -0.207683 0.024987 -0.018154
v 0.152926 0.024987 -0.018154
v -0.207683 0.018154 -0.024987
v 0.152926 0.018154 -0.024987
v -0.207683 0.009544 -0.029374
v 0.152926 0.009544 -0.029374
vn -0.0000 -0.1564 -0.9877
vn -0.0000 -0.4540 -0.8910
vn -0.0000 -0.7071 -0.7071
vn -0.0000 -0.8910 -0.4540
vn -0.0000 -0.9877 -0.1564
vn -0.0000 -0.9877 0.1564
vn -0.0000 -0.8910 0.4540
vn -0.0000 -0.7071 0.7071
vn -0.0000 -0.4540 0.8910
vn -0.0000 -0.1564 0.9877
vn -0.0000 0.1564 0.9877
vn -0.0000 0.4540 0.8910
vn -0.0000 0.7071 0.7071
vn -0.0000 0.8910 0.4540
vn -0.0000 0.9877 0.1564
vn -0.0000 0.9877 -0.1564
vn -0.0000 0.8910 -0.4540
vn -0.0000 0.7071 -0.7071
vn 1.0000 -0.0000 -0.0000
vn -0.0000 0.4540 -0.8910
vn -0.0000 0.1564 -0.9877
vn -1.0000 -0.0000 -0.0000
vt 1.000000 0.500000
vt 1.000000 1.000000
vt 0.950000 1.000000
vt 0.950000 0.500000
vt 0.900000 1.000000
vt 0.900000 0.500000
vt 0.850000 1.000000
vt 0.850000 0.500000
vt 0.800000 1.000000
vt 0.800000 0.500000
vt 0.750000 1.000000
vt 0.750000 0.500000
vt 0.700000 1.000000
vt 0.700000 0.500000
vt 0.650000 1.000000
vt 0.650000 0.500000
vt 0.600000 1.000000
vt 0.600000 0.500000
vt 0.550000 1.000000
vt 0.550000 0.500000
vt 0.500000 1.000000
vt 0.500000 0.500000
vt 0.450000 1.000000
vt 0.450000 0.500000
vt 0.400000 1.000000
vt 0.400000 0.500000
vt 0.350000 1.000000
vt 0.350000 0.500000
vt 0.300000 1.000000
vt 0.300000 0.500000
vt 0.250000 1.000000
vt 0.250000 0.500000
vt 0.200000 1.000000
vt 0.200000 0.500000
vt 0.150000 1.000000
vt 0.150000 0.500000
vt 0.100000 1.000000
vt 0.100000 0.500000
vt 0.324164 0.478254
vt 0.250000 0.490000
vt 0.175836 0.478254
vt 0.108932 0.444164
vt 0.055836 0.391068
vt 0.021746 0.324164
vt 0.010000 0.250000
vt 0.021746 0.175836
vt 0.055836 0.108932
vt 0.108932 0.055836
vt 0.175836 0.021746
vt 0.250000 0.010000
vt 0.324164 0.021746
vt 0.391068 0.055836
vt 0.444164 0.108932
vt 0.478254 0.175836
vt 0.490000 0.250000
vt 0.478254 0.324164
vt 0.444164 0.391068
vt 0.391068 0.444164
vt 0.050000 1.000000
vt 0.050000 0.500000
vt -0.000000 1.000000
vt -0.000000 0.500000
vt 0.750000 0.490000
vt 0.824164 0.478254
vt 0.891068 0.444164
vt 0.944164 0.391068
vt 0.978254 0.324164
vt 0.990000 0.250000
vt 0.978254 0.175836
vt 0.944164 0.108932
vt 0.891068 0.055836
vt 0.824164 0.021746
vt 0.750000 0.010000
vt 0.675836 0.021746
vt 0.608932 0.055836
vt 0.555836 0.108932
vt 0.521746 0.175836
vt 0.510000 0.250000
vt 0.521746 0.324164
vt 0.555836 0.391068
vt 0.608932 0.444164
vt 0.675836 0.478254
s 0
f 292/245/96 293/246/96 295/247/96 294/248/96
f 294/248/97 295/247/97 297/249/97 296/250/97
f 296/250/98 297/249/98 299/251/98 298/252/98
f 298/252/99 299/251/99 301/253/99 300/254/99
f 300/254/100 301/253/100 303/255/100 302/256/100
f 302/256/101 303/255/101 305/257/101 304/258/101
f 304/258/102 305/257/102 307/259/102 306/260/102
f 306/260/103 307/259/103 309/261/103 308/262/103
f 308/262/104 309/261/104 311/263/104 310/264/104
f 310/264/105 311/263/105 313/265/105 312/266/105
f 312/266/106 313/265/106 315/267/106 314/268/106
f 314/268/107 315/267/107 317/269/107 316/270/107
f 316/270/108 317/269/108 319/271/108 318/272/108
f 318/272/109 319/271/109 321/273/109 320/274/109
f 320/274/110 321/273/110 323/275/110 322/276/110
f 322/276/111 323/275/111 325/277/111 324/278/111
f 324/278/112 325/277/112 327/279/112 326/280/112
f 326/280/113 327/279/113 329/281/113 328/282/113
f 295/283/114 293/284/114 331/285/114 329/286/114 327/287/114 325/288/114 323/289/114 321/290/114 319/291/114 317/292/114 315/293/114 313/294/114 311/295/114 309/296/114 307/297/114 305/298/114 303/299/114 301/300/114 299/301/114 297/302/114
f 328/282/115 329/281/115 331/303/115 330/304/115
f 330/304/116 331/303/116 293/305/116 292/306/116
f 292/307/117 294/308/117 296/309/117 298/310/117 300/311/117 302/312/117 304/313/117 306/314/117 308/315/117 310/316/117 312/317/117 314/318/117 316/319/117 318/320/117 320/321/117 322/322/117 324/323/117 326/324/117 328/325/117 330/326/117
o gauge_tyre_envelope
v -0.120000 0.000000 -0.450000
v 0.120000 -0.000000 -0.450000
v -0.120000 -0.058737 -0.446150
v 0.120000 -0.058737 -0.446150
v -0.120000 -0.116469 -0.434667
v 0.120000 -0.116469 -0.434667
v -0.120000 -0.172208 -0.415746
v 0.120000 -0.172208 -0.415746
v -0.120000 -0.225000 -0.389711
v 0.120000 -0.225000 -0.389711
v -0.120000 -0.273943 -0.357009
v 0.120000 -0.273943 -0.357009
v -0.120000 -0.318198 -0.318198
v 0.120000 -0.318198 -0.318198
v -0.120000 -0.357009 -0.273943
v 0.120000 -0.357009 -0.273943
v -0.120000 -0.389711 -0.225000
v 0.120000 -0.389711 -0.225000
v -0.120000 -0.415746 -0.172208
v 0.120000 -0.415746 -0.172208
v -0.120000 -0.434667 -0.116469
v 0.120000 -0.434667 -0.116469
v -0.120000 -0.446150 -0.058737
v 0.120000 -0.446150 -0.058737
v -0.120000 -0.450000 0.000000
v 0.120000 -0.450000 0.000000
v -0.120000 -0.446150 0.058737
v 0.120000 -0.446150 0.058737
v -0.120000 -0.434667 0.116469
v 0.120000 -0.434667 0.116469
v -0.120000 -0.415746 0.172208
v 0.120000 -0.415746 0.172208
v -0.120000 -0.389711 0.225000
v 0.120000 -0.389711 0.225000
v -0.120000 -0.357009 0.273943
v 0.120000 -0.357009 0.273943
v -0.120000 -0.318198 0.318198
v 0.120000 -0.318198 0.318198
v -0.120000 -0.273943 0.357009
v 0.120000 -0.273943 0.357009
v -0.120000 -0.225000 0.389711
v 0.120000 -0.225000 0.389711
v -0.120000 -0.172208 0.415746
v 0.120000 -0.172208 0.415746
v -0.120000 -0.116469 0.434667
v 0.120000 -0.116469 0.434667
v -0.120000 -0.058737 0.446150
v 0.120000 -0.058737 0.446150
v -0.120000 0.000000 0.450000
v 0.120000 -0.000000 0.450000
v -0.120000 0.058737 0.446150
v 0.120000 0.058737 0.446150
v -0.120000 0.116469 0.434667
v 0.120000 0.116469 0.434667
v -0.120000 0.172208 0.415746
v 0.120000 0.172208 0.415746
v -0.120000 0.225000 0.389711
v 0.120000 0.225000 0.389711
v -0.120000 0.273943 0.357009
v 0.120000 0.273943 0.357009
v -0.120000 0.318198 0.318198
v 0.120000 0.318198 0.318198
v -0.120000 0.357009 0.273943
v 0.120000 0.357009 0.273943
v -0.120000 0.389711 0.225000
v 0.120000 0.389711 0.225000
v -0.120000 0.415746 0.172208
v 0.120000 0.415746 0.172208
v -0.120000 0.434667 0.116469
v 0.120000 0.434667 0.116469
v -0.120000 0.446150 0.058737
v 0.120000 0.446150 0.058737
v -0.120000 0.450000 0.000000
v 0.120000 0.450000 0.000000
v -0.120000 0.446150 -0.058737
v 0.120000 0.446150 -0.058737
v -0.120000 0.434667 -0.116469
v 0.120000 0.434667 -0.116469
v -0.120000 0.415746 -0.172208
v 0.120000 0.415746 -0.172208
v -0.120000 0.389711 -0.225000
v 0.120000 0.389711 -0.225000
v -0.120000 0.357009 -0.273943
v 0.120000 0.357009 -0.273943
v -0.120000 0.318198 -0.318198
v 0.120000 0.318198 -0.318198
v -0.120000 0.273943 -0.357009
v 0.120000 0.273943 -0.357009
v -0.120000 0.225000 -0.389711
v 0.120000 0.225000 -0.389711
v -0.120000 0.172208 -0.415746
v 0.120000 0.172208 -0.415746
v -0.120000 0.116469 -0.434667
v 0.120000 0.116469 -0.434667
v -0.120000 0.058737 -0.446150
v 0.120000 0.058737 -0.446150
vn -0.0000 -0.0654 -0.9979
vn -0.0000 -0.1951 -0.9808
vn -0.0000 -0.3214 -0.9469
vn -0.0000 -0.4423 -0.8969
vn -0.0000 -0.5556 -0.8315
vn -0.0000 -0.6593 -0.7518
vn -0.0000 -0.7518 -0.6593
vn -0.0000 -0.8315 -0.5556
vn -0.0000 -0.8969 -0.4423
vn -0.0000 -0.9469 -0.3214
vn -0.0000 -0.9808 -0.1951
vn -0.0000 -0.9979 -0.0654
vn -0.0000 -0.9979 0.0654
vn -0.0000 -0.9808 0.1951
vn -0.0000 -0.9469 0.3214
vn -0.0000 -0.8969 0.4423
vn -0.0000 -0.8315 0.5556
vn -0.0000 -0.7518 0.6593
vn -0.0000 -0.6593 0.7518
vn -0.0000 -0.5556 0.8315
vn -0.0000 -0.4423 0.8969
vn -0.0000 -0.3214 0.9469
vn -0.0000 -0.1951 0.9808
vn -0.0000 -0.0654 0.9979
vn -0.0000 0.0654 0.9979
vn -0.0000 0.1951 0.9808
vn -0.0000 0.3214 0.9469
vn -0.0000 0.4423 0.8969
vn -0.0000 0.5556 0.8315
vn -0.0000 0.6593 0.7518
vn -0.0000 0.7518 0.6593
vn -0.0000 0.8315 0.5556
vn -0.0000 0.8969 0.4423
vn -0.0000 0.9469 0.3214
vn -0.0000 0.9808 0.1951
vn -0.0000 0.9979 0.0654
vn -0.0000 0.9979 -0.0654
vn -0.0000 0.9808 -0.1951
vn -0.0000 0.9469 -0.3214
vn -0.0000 0.8969 -0.4423
vn -0.0000 0.8315 -0.5556
vn -0.0000 0.7518 -0.6593
vn -0.0000 0.6593 -0.7518
vn -0.0000 0.5556 -0.8315
vn -0.0000 0.4423 -0.8969
vn -0.0000 0.3214 -0.9469
vn 1.0000 -0.0000 -0.0000
vn -0.0000 0.1951 -0.9808
vn -0.0000 0.0654 -0.9979
vn -1.0000 -0.0000 -0.0000
vt 1.000000 0.500000
vt 1.000000 1.000000
vt 0.979167 1.000000
vt 0.979167 0.500000
vt 0.958333 1.000000
vt 0.958333 0.500000
vt 0.937500 1.000000
vt 0.937500 0.500000
vt 0.916667 1.000000
vt 0.916667 0.500000
vt 0.895833 1.000000
vt 0.895833 0.500000
vt 0.875000 1.000000
vt 0.875000 0.500000
vt 0.854167 1.000000
vt 0.854167 0.500000
vt 0.833333 1.000000
vt 0.833333 0.500000
vt 0.812500 1.000000
vt 0.812500 0.500000
vt 0.791667 1.000000
vt 0.791667 0.500000
vt 0.770834 1.000000
vt 0.770834 0.500000
vt 0.750000 1.000000
vt 0.750000 0.500000
vt 0.729167 1.000000
vt 0.729167 0.500000
vt 0.708334 1.000000
vt 0.708334 0.500000
vt 0.687500 1.000000
vt 0.687500 0.500000
vt 0.666667 1.000000
vt 0.666667 0.500000
vt 0.645834 1.000000
vt 0.645834 0.500000
vt 0.625000 1.000000
vt 0.625000 0.500000
vt 0.604167 1.000000
vt 0.604167 0.500000
vt 0.583334 1.000000
vt 0.583334 0.500000
vt 0.562500 1.000000
vt 0.562500 0.500000
vt 0.541667 1.000000
vt 0.541667 0.500000
vt 0.520834 1.000000
vt 0.520834 0.500000
vt 0.500000 1.000000
vt 0.500000 0.500000
vt 0.479167 1.000000
vt 0.479167 0.500000
vt 0.458334 1.000000
vt 0.458334 0.500000
vt 0.437500 1.000000
vt 0.437500 0.500000
vt 0.416667 1.000000
vt 0.416667 0.500000
vt 0.395834 1.000000
vt 0.395834 0.500000
vt 0.375000 1.000000
vt 0.375000 0.500000
vt 0.354167 1.000000
vt 0.354167 0.500000
vt 0.333334 1.000000
vt 0.333334 0.500000
vt 0.312500 1.000000
vt 0.312500 0.500000
vt 0.291667 1.000000
vt 0.291667 0.500000
vt 0.270834 1.000000
vt 0.270834 0.500000
vt 0.250000 1.000000
vt 0.250000 0.500000
vt 0.229167 1.000000
vt 0.229167 0.500000
vt 0.208334 1.000000
vt 0.208334 0.500000
vt 0.187500 1.000000
vt 0.187500 0.500000
vt 0.166667 1.000000
vt 0.166667 0.500000
vt 0.145834 1.000000
vt 0.145834 0.500000
vt 0.125000 1.000000
vt 0.125000 0.500000
vt 0.104167 1.000000
vt 0.104167 0.500000
vt 0.083334 1.000000
vt 0.083334 0.500000
vt 0.062500 1.000000
vt 0.062500 0.500000
vt 0.041667 1.000000
vt 0.041667 0.500000
vt 0.281326 0.487947
vt 0.250000 0.490000
vt 0.218674 0.487947
vt 0.187883 0.481822
vt 0.158156 0.471731
vt 0.130000 0.457846
vt 0.103897 0.440405
vt 0.080294 0.419706
vt 0.059595 0.396103
vt 0.042154 0.370000
vt 0.028269 0.341844
vt 0.018178 0.312117
vt 0.012053 0.281326
vt 0.010000 0.250000
vt 0.012053 0.218674
vt 0.018178 0.187883
vt 0.028269 0.158156
vt 0.042154 0.130000
vt 0.059595 0.103897
vt 0.080294 0.080294
vt 0.103897 0.059595
vt 0.130000 0.042154
vt 0.158156 0.028269
vt 0.187883 0.018178
vt 0.218674 0.012053
vt 0.250000 0.010000
vt 0.281326 0.012053
vt 0.312117 0.018178
vt 0.341844 0.028269
vt 0.370000 0.042154
vt 0.396103 0.059595
vt 0.419706 0.080294
vt 0.440405 0.103897
vt 0.457846 0.130000
vt 0.471731 0.158156
vt 0.481822 0.187883
vt 0.487947 0.218674
vt 0.490000 0.250000
vt 0.487947 0.281326
vt 0.481822 0.312117
vt 0.471731 0.341844
vt 0.457846 0.370000
vt 0.440405 0.396103
vt 0.419706 0.419706
vt 0.396103 0.440405
vt 0.370000 0.457846
vt 0.341844 0.471731
vt 0.312117 0.481822
vt 0.020834 1.000000
vt 0.020834 0.500000
vt 0.000000 1.000000
vt 0.000000 0.500000
vt 0.750000 0.490000
vt 0.781326 0.487947
vt 0.812117 0.481822
vt 0.841844 0.471731
vt 0.870000 0.457846
vt 0.896103 0.440405
vt 0.919706 0.419706
vt 0.940405 0.396103
vt 0.957846 0.370000
vt 0.971731 0.341844
vt 0.981822 0.312117
vt 0.987947 0.281326
vt 0.990000 0.250000
vt 0.987947 0.218674
vt 0.981822 0.187883
vt 0.971731 0.158156
vt 0.957846 0.130000
vt 0.940405 0.103897
vt 0.919706 0.080294
vt 0.896103 0.059595
vt 0.870000 0.042154
vt 0.841844 0.028269
vt 0.812117 0.018178
vt 0.781326 0.012053
vt 0.750000 0.010000
vt 0.718674 0.012053
vt 0.687883 0.018178
vt 0.658156 0.028269
vt 0.630000 0.042154
vt 0.603897 0.059595
vt 0.580294 0.080294
vt 0.559595 0.103897
vt 0.542154 0.130000
vt 0.528269 0.158156
vt 0.518178 0.187883
vt 0.512053 0.218674
vt 0.510000 0.250000
vt 0.512053 0.281326
vt 0.518178 0.312117
vt 0.528269 0.341844
vt 0.542154 0.370000
vt 0.559595 0.396103
vt 0.580294 0.419706
vt 0.603897 0.440405
vt 0.630000 0.457846
vt 0.658156 0.471731
vt 0.687883 0.481822
vt 0.718674 0.487947
s 0
f 332/327/118 333/328/118 335/329/118 334/330/118
f 334/330/119 335/329/119 337/331/119 336/332/119
f 336/332/120 337/331/120 339/333/120 338/334/120
f 338/334/121 339/333/121 341/335/121 340/336/121
f 340/336/122 341/335/122 343/337/122 342/338/122
f 342/338/123 343/337/123 345/339/123 344/340/123
f 344/340/124 345/339/124 347/341/124 346/342/124
f 346/342/125 347/341/125 349/343/125 348/344/125
f 348/344/126 349/343/126 351/345/126 350/346/126
f 350/346/127 351/345/127 353/347/127 352/348/127
f 352/348/128 353/347/128 355/349/128 354/350/128
f 354/350/129 355/349/129 357/351/129 356/352/129
f 356/352/130 357/351/130 359/353/130 358/354/130
f 358/354/131 359/353/131 361/355/131 360/356/131
f 360/356/132 361/355/132 363/357/132 362/358/132
f 362/358/133 363/357/133 365/359/133 364/360/133
f 364/360/134 365/359/134 367/361/134 366/362/134
f 366/362/135 367/361/135 369/363/135 368/364/135
f 368/364/136 369/363/136 371/365/136 370/366/136
f 370/366/137 371/365/137 373/367/137 372/368/137
f 372/368/138 373/367/138 375/369/138 374/370/138
f 374/370/139 375/369/139 377/371/139 376/372/139
f 376/372/140 377/371/140 379/373/140 378/374/140
f 378/374/141 379/373/141 381/375/141 380/376/141
f 380/376/142 381/375/142 383/377/142 382/378/142
f 382/378/143 383/377/143 385/379/143 384/380/143
f 384/380/144 385/379/144 387/381/144 386/382/144
f 386/382/145 387/381/145 389/383/145 388/384/145
f 388/384/146 389/383/146 391/385/146 390/386/146
f 390/386/147 391/385/147 393/387/147 392/388/147
f 392/388/148 393/387/148 395/389/148 394/390/148
f 394/390/149 395/389/149 397/391/149 396/392/149
f 396/392/150 397/391/150 399/393/150 398/394/150
f 398/394/151 399/393/151 401/395/151 400/396/151
f 400/396/152 401/395/152 403/397/152 402/398/152
f 402/398/153 403/397/153 405/399/153 404/400/153
f 404/400/154 405/399/154 407/401/154 406/402/154
f 406/402/155 407/401/155 409/403/155 408/404/155
f 408/404/156 409/403/156 411/405/156 410/406/156
f 410/406/157 411/405/157 413/407/157 412/408/157
f 412/408/158 413/407/158 415/409/158 414/410/158
f 414/410/159 415/409/159 417/411/159 416/412/159
f 416/412/160 417/411/160 419/413/160 418/414/160
f 418/414/161 419/413/161 421/415/161 420/416/161
f 420/416/162 421/415/162 423/417/162 422/418/162
f 422/418/163 423/417/163 425/419/163 424/420/163
f 335/421/164 333/422/164 427/423/164 425/424/164 423/425/164 421/426/164 419/427/164 417/428/164 415/429/164 413/430/164 411/431/164 409/432/164 407/433/164 405/434/164 403/435/164 401/436/164 399/437/164 397/438/164 395/439/164 393/440/164 391/441/164 389/442/164 387/443/164 385/444/164 383/445/164 381/446/164 379/447/164 377/448/164 375/449/164 373/450/164 371/451/164 369/452/164 367/453/164 365/454/164 363/455/164 361/456/164 359/457/164 357/458/164 355/459/164 353/460/164 351/461/164 349/462/164 347/463/164 345/464/164 343/465/164 341/466/164 339/467/164 337/468/164
f 424/420/165 425/419/165 427/469/165 426/470/165
f 426/470/166 427/469/166 333/471/166 332/472/166
f 332/473/167 334/474/167 336/475/167 338/476/167 340/477/167 342/478/167 344/479/167 346/480/167 348/481/167 350/482/167 352/483/167 354/484/167 356/485/167 358/486/167 360/487/167 362/488/167 364/489/167 366/490/167 368/491/167 370/492/167 372/493/167 374/494/167 376/495/167 378/496/167 380/497/167 382/498/167 384/499/167 386/500/167 388/501/167 390/502/167 392/503/167 394/504/167 396/505/167 398/506/167 400/507/167 402/508/167 404/509/167 406/510/167 408/511/167 410/512/167 412/513/167 414/514/167 416/515/167 418/516/167 420/517/167 422/518/167 424/519/167 426/520/167
o gauge_axle
v -0.300000 0.000000 -0.013500
v 0.300000 -0.000000 -0.013500
v -0.300000 -0.009546 -0.009546
v 0.300000 -0.009546 -0.009546
v -0.300000 -0.013500 0.000000
v 0.300000 -0.013500 0.000000
v -0.300000 -0.009546 0.009546
v 0.300000 -0.009546 0.009546
v -0.300000 0.000000 0.013500
v 0.300000 -0.000000 0.013500
v -0.300000 0.009546 0.009546
v 0.300000 0.009546 0.009546
v -0.300000 0.013500 0.000000
v 0.300000 0.013500 0.000000
v -0.300000 0.009546 -0.009546
v 0.300000 0.009546 -0.009546
vn -0.0000 -0.3827 -0.9239
vn -0.0000 -0.9239 -0.3827
vn -0.0000 -0.9239 0.3827
vn -0.0000 -0.3827 0.9239
vn -0.0000 0.3827 0.9239
vn -0.0000 0.9239 0.3827
vn 1.0000 -0.0000 -0.0000
vn -0.0000 0.9239 -0.3827
vn -0.0000 0.3827 -0.9239
vn -1.0000 -0.0000 -0.0000
vt 1.000000 0.500000
vt 1.000000 1.000000
vt 0.875000 1.000000
vt 0.875000 0.500000
vt 0.750000 1.000000
vt 0.750000 0.500000
vt 0.625000 1.000000
vt 0.625000 0.500000
vt 0.500000 1.000000
vt 0.500000 0.500000
vt 0.375000 1.000000
vt 0.375000 0.500000
vt 0.250000 1.000000
vt 0.250000 0.500000
vt 0.419706 0.419706
vt 0.250000 0.490000
vt 0.080294 0.419706
vt 0.010000 0.250000
vt 0.080294 0.080294
vt 0.250000 0.010000
vt 0.419706 0.080294
vt 0.490000 0.250000
vt 0.125000 1.000000
vt 0.125000 0.500000
vt 0.000000 1.000000
vt 0.000000 0.500000
vt 0.750000 0.490000
vt 0.919706 0.419706
vt 0.990000 0.250000
vt 0.919706 0.080294
vt 0.750000 0.010000
vt 0.580294 0.080294
vt 0.510000 0.250000
vt 0.580294 0.419706
s 0
f 428/521/168 429/522/168 431/523/168 430/524/168
f 430/524/169 431/523/169 433/525/169 432/526/169
f 432/526/170 433/525/170 435/527/170 434/528/170
f 434/528/171 435/527/171 437/529/171 436/530/171
f 436/530/172 437/529/172 439/531/172 438/532/172
f 438/532/173 439/531/173 441/533/173 440/534/173
f 431/535/174 429/536/174 443/537/174 441/538/174 439/539/174 437/540/174 435/541/174 433/542/174
f 440/534/175 441/533/175 443/543/175 442/544/175
f 442/544/176 443/543/176 429/545/176 428/546/176
f 428/547/177 430/548/177 432/549/177 434/550/177 436/551/177 438/552/177 440/553/177 442/554/177
o gauge_ground
v -0.675000 -0.450000 0.675000
v 0.675000 -0.450000 0.675000
v -0.675000 -0.450000 -0.675000
v 0.675000 -0.450000 -0.675000
vn -0.0000 1.0000 -0.0000
vt 0.000000 0.000000
vt 1.000000 0.000000
vt 1.000000 1.000000
vt 0.000000 1.000000
s 0
f 444/555/178 445/556/178 447/557/178 446/558/178
o gauge_outer_face
v 0.165000 0.000000 -0.054000
v 0.165000 -0.038184 -0.038184
v 0.165000 -0.054000 0.000000
v 0.165000 -0.038184 0.038184
v 0.165000 0.000000 0.054000
v 0.165000 0.038184 0.038184
v 0.165000 0.054000 0.000000
v 0.165000 0.038184 -0.038184
v 0.300000 -0.000000 0.000000
vn 0.3466 -0.3590 -0.8666
vn 0.3466 -0.8666 -0.3590
vn 0.3466 -0.8666 0.3590
vn 0.3466 -0.3590 0.8666
vn 0.3466 0.3590 0.8666
vn 0.3466 0.8666 0.3590
vn -1.0000 -0.0000 -0.0000
vn 0.3466 0.8666 -0.3590
vn 0.3466 0.3590 -0.8666
vt 0.250000 0.490000
vt 0.250000 0.250000
vt 0.419706 0.419706
vt 0.490000 0.250000
vt 0.419706 0.080294
vt 0.250000 0.010000
vt 0.080294 0.080294
vt 0.010000 0.250000
vt 0.750000 0.490000
vt 0.919706 0.419706
vt 0.990000 0.250000
vt 0.919706 0.080294
vt 0.750000 0.010000
vt 0.580294 0.080294
vt 0.510000 0.250000
vt 0.580294 0.419706
vt 0.080294 0.419706
s 0
f 448/559/179 456/560/179 449/561/179
f 449/561/180 456/560/180 450/562/180
f 450/562/181 456/560/181 451/563/181
f 451/563/182 456/560/182 452/564/182
f 452/564/183 456/560/183 453/565/183
f 453/565/184 456/560/184 454/566/184
f 448/567/185 449/568/185 450/569/185 451/570/185 452/571/185 453/572/185 454/573/185 455/574/185
f 454/566/186 456/560/186 455/575/186
f 455/575/187 456/560/187 448/559/187
